{
date = "2013-03-12 14:10:50 +0200";
familyName = "Open Sans Hebrew";
fontMaster = (
{
alignmentZones = (
"{3209, 20}",
"{1462, 23}",
"{1290, 30}",
"{1118, 23}",
"{0, 20}",
"{-492, 0}",
"{-1008, 20}"
);
ascender = 3209;
capHeight = 1462;
customParameters = (
{
name = postscriptUnderlinePosition;
value = "-205";
},
{
name = postscriptUnderlineThickness;
value = 102;
}
);
descender = "-1008";
horizontalStems = (
219,
258,
340
);
id = "98F5E167-1CFF-4278-A065-7BF212AD30BE";
verticalStems = (
252,
305,
350
);
weightValue = 400;
widthValue = 5;
xHeight = 1118;
}
);
glyphs = (
{
glyphname = A;
lastChange = "2013-03-07 06:44:13 +0200";
layers = (
{
anchors = (
{
name = ogonek;
position = "{1166, 10}";
},
{
name = top;
position = "{648, 1462}";
}
);
layerId = "98F5E167-1CFF-4278-A065-7BF212AD30BE";
name = Regular;
paths = (
{
closed = 1;
nodes = (
"578 1468 LINE",
"0 0 LINE",
"172 0 LINE",
"352 465 LINE",
"938 465 LINE",
"1120 0 LINE",
"1296 0 LINE",
"721 1468 LINE"
);
},
{
closed = 1;
nodes = (
"670 1199 OFFCURVE",
"693 1128 OFFCURVE",
"715 1071 CURVE SMOOTH",
"885 618 LINE",
"412 618 LINE",
"584 1071 LINE SMOOTH",
"611 1148 OFFCURVE",
"632 1218 OFFCURVE",
"647 1282 CURVE"
);
}
);
width = 1296;
}
);
unicode = 0041;
},
{
glyphname = Aacute;
lastChange = "2013-03-07 06:44:13 +0200";
layers = (
{
layerId = "98F5E167-1CFF-4278-A065-7BF212AD30BE";
name = Regular;
paths = (
{
closed = 1;
nodes = (
"578 1468 LINE",
"0 0 LINE",
"172 0 LINE",
"352 465 LINE",
"938 465 LINE",
"1120 0 LINE",
"1296 0 LINE",
"721 1468 LINE"
);
},
{
closed = 1;
nodes = (
"670 1199 OFFCURVE",
"693 1128 OFFCURVE",
"715 1071 CURVE SMOOTH",
"885 618 LINE",
"412 618 LINE",
"584 1071 LINE SMOOTH",
"611 1148 OFFCURVE",
"632 1218 OFFCURVE",
"647 1282 CURVE"
);
},
{
closed = 1;
nodes = (
"717 1907 LINE",
"674 1820 OFFCURVE",
"590 1687 OFFCURVE",
"526 1604 CURVE",
"526 1579 LINE",
"637 1579 LINE",
"722 1648 OFFCURVE",
"860 1799 OFFCURVE",
"919 1886 CURVE",
"919 1907 LINE"
);
}
);
width = 1296;
}
);
unicode = 00C1;
},
{
glyphname = Acircumflex;
lastChange = "2013-03-07 06:44:13 +0200";
layers = (
{
layerId = "98F5E167-1CFF-4278-A065-7BF212AD30BE";
name = Regular;
paths = (
{
closed = 1;
nodes = (
"578 1468 LINE",
"0 0 LINE",
"172 0 LINE",
"352 465 LINE",
"938 465 LINE",
"1120 0 LINE",
"1296 0 LINE",
"721 1468 LINE"
);
},
{
closed = 1;
nodes = (
"670 1199 OFFCURVE",
"693 1128 OFFCURVE",
"715 1071 CURVE SMOOTH",
"885 618 LINE",
"412 618 LINE",
"584 1071 LINE SMOOTH",
"611 1148 OFFCURVE",
"632 1218 OFFCURVE",
"647 1282 CURVE"
);
},
{
closed = 1;
nodes = (
"555 1907 LINE",
"540 1880 OFFCURVE",
"515 1845 OFFCURVE",
"481 1802 CURVE SMOOTH",
"447 1759 OFFCURVE",
"388 1693 OFFCURVE",
"303 1602 CURVE",
"303 1579 LINE",
"418 1579 LINE",
"473 1614 OFFCURVE",
"546 1676 OFFCURVE",
"637 1765 CURVE",
"726 1678 OFFCURVE",
"799 1616 OFFCURVE",
"858 1579 CURVE",
"977 1579 LINE",
"977 1602 LINE",
"894 1689 OFFCURVE",
"834 1754 OFFCURVE",
"798 1799 CURVE SMOOTH",
"761 1843 OFFCURVE",
"736 1879 OFFCURVE",
"721 1907 CURVE"
);
}
);
width = 1296;
}
);
unicode = 00C2;
},
{
glyphname = Adieresis;
lastChange = "2013-03-07 06:44:13 +0200";
layers = (
{
layerId = "98F5E167-1CFF-4278-A065-7BF212AD30BE";
name = Regular;
paths = (
{
closed = 1;
nodes = (
"578 1468 LINE",
"0 0 LINE",
"172 0 LINE",
"352 465 LINE",
"938 465 LINE",
"1120 0 LINE",
"1296 0 LINE",
"721 1468 LINE"
);
},
{
closed = 1;
nodes = (
"670 1199 OFFCURVE",
"693 1128 OFFCURVE",
"715 1071 CURVE SMOOTH",
"885 618 LINE",
"412 618 LINE",
"584 1071 LINE SMOOTH",
"611 1148 OFFCURVE",
"632 1218 OFFCURVE",
"647 1282 CURVE"
);
},
{
closed = 1;
nodes = (
"405 1829 OFFCURVE",
"364 1800 OFFCURVE",
"364 1731 CURVE SMOOTH",
"364 1664 OFFCURVE",
"405 1632 OFFCURVE",
"454 1632 CURVE SMOOTH",
"505 1632 OFFCURVE",
"547 1664 OFFCURVE",
"547 1731 CURVE SMOOTH",
"547 1800 OFFCURVE",
"505 1829 OFFCURVE",
"454 1829 CURVE SMOOTH"
);
},
{
closed = 1;
nodes = (
"786 1829 OFFCURVE",
"745 1800 OFFCURVE",
"745 1731 CURVE SMOOTH",
"745 1664 OFFCURVE",
"786 1632 OFFCURVE",
"835 1632 CURVE SMOOTH",
"884 1632 OFFCURVE",
"927 1664 OFFCURVE",
"927 1731 CURVE SMOOTH",
"927 1800 OFFCURVE",
"884 1829 OFFCURVE",
"835 1829 CURVE SMOOTH"
);
}
);
width = 1296;
}
);
unicode = 00C4;
},
{
glyphname = Agrave;
lastChange = "2013-03-07 06:44:13 +0200";
layers = (
{
layerId = "98F5E167-1CFF-4278-A065-7BF212AD30BE";
name = Regular;
paths = (
{
closed = 1;
nodes = (
"578 1468 LINE",
"0 0 LINE",
"172 0 LINE",
"352 465 LINE",
"938 465 LINE",
"1120 0 LINE",
"1296 0 LINE",
"721 1468 LINE"
);
},
{
closed = 1;
nodes = (
"670 1199 OFFCURVE",
"693 1128 OFFCURVE",
"715 1071 CURVE SMOOTH",
"885 618 LINE",
"412 618 LINE",
"584 1071 LINE SMOOTH",
"611 1148 OFFCURVE",
"632 1218 OFFCURVE",
"647 1282 CURVE"
);
},
{
closed = 1;
nodes = (
"331 1907 LINE",
"331 1886 LINE",
"384 1802 OFFCURVE",
"527 1648 OFFCURVE",
"614 1579 CURVE",
"724 1579 LINE",
"724 1604 LINE",
"665 1675 OFFCURVE",
"577 1815 OFFCURVE",
"534 1907 CURVE"
);
}
);
width = 1296;
}
);
unicode = 00C0;
},
{
glyphname = Aring;
lastChange = "2013-03-07 06:44:13 +0200";
layers = (
{
layerId = "98F5E167-1CFF-4278-A065-7BF212AD30BE";
name = Regular;
paths = (
{
closed = 1;
nodes = (
"578 1468 LINE",
"0 0 LINE",
"172 0 LINE",
"352 465 LINE",
"938 465 LINE",
"1120 0 LINE",
"1296 0 LINE",
"721 1468 LINE"
);
},
{
closed = 1;
nodes = (
"670 1199 OFFCURVE",
"693 1128 OFFCURVE",
"715 1071 CURVE SMOOTH",
"885 618 LINE",
"412 618 LINE",
"584 1071 LINE SMOOTH",
"611 1148 OFFCURVE",
"632 1218 OFFCURVE",
"647 1282 CURVE"
);
},
{
closed = 1;
nodes = (
"713 1702 OFFCURVE",
"762 1660 OFFCURVE",
"762 1585 CURVE SMOOTH",
"762 1510 OFFCURVE",
"714 1468 OFFCURVE",
"645 1468 CURVE SMOOTH",
"569 1468 OFFCURVE",
"528 1510 OFFCURVE",
"528 1585 CURVE SMOOTH",
"528 1660 OFFCURVE",
"577 1702 OFFCURVE",
"645 1702 CURVE SMOOTH"
);
},
{
closed = 1;
nodes = (
"512 1798 OFFCURVE",
"424 1716 OFFCURVE",
"424 1585 CURVE SMOOTH",
"424 1454 OFFCURVE",
"510 1370 OFFCURVE",
"645 1370 CURVE SMOOTH",
"781 1370 OFFCURVE",
"870 1456 OFFCURVE",
"870 1587 CURVE SMOOTH",
"870 1710 OFFCURVE",
"780 1798 OFFCURVE",
"645 1798 CURVE SMOOTH"
);
}
);
width = 1296;
}
);
unicode = 00C5;
},
{
glyphname = Atilde;
lastChange = "2013-03-07 06:44:13 +0200";
layers = (
{
layerId = "98F5E167-1CFF-4278-A065-7BF212AD30BE";
name = Regular;
paths = (
{
closed = 1;
nodes = (
"578 1468 LINE",
"0 0 LINE",
"172 0 LINE",
"352 465 LINE",
"938 465 LINE",
"1120 0 LINE",
"1296 0 LINE",
"721 1468 LINE"
);
},
{
closed = 1;
nodes = (
"670 1199 OFFCURVE",
"693 1128 OFFCURVE",
"715 1071 CURVE SMOOTH",
"885 618 LINE",
"412 618 LINE",
"584 1071 LINE SMOOTH",
"611 1148 OFFCURVE",
"632 1218 OFFCURVE",
"647 1282 CURVE"
);
},
{
closed = 1;
nodes = (
"913 1839 LINE",
"893 1756 OFFCURVE",
"866 1718 OFFCURVE",
"801 1718 CURVE SMOOTH",
"758 1718 OFFCURVE",
"710 1748 OFFCURVE",
"658 1778 CURVE SMOOTH",
"606 1808 OFFCURVE",
"548 1837 OFFCURVE",
"487 1837 CURVE SMOOTH",
"366 1837 OFFCURVE",
"285 1740 OFFCURVE",
"268 1579 CURVE",
"366 1579 LINE",
"385 1660 OFFCURVE",
"414 1700 OFFCURVE",
"481 1700 CURVE SMOOTH",
"526 1700 OFFCURVE",
"575 1671 OFFCURVE",
"628 1641 CURVE SMOOTH",
"680 1611 OFFCURVE",
"735 1581 OFFCURVE",
"792 1581 CURVE SMOOTH",
"917 1581 OFFCURVE",
"995 1678 OFFCURVE",
"1012 1839 CURVE"
);
}
);
width = 1296;
}
);
unicode = 00C3;
},
{
glyphname = AE;
lastChange = "2013-03-07 06:44:13 +0200";
layers = (
{
layerId = "98F5E167-1CFF-4278-A065-7BF212AD30BE";
name = Regular;
paths = (
{
closed = 1;
nodes = (
"696 1462 LINE",
"-2 0 LINE",
"174 0 LINE",
"401 465 LINE",
"915 465 LINE",
"915 0 LINE",
"1665 0 LINE",
"1665 152 LINE",
"1085 152 LINE",
"1085 690 LINE",
"1626 690 LINE",
"1626 840 LINE",
"1085 840 LINE",
"1085 1311 LINE",
"1665 1311 LINE",
"1665 1462 LINE"
);
},
{
closed = 1;
nodes = (
"915 618 LINE",
"469 618 LINE",
"797 1311 LINE",
"915 1311 LINE"
);
}
);
width = 1788;
}
);
unicode = 00C6;
},
{
glyphname = B;
lastChange = "2013-03-07 06:44:13 +0200";
layers = (
{
layerId = "98F5E167-1CFF-4278-A065-7BF212AD30BE";
name = Regular;
paths = (
{
closed = 1;
nodes = (
"201 1462 LINE",
"201 0 LINE",
"711 0 LINE SMOOTH",
"870 0 OFFCURVE",
"992 37 OFFCURVE",
"1081 110 CURVE SMOOTH",
"1170 183 OFFCURVE",
"1214 285 OFFCURVE",
"1214 416 CURVE SMOOTH",
"1214 611 OFFCURVE",
"1103 728 OFFCURVE",
"881 766 CURVE",
"881 776 LINE",
"1066 809 OFFCURVE",
"1165 927 OFFCURVE",
"1165 1100 CURVE SMOOTH",
"1165 1225 OFFCURVE",
"1122 1317 OFFCURVE",
"1035 1375 CURVE SMOOTH",
"948 1433 OFFCURVE",
"808 1462 OFFCURVE",
"614 1462 CURVE SMOOTH"
);
},
{
closed = 1;
nodes = (
"911 692 OFFCURVE",
"1032 609 OFFCURVE",
"1032 428 CURVE SMOOTH",
"1032 233 OFFCURVE",
"912 145 OFFCURVE",
"676 145 CURVE SMOOTH",
"371 145 LINE",
"371 692 LINE",
"662 692 LINE SMOOTH"
);
},
{
closed = 1;
nodes = (
"877 1315 OFFCURVE",
"988 1247 OFFCURVE",
"988 1083 CURVE SMOOTH",
"988 993 OFFCURVE",
"963 930 OFFCURVE",
"910 892 CURVE SMOOTH",
"857 855 OFFCURVE",
"771 836 OFFCURVE",
"651 836 CURVE SMOOTH",
"371 836 LINE",
"371 1315 LINE",
"621 1315 LINE SMOOTH"
);
}
);
width = 1327;
}
);
unicode = 0042;
},
{
glyphname = C;
lastChange = "2013-03-07 06:44:13 +0200";
layers = (
{
anchors = (
{
name = bottom;
position = "{646, 0}";
},
{
name = top;
position = "{646, 1462}";
}
);
layerId = "98F5E167-1CFF-4278-A065-7BF212AD30BE";
name = Regular;
paths = (
{
closed = 1;
nodes = (
"397 1488 OFFCURVE",
"120 1184 OFFCURVE",
"125 733 CURVE SMOOTH",
"125 492 OFFCURVE",
"183 307 OFFCURVE",
"300 176 CURVE SMOOTH",
"417 45 OFFCURVE",
"584 -20 OFFCURVE",
"799 -20 CURVE SMOOTH",
"948 -20 OFFCURVE",
"1073 0 OFFCURVE",
"1174 37 CURVE",
"1174 186 LINE",
"1043 149 OFFCURVE",
"927 131 OFFCURVE",
"825 131 CURVE SMOOTH",
"659 131 OFFCURVE",
"531 183 OFFCURVE",
"441 287 CURVE SMOOTH",
"352 392 OFFCURVE",
"307 540 OFFCURVE",
"307 731 CURVE SMOOTH",
"307 917 OFFCURVE",
"353 1063 OFFCURVE",
"446 1170 CURVE SMOOTH",
"539 1277 OFFCURVE",
"666 1331 OFFCURVE",
"827 1331 CURVE SMOOTH",
"938 1331 OFFCURVE",
"1048 1305 OFFCURVE",
"1159 1253 CURVE",
"1231 1399 LINE",
"1116 1455 OFFCURVE",
"981 1483 OFFCURVE",
"829 1483 CURVE SMOOTH"
);
}
);
width = 1292;
}
);
unicode = 0043;
},
{
glyphname = Ccedilla;
lastChange = "2013-03-07 06:44:13 +0200";
layers = (
{
layerId = "98F5E167-1CFF-4278-A065-7BF212AD30BE";
name = Regular;
paths = (
{
closed = 1;
nodes = (
"685 1483 OFFCURVE",
"560 1452 OFFCURVE",
"454 1391 CURVE SMOOTH",
"241 1268 OFFCURVE",
"125 1034 OFFCURVE",
"125 733 CURVE SMOOTH",
"125 252 OFFCURVE",
"368 -20 OFFCURVE",
"799 -20 CURVE SMOOTH",
"948 -20 OFFCURVE",
"1073 -1 OFFCURVE",
"1174 37 CURVE",
"1174 186 LINE",
"1043 149 OFFCURVE",
"927 131 OFFCURVE",
"825 131 CURVE SMOOTH",
"493 131 OFFCURVE",
"307 348 OFFCURVE",
"307 731 CURVE SMOOTH",
"307 1103 OFFCURVE",
"506 1331 OFFCURVE",
"827 1331 CURVE SMOOTH",
"938 1331 OFFCURVE",
"1048 1305 OFFCURVE",
"1159 1253 CURVE",
"1231 1399 LINE",
"1116 1455 OFFCURVE",
"982 1483 OFFCURVE",
"829 1483 CURVE SMOOTH"
);
},
{
closed = 1;
nodes = (
"715 0 LINE",
"627 -178 LINE",
"700 -189 OFFCURVE",
"749 -204 OFFCURVE",
"776 -221 CURVE",
"802 -239 OFFCURVE",
"815 -262 OFFCURVE",
"815 -291 CURVE SMOOTH",
"815 -363 OFFCURVE",
"760 -385 OFFCURVE",
"655 -385 CURVE SMOOTH",
"616 -385 OFFCURVE",
"581 -382 OFFCURVE",
"551 -377 CURVE",
"551 -483 LINE",
"581 -489 OFFCURVE",
"613 -492 OFFCURVE",
"647 -492 CURVE SMOOTH",
"847 -492 OFFCURVE",
"950 -418 OFFCURVE",
"950 -289 CURVE SMOOTH",
"950 -199 OFFCURVE",
"890 -141 OFFCURVE",
"770 -115 CURVE",
"825 0 LINE"
);
}
);
width = 1292;
}
);
unicode = 00C7;
},
{
glyphname = D;
lastChange = "2013-03-07 06:44:13 +0200";
layers = (
{
anchors = (
{
name = center;
position = "{747, 731}";
},
{
name = top;
position = "{747, 1462}";
}
);
layerId = "98F5E167-1CFF-4278-A065-7BF212AD30BE";
name = Regular;
paths = (
{
closed = 1;
nodes = (
"201 1462 LINE",
"201 0 LINE",
"606 0 LINE SMOOTH",
"852 0 OFFCURVE",
"1040 64 OFFCURVE",
"1171 191 CURVE SMOOTH",
"1302 319 OFFCURVE",
"1368 504 OFFCURVE",
"1368 745 CURVE SMOOTH",
"1368 970 OFFCURVE",
"1305 1147 OFFCURVE",
"1179 1273 CURVE SMOOTH",
"1053 1399 OFFCURVE",
"876 1462 OFFCURVE",
"649 1462 CURVE SMOOTH"
);
},
{
closed = 1;
nodes = (
"994 1315 OFFCURVE",
"1188 1120 OFFCURVE",
"1188 739 CURVE SMOOTH",
"1188 348 OFFCURVE",
"982 147 OFFCURVE",
"578 147 CURVE SMOOTH",
"371 147 LINE",
"371 1315 LINE",
"618 1315 LINE SMOOTH"
);
}
);
width = 1493;
}
);
unicode = 0044;
},
{
glyphname = Eth;
lastChange = "2013-03-07 06:44:13 +0200";
layers = (
{
layerId = "98F5E167-1CFF-4278-A065-7BF212AD30BE";
name = Regular;
paths = (
{
closed = 1;
nodes = (
"201 1462 LINE",
"201 799 LINE",
"47 799 LINE",
"47 649 LINE",
"201 649 LINE",
"201 0 LINE",
"590 0 LINE SMOOTH",
"1082 0 OFFCURVE",
"1352 262 OFFCURVE",
"1352 745 CURVE SMOOTH",
"1352 1201 OFFCURVE",
"1084 1462 OFFCURVE",
"635 1462 CURVE SMOOTH"
);
},
{
closed = 1;
nodes = (
"981 1315 OFFCURVE",
"1171 1123 OFFCURVE",
"1171 739 CURVE SMOOTH",
"1171 344 OFFCURVE",
"968 147 OFFCURVE",
"561 147 CURVE SMOOTH",
"371 147 LINE",
"371 649 LINE",
"750 649 LINE",
"750 799 LINE",
"371 799 LINE",
"371 1315 LINE",
"602 1315 LINE SMOOTH"
);
}
);
width = 1479;
}
);
unicode = 00D0;
},
{
glyphname = E;
lastChange = "2013-03-07 06:44:13 +0200";
layers = (
{
anchors = (
{
name = bottom;
position = "{570, 0}";
},
{
name = ogonek;
position = "{1025, 10}";
},
{
name = top;
position = "{570, 1462}";
}
);
layerId = "98F5E167-1CFF-4278-A065-7BF212AD30BE";
name = Regular;
paths = (
{
closed = 1;
nodes = (
"201 1462 LINE",
"201 0 LINE",
"1016 0 LINE",
"1016 152 LINE",
"371 152 LINE",
"371 690 LINE",
"976 690 LINE",
"976 840 LINE",
"371 840 LINE",
"371 1311 LINE",
"1016 1311 LINE",
"1016 1462 LINE"
);
}
);
width = 1139;
}
);
unicode = 0045;
},
{
glyphname = Eacute;
lastChange = "2013-03-07 06:44:13 +0200";
layers = (
{
layerId = "98F5E167-1CFF-4278-A065-7BF212AD30BE";
name = Regular;
paths = (
{
closed = 1;
nodes = (
"201 1462 LINE",
"201 0 LINE",
"1016 0 LINE",
"1016 152 LINE",
"371 152 LINE",
"371 690 LINE",
"977 690 LINE",
"977 840 LINE",
"371 840 LINE",
"371 1311 LINE",
"1016 1311 LINE",
"1016 1462 LINE"
);
},
{
closed = 1;
nodes = (
"647 1907 LINE",
"604 1820 OFFCURVE",
"520 1687 OFFCURVE",
"456 1604 CURVE",
"456 1579 LINE",
"567 1579 LINE",
"652 1648 OFFCURVE",
"790 1799 OFFCURVE",
"849 1886 CURVE",
"849 1907 LINE"
);
}
);
width = 1139;
}
);
unicode = 00C9;
},
{
glyphname = Ecircumflex;
lastChange = "2013-03-07 06:44:13 +0200";
layers = (
{
layerId = "98F5E167-1CFF-4278-A065-7BF212AD30BE";
name = Regular;
paths = (
{
closed = 1;
nodes = (
"201 1462 LINE",
"201 0 LINE",
"1016 0 LINE",
"1016 152 LINE",
"371 152 LINE",
"371 690 LINE",
"977 690 LINE",
"977 840 LINE",
"371 840 LINE",
"371 1311 LINE",
"1016 1311 LINE",
"1016 1462 LINE"
);
},
{
closed = 1;
nodes = (
"515 1907 LINE",
"500 1880 OFFCURVE",
"475 1845 OFFCURVE",
"441 1802 CURVE SMOOTH",
"407 1759 OFFCURVE",
"348 1693 OFFCURVE",
"263 1602 CURVE",
"263 1579 LINE",
"378 1579 LINE",
"433 1614 OFFCURVE",
"506 1676 OFFCURVE",
"597 1765 CURVE",
"686 1678 OFFCURVE",
"759 1616 OFFCURVE",
"818 1579 CURVE",
"937 1579 LINE",
"937 1602 LINE",
"854 1689 OFFCURVE",
"794 1754 OFFCURVE",
"758 1799 CURVE SMOOTH",
"721 1843 OFFCURVE",
"696 1879 OFFCURVE",
"681 1907 CURVE"
);
}
);
width = 1139;
}
);
unicode = 00CA;
},
{
glyphname = Edieresis;
lastChange = "2013-03-07 06:44:13 +0200";
layers = (
{
layerId = "98F5E167-1CFF-4278-A065-7BF212AD30BE";
name = Regular;
paths = (
{
closed = 1;
nodes = (
"201 1462 LINE",
"201 0 LINE",
"1016 0 LINE",
"1016 152 LINE",
"371 152 LINE",
"371 690 LINE",
"977 690 LINE",
"977 840 LINE",
"371 840 LINE",
"371 1311 LINE",
"1016 1311 LINE",
"1016 1462 LINE"
);
},
{
closed = 1;
nodes = (
"368 1829 OFFCURVE",
"327 1800 OFFCURVE",
"327 1731 CURVE SMOOTH",
"327 1664 OFFCURVE",
"368 1632 OFFCURVE",
"417 1632 CURVE SMOOTH",
"468 1632 OFFCURVE",
"510 1664 OFFCURVE",
"510 1731 CURVE SMOOTH",
"510 1800 OFFCURVE",
"468 1829 OFFCURVE",
"417 1829 CURVE SMOOTH"
);
},
{
closed = 1;
nodes = (
"749 1829 OFFCURVE",
"708 1800 OFFCURVE",
"708 1731 CURVE SMOOTH",
"708 1664 OFFCURVE",
"749 1632 OFFCURVE",
"798 1632 CURVE SMOOTH",
"847 1632 OFFCURVE",
"890 1664 OFFCURVE",
"890 1731 CURVE SMOOTH",
"890 1800 OFFCURVE",
"847 1829 OFFCURVE",
"798 1829 CURVE SMOOTH"
);
}
);
width = 1139;
}
);
unicode = 00CB;
},
{
glyphname = Egrave;
lastChange = "2013-03-07 06:44:13 +0200";
layers = (
{
layerId = "98F5E167-1CFF-4278-A065-7BF212AD30BE";
name = Regular;
paths = (
{
closed = 1;
nodes = (
"201 1462 LINE",
"201 0 LINE",
"1016 0 LINE",
"1016 152 LINE",
"371 152 LINE",
"371 690 LINE",
"977 690 LINE",
"977 840 LINE",
"371 840 LINE",
"371 1311 LINE",
"1016 1311 LINE",
"1016 1462 LINE"
);
},
{
closed = 1;
nodes = (
"320 1907 LINE",
"320 1886 LINE",
"373 1802 OFFCURVE",
"516 1648 OFFCURVE",
"603 1579 CURVE",
"713 1579 LINE",
"713 1604 LINE",
"654 1675 OFFCURVE",
"566 1815 OFFCURVE",
"523 1907 CURVE"
);
}
);
width = 1139;
}
);
unicode = 00C8;
},
{
glyphname = F;
lastChange = "2013-03-07 06:44:13 +0200";
layers = (
{
layerId = "98F5E167-1CFF-4278-A065-7BF212AD30BE";
name = Regular;
paths = (
{
closed = 1;
nodes = (
"201 1462 LINE",
"201 0 LINE",
"371 0 LINE",
"371 625 LINE",
"976 625 LINE",
"976 776 LINE",
"371 776 LINE",
"371 1311 LINE",
"1016 1311 LINE",
"1016 1462 LINE"
);
}
);
width = 1057;
}
);
unicode = 0046;
},
{
glyphname = G;
lastChange = "2013-03-07 06:44:13 +0200";
layers = (
{
anchors = (
{
name = bottom;
position = "{746, 0}";
},
{
name = top;
position = "{746, 1462}";
}
);
layerId = "98F5E167-1CFF-4278-A065-7BF212AD30BE";
name = Regular;
paths = (
{
closed = 1;
nodes = (
"729 1483 OFFCURVE",
"595 1453 OFFCURVE",
"480 1392 CURVE SMOOTH",
"365 1332 OFFCURVE",
"277 1245 OFFCURVE",
"216 1130 CURVE SMOOTH",
"155 1016 OFFCURVE",
"125 883 OFFCURVE",
"125 731 CURVE SMOOTH",
"125 494 OFFCURVE",
"187 309 OFFCURVE",
"310 177 CURVE SMOOTH",
"433 46 OFFCURVE",
"606 -20 OFFCURVE",
"827 -20 CURVE SMOOTH",
"932 -20 OFFCURVE",
"1025 -14 OFFCURVE",
"1105 0 CURVE SMOOTH",
"1185 12 OFFCURVE",
"1264 30 OFFCURVE",
"1341 55 CURVE",
"1341 766 LINE",
"844 766 LINE",
"844 614 LINE",
"1171 614 LINE",
"1171 164 LINE",
"1074 141 OFFCURVE",
"974 129 OFFCURVE",
"874 129 CURVE SMOOTH",
"501 129 OFFCURVE",
"305 336 OFFCURVE",
"305 731 CURVE SMOOTH",
"305 919 OFFCURVE",
"355 1066 OFFCURVE",
"455 1172 CURVE SMOOTH",
"555 1278 OFFCURVE",
"694 1331 OFFCURVE",
"872 1331 CURVE SMOOTH",
"993 1331 OFFCURVE",
"1121 1303 OFFCURVE",
"1253 1247 CURVE",
"1319 1397 LINE",
"1184 1454 OFFCURVE",
"1039 1483 OFFCURVE",
"883 1483 CURVE SMOOTH"
);
}
);
width = 1491;
}
);
unicode = 0047;
},
{
glyphname = H;
lastChange = "2013-03-07 06:44:13 +0200";
layers = (
{
anchors = (
{
name = center;
position = "{756, 731}";
},
{
name = top;
position = "{756, 1462}";
}
);
layerId = "98F5E167-1CFF-4278-A065-7BF212AD30BE";
name = Regular;
paths = (
{
closed = 1;
nodes = (
"1141 1462 LINE",
"1141 840 LINE",
"371 840 LINE",
"371 1462 LINE",
"201 1462 LINE",
"201 0 LINE",
"371 0 LINE",
"371 688 LINE",
"1141 688 LINE",
"1141 0 LINE",
"1311 0 LINE",
"1311 1462 LINE"
);
}
);
width = 1511;
}
);
unicode = 0048;
},
{
glyphname = I;
lastChange = "2013-03-07 06:44:13 +0200";
layers = (
{
anchors = (
{
name = ogonek;
position = "{514, 10}";
},
{
name = top;
position = "{286, 1462}";
}
);
layerId = "98F5E167-1CFF-4278-A065-7BF212AD30BE";
name = Regular;
paths = (
{
closed = 1;
nodes = (
"201 1462 LINE",
"201 0 LINE",
"371 0 LINE",
"371 1462 LINE"
);
}
);
width = 571;
}
);
unicode = 0049;
},
{
glyphname = Iacute;
lastChange = "2013-03-07 06:44:13 +0200";
layers = (
{
layerId = "98F5E167-1CFF-4278-A065-7BF212AD30BE";
name = Regular;
paths = (
{
closed = 1;
nodes = (
"201 1462 LINE",
"201 0 LINE",
"371 0 LINE",
"371 1462 LINE"
);
},
{
closed = 1;
nodes = (
"370 1907 LINE",
"327 1820 OFFCURVE",
"243 1687 OFFCURVE",
"179 1604 CURVE",
"179 1579 LINE",
"290 1579 LINE",
"375 1648 OFFCURVE",
"513 1799 OFFCURVE",
"572 1886 CURVE",
"572 1907 LINE"
);
}
);
width = 571;
}
);
unicode = 00CD;
},
{
glyphname = Icircumflex;
lastChange = "2013-03-07 06:44:13 +0200";
layers = (
{
layerId = "98F5E167-1CFF-4278-A065-7BF212AD30BE";
name = Regular;
paths = (
{
closed = 1;
nodes = (
"201 1462 LINE",
"201 0 LINE",
"371 0 LINE",
"371 1462 LINE"
);
},
{
closed = 1;
nodes = (
"195 1907 LINE",
"180 1880 OFFCURVE",
"155 1845 OFFCURVE",
"121 1802 CURVE SMOOTH",
"87 1759 OFFCURVE",
"28 1693 OFFCURVE",
"-57 1602 CURVE",
"-57 1579 LINE",
"58 1579 LINE",
"113 1614 OFFCURVE",
"186 1676 OFFCURVE",
"277 1765 CURVE",
"366 1678 OFFCURVE",
"439 1616 OFFCURVE",
"498 1579 CURVE",
"617 1579 LINE",
"617 1602 LINE",
"534 1689 OFFCURVE",
"474 1754 OFFCURVE",
"438 1799 CURVE SMOOTH",
"401 1843 OFFCURVE",
"376 1879 OFFCURVE",
"361 1907 CURVE"
);
}
);
width = 571;
}
);
unicode = 00CE;
},
{
glyphname = Idieresis;
lastChange = "2013-03-07 06:44:13 +0200";
layers = (
{
layerId = "98F5E167-1CFF-4278-A065-7BF212AD30BE";
name = Regular;
paths = (
{
closed = 1;
nodes = (
"201 1462 LINE",
"201 0 LINE",
"371 0 LINE",
"371 1462 LINE"
);
},
{
closed = 1;
nodes = (
"46 1829 OFFCURVE",
"5 1800 OFFCURVE",
"5 1731 CURVE SMOOTH",
"5 1664 OFFCURVE",
"46 1632 OFFCURVE",
"95 1632 CURVE SMOOTH",
"146 1632 OFFCURVE",
"188 1664 OFFCURVE",
"188 1731 CURVE SMOOTH",
"188 1800 OFFCURVE",
"146 1829 OFFCURVE",
"95 1829 CURVE SMOOTH"
);
},
{
closed = 1;
nodes = (
"427 1829 OFFCURVE",
"386 1800 OFFCURVE",
"386 1731 CURVE SMOOTH",
"386 1664 OFFCURVE",
"427 1632 OFFCURVE",
"476 1632 CURVE SMOOTH",
"525 1632 OFFCURVE",
"568 1664 OFFCURVE",
"568 1731 CURVE SMOOTH",
"568 1800 OFFCURVE",
"525 1829 OFFCURVE",
"476 1829 CURVE SMOOTH"
);
}
);
width = 571;
}
);
unicode = 00CF;
},
{
glyphname = Igrave;
lastChange = "2013-03-07 06:44:13 +0200";
layers = (
{
layerId = "98F5E167-1CFF-4278-A065-7BF212AD30BE";
name = Regular;
paths = (
{
closed = 1;
nodes = (
"201 1462 LINE",
"201 0 LINE",
"371 0 LINE",
"371 1462 LINE"
);
},
{
closed = 1;
nodes = (
"5 1907 LINE",
"5 1886 LINE",
"58 1802 OFFCURVE",
"201 1648 OFFCURVE",
"288 1579 CURVE",
"398 1579 LINE",
"398 1604 LINE",
"339 1675 OFFCURVE",
"251 1815 OFFCURVE",
"208 1907 CURVE"
);
}
);
width = 571;
}
);
unicode = 00CC;
},
{
glyphname = J;
lastChange = "2013-03-07 06:44:13 +0200";
layers = (
{
anchors = (
{
name = top;
position = "{274, 1462}";
}
);
layerId = "98F5E167-1CFF-4278-A065-7BF212AD30BE";
name = Regular;
paths = (
{
closed = 1;
nodes = (
"190 1462 LINE",
"190 0 LINE SMOOTH",
"190 -151 OFFCURVE",
"120 -233 OFFCURVE",
"-12 -233 CURVE SMOOTH",
"-63 -233 OFFCURVE",
"-113 -226 OFFCURVE",
"-160 -213 CURVE",
"-160 -358 LINE",
"-124 -376 OFFCURVE",
"-75 -385 OFFCURVE",
"-12 -385 CURVE SMOOTH",
"228 -385 OFFCURVE",
"360 -239 OFFCURVE",
"360 14 CURVE SMOOTH",
"360 1462 LINE"
);
}
);
width = 547;
}
);
unicode = 004A;
},
{
glyphname = K;
lastChange = "2013-03-07 06:44:13 +0200";
layers = (
{
anchors = (
{
name = bottom;
position = "{629, 0}";
},
{
name = top;
position = "{629, 1462}";
}
);
layerId = "98F5E167-1CFF-4278-A065-7BF212AD30BE";
name = Regular;
paths = (
{
closed = 1;
nodes = (
"1034 1462 LINE",
"371 737 LINE",
"371 1462 LINE",
"201 1462 LINE",
"201 0 LINE",
"371 0 LINE",
"371 573 LINE",
"524 709 LINE",
"1057 0 LINE",
"1257 0 LINE",
"647 827 LINE",
"1235 1462 LINE"
);
}
);
width = 1257;
}
);
unicode = 004B;
},
{
glyphname = L;
lastChange = "2013-03-07 06:44:13 +0200";
layers = (
{
anchors = (
{
name = bottom;
position = "{532, 0}";
},
{
name = top;
position = "{532, 1462}";
}
);
layerId = "98F5E167-1CFF-4278-A065-7BF212AD30BE";
name = Regular;
paths = (
{
closed = 1;
nodes = (
"201 1462 LINE",
"201 0 LINE",
"1016 0 LINE",
"1016 154 LINE",
"371 154 LINE",
"371 1462 LINE"
);
}
);
width = 1063;
}
);
unicode = 004C;
},
{
glyphname = M;
lastChange = "2013-03-07 06:44:13 +0200";
layers = (
{
layerId = "98F5E167-1CFF-4278-A065-7BF212AD30BE";
name = Regular;
paths = (
{
closed = 1;
nodes = (
"1395 1462 LINE",
"928 256 LINE",
"920 256 LINE",
"457 1462 LINE",
"201 1462 LINE",
"201 0 LINE",
"358 0 LINE",
"358 930 LINE SMOOTH",
"358 1071 OFFCURVE",
"353 1193 OFFCURVE",
"344 1296 CURVE",
"352 1296 LINE",
"848 0 LINE",
"984 0 LINE",
"1485 1294 LINE",
"1493 1294 LINE",
"1484 1167 OFFCURVE",
"1479 1050 OFFCURVE",
"1479 942 CURVE SMOOTH",
"1479 0 LINE",
"1649 0 LINE",
"1649 1462 LINE"
);
}
);
width = 1849;
}
);
unicode = 004D;
},
{
glyphname = N;
lastChange = "2013-03-07 06:44:13 +0200";
layers = (
{
anchors = (
{
name = bottom;
position = "{772, 0}";
},
{
name = top;
position = "{772, 1462}";
}
);
layerId = "98F5E167-1CFF-4278-A065-7BF212AD30BE";
name = Regular;
paths = (
{
closed = 1;
nodes = (
"1184 1462 LINE",
"1184 623 LINE SMOOTH",
"1183 581 OFFCURVE",
"1184 511 OFFCURVE",
"1189 413 CURVE SMOOTH",
"1198 240 LINE",
"1190 240 LINE",
"393 1462 LINE",
"201 1462 LINE",
"201 0 LINE",
"358 0 LINE",
"358 831 LINE SMOOTH",
"358 951 OFFCURVE",
"353 1083 OFFCURVE",
"342 1227 CURVE",
"350 1227 LINE",
"1149 0 LINE",
"1343 0 LINE",
"1343 1462 LINE"
);
}
);
width = 1544;
}
);
unicode = 004E;
},
{
glyphname = Ntilde;
lastChange = "2013-03-07 06:44:13 +0200";
layers = (
{
layerId = "98F5E167-1CFF-4278-A065-7BF212AD30BE";
name = Regular;
paths = (
{
closed = 1;
nodes = (
"1184 1462 LINE",
"1184 623 LINE",
"1181 539 OFFCURVE",
"1195 276 OFFCURVE",
"1198 240 CURVE",
"1190 240 LINE",
"393 1462 LINE",
"201 1462 LINE",
"201 0 LINE",
"358 0 LINE",
"358 831 LINE SMOOTH",
"358 951 OFFCURVE",
"353 1083 OFFCURVE",
"342 1227 CURVE",
"350 1227 LINE",
"1149 0 LINE",
"1343 0 LINE",
"1343 1462 LINE"
);
},
{
closed = 1;
nodes = (
"1056 1839 LINE",
"1036 1756 OFFCURVE",
"1009 1718 OFFCURVE",
"944 1718 CURVE SMOOTH",
"901 1718 OFFCURVE",
"853 1748 OFFCURVE",
"801 1778 CURVE SMOOTH",
"749 1808 OFFCURVE",
"691 1837 OFFCURVE",
"630 1837 CURVE SMOOTH",
"509 1837 OFFCURVE",
"428 1740 OFFCURVE",
"411 1579 CURVE",
"509 1579 LINE",
"528 1660 OFFCURVE",
"557 1700 OFFCURVE",
"624 1700 CURVE SMOOTH",
"669 1700 OFFCURVE",
"718 1671 OFFCURVE",
"771 1641 CURVE SMOOTH",
"823 1611 OFFCURVE",
"878 1581 OFFCURVE",
"935 1581 CURVE SMOOTH",
"1060 1581 OFFCURVE",
"1138 1678 OFFCURVE",
"1155 1839 CURVE"
);
}
);
width = 1544;
}
);
unicode = 00D1;
},
{
glyphname = O;
lastChange = "2013-03-07 06:44:13 +0200";
layers = (
{
anchors = (
{
name = top;
position = "{798, 1462}";
}
);
layerId = "98F5E167-1CFF-4278-A065-7BF212AD30BE";
name = Regular;
paths = (
{
closed = 1;
nodes = (
"585 1485 OFFCURVE",
"418 1419 OFFCURVE",
"301 1288 CURVE SMOOTH",
"184 1157 OFFCURVE",
"125 972 OFFCURVE",
"125 735 CURVE SMOOTH",
"125 495 OFFCURVE",
"183 309 OFFCURVE",
"300 177 CURVE SMOOTH",
"417 46 OFFCURVE",
"584 -20 OFFCURVE",
"799 -20 CURVE SMOOTH",
"1010 -20 OFFCURVE",
"1174 47 OFFCURVE",
"1292 181 CURVE SMOOTH",
"1411 315 OFFCURVE",
"1470 499 OFFCURVE",
"1470 733 CURVE SMOOTH",
"1470 967 OFFCURVE",
"1411 1152 OFFCURVE",
"1293 1285 CURVE SMOOTH",
"1175 1418 OFFCURVE",
"1011 1485 OFFCURVE",
"801 1485 CURVE SMOOTH"
);
},
{
closed = 1;
nodes = (
"1124 1333 OFFCURVE",
"1290 1126 OFFCURVE",
"1290 733 CURVE SMOOTH",
"1290 336 OFFCURVE",
"1123 129 OFFCURVE",
"799 129 CURVE SMOOTH",
"478 129 OFFCURVE",
"305 337 OFFCURVE",
"305 733 CURVE SMOOTH",
"305 1124 OFFCURVE",
"477 1333 OFFCURVE",
"801 1333 CURVE SMOOTH"
);
}
);
width = 1595;
}
);
unicode = 004F;
},
{
glyphname = Oacute;
lastChange = "2013-03-07 06:44:13 +0200";
layers = (
{
layerId = "98F5E167-1CFF-4278-A065-7BF212AD30BE";
name = Regular;
paths = (
{
closed = 1;
nodes = (
"369 1485 OFFCURVE",
"125 1211 OFFCURVE",
"125 735 CURVE SMOOTH",
"125 255 OFFCURVE",
"368 -20 OFFCURVE",
"799 -20 CURVE SMOOTH",
"1220 -20 OFFCURVE",
"1470 265 OFFCURVE",
"1470 733 CURVE SMOOTH",
"1470 1202 OFFCURVE",
"1221 1485 OFFCURVE",
"801 1485 CURVE SMOOTH"
);
},
{
closed = 1;
nodes = (
"1124 1333 OFFCURVE",
"1290 1126 OFFCURVE",
"1290 733 CURVE SMOOTH",
"1290 336 OFFCURVE",
"1123 129 OFFCURVE",
"799 129 CURVE SMOOTH",
"478 129 OFFCURVE",
"305 337 OFFCURVE",
"305 733 CURVE SMOOTH",
"305 1124 OFFCURVE",
"477 1333 OFFCURVE",
"801 1333 CURVE SMOOTH"
);
},
{
closed = 1;
nodes = (
"850 1907 LINE",
"807 1820 OFFCURVE",
"723 1687 OFFCURVE",
"659 1604 CURVE",
"659 1579 LINE",
"770 1579 LINE",
"855 1648 OFFCURVE",
"993 1799 OFFCURVE",
"1052 1886 CURVE",
"1052 1907 LINE"
);
}
);
width = 1595;
}
);
unicode = 00D3;
},
{
glyphname = Ocircumflex;
lastChange = "2013-03-07 06:44:13 +0200";
layers = (
{
layerId = "98F5E167-1CFF-4278-A065-7BF212AD30BE";
name = Regular;
paths = (
{
closed = 1;
nodes = (
"369 1485 OFFCURVE",
"125 1211 OFFCURVE",
"125 735 CURVE SMOOTH",
"125 255 OFFCURVE",
"368 -20 OFFCURVE",
"799 -20 CURVE SMOOTH",
"1220 -20 OFFCURVE",
"1470 265 OFFCURVE",
"1470 733 CURVE SMOOTH",
"1470 1202 OFFCURVE",
"1221 1485 OFFCURVE",
"801 1485 CURVE SMOOTH"
);
},
{
closed = 1;
nodes = (
"1124 1333 OFFCURVE",
"1290 1126 OFFCURVE",
"1290 733 CURVE SMOOTH",
"1290 336 OFFCURVE",
"1123 129 OFFCURVE",
"799 129 CURVE SMOOTH",
"478 129 OFFCURVE",
"305 337 OFFCURVE",
"305 733 CURVE SMOOTH",
"305 1124 OFFCURVE",
"477 1333 OFFCURVE",
"801 1333 CURVE SMOOTH"
);
},
{
closed = 1;
nodes = (
"700 1907 LINE",
"685 1880 OFFCURVE",
"660 1845 OFFCURVE",
"626 1802 CURVE SMOOTH",
"592 1759 OFFCURVE",
"533 1693 OFFCURVE",
"448 1602 CURVE",
"448 1579 LINE",
"563 1579 LINE",
"618 1614 OFFCURVE",
"691 1676 OFFCURVE",
"782 1765 CURVE",
"871 1678 OFFCURVE",
"944 1616 OFFCURVE",
"1003 1579 CURVE",
"1122 1579 LINE",
"1122 1602 LINE",
"1039 1689 OFFCURVE",
"979 1754 OFFCURVE",
"943 1799 CURVE SMOOTH",
"906 1843 OFFCURVE",
"881 1879 OFFCURVE",
"866 1907 CURVE"
);
}
);
width = 1595;
}
);
unicode = 00D4;
},
{
glyphname = Odieresis;
lastChange = "2013-03-07 06:44:13 +0200";
layers = (
{
layerId = "98F5E167-1CFF-4278-A065-7BF212AD30BE";
name = Regular;
paths = (
{
closed = 1;
nodes = (
"369 1485 OFFCURVE",
"125 1211 OFFCURVE",
"125 735 CURVE SMOOTH",
"125 255 OFFCURVE",
"368 -20 OFFCURVE",
"799 -20 CURVE SMOOTH",
"1220 -20 OFFCURVE",
"1470 265 OFFCURVE",
"1470 733 CURVE SMOOTH",
"1470 1202 OFFCURVE",
"1221 1485 OFFCURVE",
"801 1485 CURVE SMOOTH"
);
},
{
closed = 1;
nodes = (
"1124 1333 OFFCURVE",
"1290 1126 OFFCURVE",
"1290 733 CURVE SMOOTH",
"1290 336 OFFCURVE",
"1123 129 OFFCURVE",
"799 129 CURVE SMOOTH",
"478 129 OFFCURVE",
"305 337 OFFCURVE",
"305 733 CURVE SMOOTH",
"305 1124 OFFCURVE",
"477 1333 OFFCURVE",
"801 1333 CURVE SMOOTH"
);
},
{
closed = 1;
nodes = (
"563 1829 OFFCURVE",
"522 1800 OFFCURVE",
"522 1731 CURVE SMOOTH",
"522 1664 OFFCURVE",
"563 1632 OFFCURVE",
"612 1632 CURVE SMOOTH",
"663 1632 OFFCURVE",
"705 1664 OFFCURVE",
"705 1731 CURVE SMOOTH",
"705 1800 OFFCURVE",
"663 1829 OFFCURVE",
"612 1829 CURVE SMOOTH"
);
},
{
closed = 1;
nodes = (
"944 1829 OFFCURVE",
"903 1800 OFFCURVE",
"903 1731 CURVE SMOOTH",
"903 1664 OFFCURVE",
"944 1632 OFFCURVE",
"993 1632 CURVE SMOOTH",
"1042 1632 OFFCURVE",
"1085 1664 OFFCURVE",
"1085 1731 CURVE SMOOTH",
"1085 1800 OFFCURVE",
"1042 1829 OFFCURVE",
"993 1829 CURVE SMOOTH"
);
}
);
width = 1595;
}
);
unicode = 00D6;
},
{
glyphname = Ograve;
lastChange = "2013-03-07 06:44:13 +0200";
layers = (
{
layerId = "98F5E167-1CFF-4278-A065-7BF212AD30BE";
name = Regular;
paths = (
{
closed = 1;
nodes = (
"369 1485 OFFCURVE",
"125 1211 OFFCURVE",
"125 735 CURVE SMOOTH",
"125 255 OFFCURVE",
"368 -20 OFFCURVE",
"799 -20 CURVE SMOOTH",
"1220 -20 OFFCURVE",
"1470 265 OFFCURVE",
"1470 733 CURVE SMOOTH",
"1470 1202 OFFCURVE",
"1221 1485 OFFCURVE",
"801 1485 CURVE SMOOTH"
);
},
{
closed = 1;
nodes = (
"1124 1333 OFFCURVE",
"1290 1126 OFFCURVE",
"1290 733 CURVE SMOOTH",
"1290 336 OFFCURVE",
"1123 129 OFFCURVE",
"799 129 CURVE SMOOTH",
"478 129 OFFCURVE",
"305 337 OFFCURVE",
"305 733 CURVE SMOOTH",
"305 1124 OFFCURVE",
"477 1333 OFFCURVE",
"801 1333 CURVE SMOOTH"
);
},
{
closed = 1;
nodes = (
"514 1907 LINE",
"514 1886 LINE",
"567 1802 OFFCURVE",
"710 1648 OFFCURVE",
"797 1579 CURVE",
"907 1579 LINE",
"907 1604 LINE",
"848 1675 OFFCURVE",
"760 1815 OFFCURVE",
"717 1907 CURVE"
);
}
);
width = 1595;
}
);
unicode = 00D2;
},
{
glyphname = Oslash;
lastChange = "2013-03-07 06:44:13 +0200";
layers = (
{
layerId = "98F5E167-1CFF-4278-A065-7BF212AD30BE";
name = Regular;
paths = (
{
closed = 1;
nodes = (
"1167 1391 LINE",
"1062 1454 OFFCURVE",
"940 1485 OFFCURVE",
"801 1485 CURVE SMOOTH",
"369 1485 OFFCURVE",
"125 1211 OFFCURVE",
"125 735 CURVE SMOOTH",
"125 492 OFFCURVE",
"184 304 OFFCURVE",
"303 172 CURVE",
"195 18 LINE",
"315 -61 LINE",
"416 80 LINE",
"515 13 OFFCURVE",
"642 -20 OFFCURVE",
"799 -20 CURVE SMOOTH",
"1220 -20 OFFCURVE",
"1470 265 OFFCURVE",
"1470 733 CURVE SMOOTH",
"1470 975 OFFCURVE",
"1406 1163 OFFCURVE",
"1278 1298 CURVE",
"1384 1446 LINE",
"1264 1526 LINE"
);
},
{
closed = 1;
nodes = (
"913 1333 OFFCURVE",
"1004 1309 OFFCURVE",
"1075 1260 CURVE",
"406 317 LINE",
"339 420 OFFCURVE",
"305 558 OFFCURVE",
"305 733 CURVE SMOOTH",
"305 1124 OFFCURVE",
"477 1333 OFFCURVE",
"801 1333 CURVE SMOOTH"
);
},
{
closed = 1;
nodes = (
"1253 1056 OFFCURVE",
"1290 914 OFFCURVE",
"1290 733 CURVE SMOOTH",
"1290 336 OFFCURVE",
"1123 129 OFFCURVE",
"799 129 CURVE SMOOTH",
"682 129 OFFCURVE",
"585 156 OFFCURVE",
"508 211 CURVE",
"1180 1159 LINE"
);
}
);
width = 1595;
}
);
unicode = 00D8;
},
{
glyphname = Otilde;
lastChange = "2013-03-07 06:44:13 +0200";
layers = (
{
layerId = "98F5E167-1CFF-4278-A065-7BF212AD30BE";
name = Regular;
paths = (
{
closed = 1;
nodes = (
"369 1485 OFFCURVE",
"125 1211 OFFCURVE",
"125 735 CURVE SMOOTH",
"125 255 OFFCURVE",
"368 -20 OFFCURVE",
"799 -20 CURVE SMOOTH",
"1220 -20 OFFCURVE",
"1470 265 OFFCURVE",
"1470 733 CURVE SMOOTH",
"1470 1202 OFFCURVE",
"1221 1485 OFFCURVE",
"801 1485 CURVE SMOOTH"
);
},
{
closed = 1;
nodes = (
"1124 1333 OFFCURVE",
"1290 1126 OFFCURVE",
"1290 733 CURVE SMOOTH",
"1290 336 OFFCURVE",
"1123 129 OFFCURVE",
"799 129 CURVE SMOOTH",
"478 129 OFFCURVE",
"305 337 OFFCURVE",
"305 733 CURVE SMOOTH",
"305 1124 OFFCURVE",
"477 1333 OFFCURVE",
"801 1333 CURVE SMOOTH"
);
},
{
closed = 1;
nodes = (
"1063 1839 LINE",
"1043 1756 OFFCURVE",
"1016 1718 OFFCURVE",
"951 1718 CURVE SMOOTH",
"908 1718 OFFCURVE",
"860 1748 OFFCURVE",
"808 1778 CURVE SMOOTH",
"756 1808 OFFCURVE",
"698 1837 OFFCURVE",
"637 1837 CURVE SMOOTH",
"516 1837 OFFCURVE",
"435 1740 OFFCURVE",
"418 1579 CURVE",
"516 1579 LINE",
"535 1660 OFFCURVE",
"564 1700 OFFCURVE",
"631 1700 CURVE SMOOTH",
"676 1700 OFFCURVE",
"725 1671 OFFCURVE",
"778 1641 CURVE SMOOTH",
"830 1611 OFFCURVE",
"885 1581 OFFCURVE",
"942 1581 CURVE SMOOTH",
"1067 1581 OFFCURVE",
"1145 1678 OFFCURVE",
"1162 1839 CURVE"
);
}
);
width = 1595;
}
);
unicode = 00D5;
},
{
glyphname = OE;
lastChange = "2013-03-07 06:44:13 +0200";
layers = (
{
layerId = "98F5E167-1CFF-4278-A065-7BF212AD30BE";
name = Regular;
paths = (
{
closed = 1;
nodes = (
"366 1485 OFFCURVE",
"125 1215 OFFCURVE",
"125 735 CURVE SMOOTH",
"125 252 OFFCURVE",
"369 -20 OFFCURVE",
"805 -20 CURVE SMOOTH",
"866 -20 OFFCURVE",
"931 -13 OFFCURVE",
"999 0 CURVE",
"1767 0 LINE",
"1767 152 LINE",
"1178 152 LINE",
"1178 690 LINE",
"1729 690 LINE",
"1729 840 LINE",
"1178 840 LINE",
"1178 1311 LINE",
"1767 1311 LINE",
"1767 1462 LINE",
"985 1462 LINE",
"925 1477 OFFCURVE",
"861 1485 OFFCURVE",
"793 1485 CURVE SMOOTH"
);
},
{
closed = 1;
nodes = (
"884 1333 OFFCURVE",
"950 1323 OFFCURVE",
"1008 1303 CURVE",
"1008 162 LINE",
"950 140 OFFCURVE",
"884 129 OFFCURVE",
"809 129 CURVE SMOOTH",
"480 129 OFFCURVE",
"305 337 OFFCURVE",
"305 733 CURVE SMOOTH",
"305 1126 OFFCURVE",
"479 1333 OFFCURVE",
"811 1333 CURVE SMOOTH"
);
}
);
width = 1890;
}
);
unicode = 0152;
},
{
glyphname = P;
lastChange = "2013-03-07 06:44:13 +0200";
layers = (
{
layerId = "98F5E167-1CFF-4278-A065-7BF212AD30BE";
name = Regular;
paths = (
{
closed = 1;
nodes = (
"201 1462 LINE",
"201 0 LINE",
"371 0 LINE",
"371 575 LINE",
"543 575 LINE SMOOTH",
"919 575 OFFCURVE",
"1128 740 OFFCURVE",
"1128 1036 CURVE SMOOTH",
"1128 1320 OFFCURVE",
"945 1462 OFFCURVE",
"580 1462 CURVE SMOOTH"
);
},
{
closed = 1;
nodes = (
"829 1315 OFFCURVE",
"952 1221 OFFCURVE",
"952 1028 CURVE SMOOTH",
"952 921 OFFCURVE",
"918 843 OFFCURVE",
"851 794 CURVE SMOOTH",
"784 745 OFFCURVE",
"675 721 OFFCURVE",
"524 721 CURVE SMOOTH",
"371 721 LINE",
"371 1315 LINE",
"561 1315 LINE SMOOTH"
);
}
);
width = 1233;
}
);
unicode = 0050;
},
{
glyphname = Thorn;
lastChange = "2013-03-07 06:44:13 +0200";
layers = (
{
layerId = "98F5E167-1CFF-4278-A065-7BF212AD30BE";
name = Regular;
paths = (
{
closed = 1;
nodes = (
"201 1462 LINE",
"201 0 LINE",
"371 0 LINE",
"371 319 LINE",
"555 319 LINE SMOOTH",
"938 319 OFFCURVE",
"1145 481 OFFCURVE",
"1145 784 CURVE SMOOTH",
"1145 1071 OFFCURVE",
"961 1206 OFFCURVE",
"586 1206 CURVE SMOOTH",
"371 1206 LINE",
"371 1462 LINE"
);
},
{
closed = 1;
nodes = (
"844 1059 OFFCURVE",
"967 971 OFFCURVE",
"967 772 CURVE SMOOTH",
"967 553 OFFCURVE",
"840 465 OFFCURVE",
"539 465 CURVE SMOOTH",
"371 465 LINE",
"371 1059 LINE",
"575 1059 LINE SMOOTH"
);
}
);
width = 1251;
}
);
unicode = 00DE;
},
{
glyphname = Q;
lastChange = "2013-03-07 06:44:13 +0200";
layers = (
{
layerId = "98F5E167-1CFF-4278-A065-7BF212AD30BE";
name = Regular;
paths = (
{
closed = 1;
nodes = (
"585 1485 OFFCURVE",
"418 1419 OFFCURVE",
"301 1288 CURVE SMOOTH",
"184 1157 OFFCURVE",
"125 972 OFFCURVE",
"125 735 CURVE SMOOTH",
"125 495 OFFCURVE",
"183 309 OFFCURVE",
"300 177 CURVE SMOOTH",
"417 46 OFFCURVE",
"584 -20 OFFCURVE",
"799 -20 CURVE",
"854 -18 LINE",
"1139 -348 LINE",
"1386 -348 LINE",
"1038 14 LINE",
"1175 58 OFFCURVE",
"1282 142 OFFCURVE",
"1357 266 CURVE SMOOTH",
"1432 390 OFFCURVE",
"1470 546 OFFCURVE",
"1470 733 CURVE SMOOTH",
"1470 967 OFFCURVE",
"1411 1152 OFFCURVE",
"1293 1285 CURVE SMOOTH",
"1175 1418 OFFCURVE",
"1011 1485 OFFCURVE",
"801 1485 CURVE SMOOTH"
);
},
{
closed = 1;
nodes = (
"1124 1333 OFFCURVE",
"1290 1126 OFFCURVE",
"1290 733 CURVE SMOOTH",
"1290 336 OFFCURVE",
"1123 129 OFFCURVE",
"799 129 CURVE SMOOTH",
"478 129 OFFCURVE",
"305 337 OFFCURVE",
"305 733 CURVE SMOOTH",
"305 1124 OFFCURVE",
"477 1333 OFFCURVE",
"801 1333 CURVE SMOOTH"
);
}
);
width = 1595;
}
);
unicode = 0051;
},
{
glyphname = R;
lastChange = "2013-03-07 06:44:13 +0200";
layers = (
{
anchors = (
{
name = bottom;
position = "{633, 0}";
},
{
name = top;
position = "{633, 1462}";
}
);
layerId = "98F5E167-1CFF-4278-A065-7BF212AD30BE";
name = Regular;
paths = (
{
closed = 1;
nodes = (
"201 1462 LINE",
"201 0 LINE",
"371 0 LINE",
"371 608 LINE",
"676 608 LINE",
"1030 0 LINE",
"1231 0 LINE",
"834 657 LINE",
"1030 725 OFFCURVE",
"1128 856 OFFCURVE",
"1128 1049 CURVE SMOOTH",
"1128 1325 OFFCURVE",
"961 1462 OFFCURVE",
"602 1462 CURVE SMOOTH"
);
},
{
closed = 1;
nodes = (
"844 1313 OFFCURVE",
"952 1233 OFFCURVE",
"952 1040 CURVE SMOOTH",
"952 849 OFFCURVE",
"844 754 OFFCURVE",
"604 754 CURVE SMOOTH",
"371 754 LINE",
"371 1313 LINE",
"592 1313 LINE SMOOTH"
);
}
);
width = 1266;
}
);
unicode = 0052;
},
{
glyphname = S;
lastChange = "2013-03-07 06:44:13 +0200";
layers = (
{
anchors = (
{
name = bottom;
position = "{562, 0}";
},
{
name = top;
position = "{562, 1462}";
}
);
layerId = "98F5E167-1CFF-4278-A065-7BF212AD30BE";
name = Regular;
paths = (
{
closed = 1;
nodes = (
"449 1483 OFFCURVE",
"337 1450 OFFCURVE",
"252 1383 CURVE SMOOTH",
"167 1316 OFFCURVE",
"125 1227 OFFCURVE",
"125 1114 CURVE SMOOTH",
"125 1007 OFFCURVE",
"154 920 OFFCURVE",
"212 853 CURVE SMOOTH",
"271 786 OFFCURVE",
"368 729 OFFCURVE",
"504 680 CURVE SMOOTH",
"601 645 OFFCURVE",
"674 614 OFFCURVE",
"721 587 CURVE SMOOTH",
"817 532 OFFCURVE",
"854 474 OFFCURVE",
"854 373 CURVE SMOOTH",
"854 220 OFFCURVE",
"739 129 OFFCURVE",
"512 129 CURVE SMOOTH",
"373 129 OFFCURVE",
"226 160 OFFCURVE",
"106 211 CURVE",
"106 47 LINE",
"199 2 OFFCURVE",
"333 -20 OFFCURVE",
"506 -20 CURVE SMOOTH",
"666 -20 OFFCURVE",
"793 16 OFFCURVE",
"886 88 CURVE SMOOTH",
"978 160 OFFCURVE",
"1026 260 OFFCURVE",
"1026 389 CURVE SMOOTH",
"1026 489 OFFCURVE",
"996 570 OFFCURVE",
"939 633 CURVE SMOOTH",
"882 696 OFFCURVE",
"776 754 OFFCURVE",
"623 809 CURVE SMOOTH",
"532 842 OFFCURVE",
"464 871 OFFCURVE",
"419 898 CURVE SMOOTH",
"331 953 OFFCURVE",
"297 1011 OFFCURVE",
"297 1112 CURVE SMOOTH",
"297 1249 OFFCURVE",
"404 1331 OFFCURVE",
"584 1331 CURVE SMOOTH",
"698 1331 OFFCURVE",
"815 1306 OFFCURVE",
"936 1255 CURVE",
"988 1403 LINE",
"867 1456 OFFCURVE",
"733 1483 OFFCURVE",
"588 1483 CURVE SMOOTH"
);
}
);
width = 1124;
}
);
unicode = 0053;
},
{
glyphname = Scaron;
lastChange = "2013-03-07 06:44:13 +0200";
layers = (
{
layerId = "98F5E167-1CFF-4278-A065-7BF212AD30BE";
name = Regular;
paths = (
{
closed = 1;
nodes = (
"309 1483 OFFCURVE",
"125 1339 OFFCURVE",
"125 1114 CURVE SMOOTH",
"125 899 OFFCURVE",
"232 777 OFFCURVE",
"504 680 CURVE SMOOTH",
"601 645 OFFCURVE",
"674 614 OFFCURVE",
"722 587 CURVE SMOOTH",
"817 532 OFFCURVE",
"854 474 OFFCURVE",
"854 373 CURVE SMOOTH",
"854 220 OFFCURVE",
"739 129 OFFCURVE",
"512 129 CURVE SMOOTH",
"373 129 OFFCURVE",
"226 160 OFFCURVE",
"106 211 CURVE",
"106 47 LINE",
"199 2 OFFCURVE",
"333 -20 OFFCURVE",
"506 -20 CURVE SMOOTH",
"826 -20 OFFCURVE",
"1026 132 OFFCURVE",
"1026 389 CURVE SMOOTH",
"1026 589 OFFCURVE",
"930 700 OFFCURVE",
"623 809 CURVE SMOOTH",
"532 842 OFFCURVE",
"464 872 OFFCURVE",
"420 899 CURVE SMOOTH",
"331 953 OFFCURVE",
"297 1011 OFFCURVE",
"297 1112 CURVE SMOOTH",
"297 1249 OFFCURVE",
"404 1331 OFFCURVE",
"584 1331 CURVE SMOOTH",
"698 1331 OFFCURVE",
"815 1306 OFFCURVE",
"936 1255 CURVE",
"989 1403 LINE",
"867 1456 OFFCURVE",
"733 1483 OFFCURVE",
"588 1483 CURVE SMOOTH"
);
},
{
closed = 1;
nodes = (
"795 1907 LINE",
"734 1868 OFFCURVE",
"661 1805 OFFCURVE",
"574 1718 CURVE",
"504 1795 OFFCURVE",
"431 1858 OFFCURVE",
"355 1907 CURVE",
"240 1907 LINE",
"240 1882 LINE",
"325 1791 OFFCURVE",
"384 1725 OFFCURVE",
"418 1683 CURVE SMOOTH",
"452 1641 OFFCURVE",
"477 1606 OFFCURVE",
"492 1579 CURVE",
"658 1579 LINE",
"689 1637 OFFCURVE",
"752 1715 OFFCURVE",
"848 1814 CURVE SMOOTH",
"914 1882 LINE",
"914 1907 LINE"
);
}
);
width = 1124;
}
);
unicode = 0160;
},
{
glyphname = T;
lastChange = "2013-03-07 06:44:13 +0200";
layers = (
{
anchors = (
{
name = bottom;
position = "{567, 0}";
},
{
name = center;
position = "{567, 731}";
},
{
name = top;
position = "{567, 1462}";
}
);
layerId = "98F5E167-1CFF-4278-A065-7BF212AD30BE";
name = Regular;
paths = (
{
closed = 1;
nodes = (
"18 1462 LINE",
"18 1311 LINE",
"481 1311 LINE",
"481 0 LINE",
"651 0 LINE",
"651 1311 LINE",
"1114 1311 LINE",
"1114 1462 LINE"
);
}
);
width = 1133;
}
);
unicode = 0054;
},
{
glyphname = U;
lastChange = "2013-03-07 06:44:13 +0200";
layers = (
{
anchors = (
{
name = ogonek;
position = "{1342, 10}";
},
{
name = top;
position = "{746, 1462}";
}
);
layerId = "98F5E167-1CFF-4278-A065-7BF212AD30BE";
name = Regular;
paths = (
{
closed = 1;
nodes = (
"1135 1462 LINE",
"1135 510 LINE SMOOTH",
"1135 265 OFFCURVE",
"996 129 OFFCURVE",
"750 129 CURVE SMOOTH",
"491 129 OFFCURVE",
"356 264 OFFCURVE",
"356 508 CURVE SMOOTH",
"356 1462 LINE",
"186 1462 LINE",
"186 520 LINE SMOOTH",
"186 352 OFFCURVE",
"234 220 OFFCURVE",
"330 124 CURVE SMOOTH",
"427 28 OFFCURVE",
"563 -20 OFFCURVE",
"739 -20 CURVE SMOOTH",
"915 -20 OFFCURVE",
"1053 28 OFFCURVE",
"1154 123 CURVE SMOOTH",
"1255 218 OFFCURVE",
"1305 349 OFFCURVE",
"1305 516 CURVE SMOOTH",
"1305 1462 LINE"
);
}
);
width = 1491;
}
);
unicode = 0055;
},
{
glyphname = Uacute;
lastChange = "2013-03-07 06:44:13 +0200";
layers = (
{
layerId = "98F5E167-1CFF-4278-A065-7BF212AD30BE";
name = Regular;
paths = (
{
closed = 1;
nodes = (
"1135 1462 LINE",
"1135 510 LINE SMOOTH",
"1135 265 OFFCURVE",
"997 129 OFFCURVE",
"750 129 CURVE SMOOTH",
"491 129 OFFCURVE",
"356 264 OFFCURVE",
"356 508 CURVE SMOOTH",
"356 1462 LINE",
"186 1462 LINE",
"186 520 LINE SMOOTH",
"186 184 OFFCURVE",
"387 -20 OFFCURVE",
"739 -20 CURVE SMOOTH",
"1091 -20 OFFCURVE",
"1305 183 OFFCURVE",
"1305 516 CURVE SMOOTH",
"1305 1462 LINE"
);
},
{
closed = 1;
nodes = (
"791 1907 LINE",
"748 1820 OFFCURVE",
"664 1687 OFFCURVE",
"600 1604 CURVE",
"600 1579 LINE",
"711 1579 LINE",
"796 1648 OFFCURVE",
"934 1799 OFFCURVE",
"993 1886 CURVE",
"993 1907 LINE"
);
}
);
width = 1491;
}
);
unicode = 00DA;
},
{
glyphname = Ucircumflex;
lastChange = "2013-03-07 06:44:13 +0200";
layers = (
{
layerId = "98F5E167-1CFF-4278-A065-7BF212AD30BE";
name = Regular;
paths = (
{
closed = 1;
nodes = (
"1135 1462 LINE",
"1135 510 LINE SMOOTH",
"1135 265 OFFCURVE",
"997 129 OFFCURVE",
"750 129 CURVE SMOOTH",
"491 129 OFFCURVE",
"356 264 OFFCURVE",
"356 508 CURVE SMOOTH",
"356 1462 LINE",
"186 1462 LINE",
"186 520 LINE SMOOTH",
"186 184 OFFCURVE",
"387 -20 OFFCURVE",
"739 -20 CURVE SMOOTH",
"1091 -20 OFFCURVE",
"1305 183 OFFCURVE",
"1305 516 CURVE SMOOTH",
"1305 1462 LINE"
);
},
{
closed = 1;
nodes = (
"645 1907 LINE",
"630 1880 OFFCURVE",
"605 1845 OFFCURVE",
"571 1802 CURVE SMOOTH",
"537 1759 OFFCURVE",
"478 1693 OFFCURVE",
"393 1602 CURVE",
"393 1579 LINE",
"508 1579 LINE",
"563 1614 OFFCURVE",
"636 1676 OFFCURVE",
"727 1765 CURVE",
"816 1678 OFFCURVE",
"889 1616 OFFCURVE",
"948 1579 CURVE",
"1067 1579 LINE",
"1067 1602 LINE",
"984 1689 OFFCURVE",
"924 1754 OFFCURVE",
"888 1799 CURVE SMOOTH",
"851 1843 OFFCURVE",
"826 1879 OFFCURVE",
"811 1907 CURVE"
);
}
);
width = 1491;
}
);
unicode = 00DB;
},
{
glyphname = Udieresis;
lastChange = "2013-03-07 06:44:13 +0200";
layers = (
{
layerId = "98F5E167-1CFF-4278-A065-7BF212AD30BE";
name = Regular;
paths = (
{
closed = 1;
nodes = (
"1135 1462 LINE",
"1135 510 LINE SMOOTH",
"1135 265 OFFCURVE",
"997 129 OFFCURVE",
"750 129 CURVE SMOOTH",
"491 129 OFFCURVE",
"356 264 OFFCURVE",
"356 508 CURVE SMOOTH",
"356 1462 LINE",
"186 1462 LINE",
"186 520 LINE SMOOTH",
"186 184 OFFCURVE",
"387 -20 OFFCURVE",
"739 -20 CURVE SMOOTH",
"1091 -20 OFFCURVE",
"1305 183 OFFCURVE",
"1305 516 CURVE SMOOTH",
"1305 1462 LINE"
);
},
{
closed = 1;
nodes = (
"502 1829 OFFCURVE",
"461 1800 OFFCURVE",
"461 1731 CURVE SMOOTH",
"461 1664 OFFCURVE",
"502 1632 OFFCURVE",
"551 1632 CURVE SMOOTH",
"602 1632 OFFCURVE",
"644 1664 OFFCURVE",
"644 1731 CURVE SMOOTH",
"644 1800 OFFCURVE",
"602 1829 OFFCURVE",
"551 1829 CURVE SMOOTH"
);
},
{
closed = 1;
nodes = (
"883 1829 OFFCURVE",
"842 1800 OFFCURVE",
"842 1731 CURVE SMOOTH",
"842 1664 OFFCURVE",
"883 1632 OFFCURVE",
"932 1632 CURVE SMOOTH",
"981 1632 OFFCURVE",
"1024 1664 OFFCURVE",
"1024 1731 CURVE SMOOTH",
"1024 1800 OFFCURVE",
"981 1829 OFFCURVE",
"932 1829 CURVE SMOOTH"
);
}
);
width = 1491;
}
);
unicode = 00DC;
},
{
glyphname = Ugrave;
lastChange = "2013-03-07 06:44:13 +0200";
layers = (
{
layerId = "98F5E167-1CFF-4278-A065-7BF212AD30BE";
name = Regular;
paths = (
{
closed = 1;
nodes = (
"1135 1462 LINE",
"1135 510 LINE SMOOTH",
"1135 265 OFFCURVE",
"997 129 OFFCURVE",
"750 129 CURVE SMOOTH",
"491 129 OFFCURVE",
"356 264 OFFCURVE",
"356 508 CURVE SMOOTH",
"356 1462 LINE",
"186 1462 LINE",
"186 520 LINE SMOOTH",
"186 184 OFFCURVE",
"387 -20 OFFCURVE",
"739 -20 CURVE SMOOTH",
"1091 -20 OFFCURVE",
"1305 183 OFFCURVE",
"1305 516 CURVE SMOOTH",
"1305 1462 LINE"
);
},
{
closed = 1;
nodes = (
"463 1907 LINE",
"463 1886 LINE",
"516 1802 OFFCURVE",
"659 1648 OFFCURVE",
"746 1579 CURVE",
"856 1579 LINE",
"856 1604 LINE",
"797 1675 OFFCURVE",
"709 1815 OFFCURVE",
"666 1907 CURVE"
);
}
);
width = 1491;
}
);
unicode = 00D9;
},
{
glyphname = V;
lastChange = "2013-03-07 06:44:13 +0200";
layers = (
{
layerId = "98F5E167-1CFF-4278-A065-7BF212AD30BE";
name = Regular;
paths = (
{
closed = 1;
nodes = (
"1036 1462 LINE",
"702 522 LINE SMOOTH",
"663 415 OFFCURVE",
"632 307 OFFCURVE",
"608 199 CURVE",
"585 302 OFFCURVE",
"555 407 OFFCURVE",
"516 516 CURVE SMOOTH",
"180 1462 LINE",
"0 1462 LINE",
"524 0 LINE",
"692 0 LINE",
"1219 1462 LINE"
);
}
);
width = 1219;
}
);
unicode = 0056;
},
{
glyphname = W;
lastChange = "2013-03-07 06:44:13 +0200";
layers = (
{
anchors = (
{
name = top;
position = "{948, 1462}";
}
);
layerId = "98F5E167-1CFF-4278-A065-7BF212AD30BE";
name = Regular;
paths = (
{
closed = 1;
nodes = (
"1688 1462 LINE",
"1458 561 LINE SMOOTH",
"1423 425 OFFCURVE",
"1399 310 OFFCURVE",
"1386 215 CURVE",
"1364 345 OFFCURVE",
"1337 462 OFFCURVE",
"1305 565 CURVE SMOOTH",
"1030 1462 LINE",
"850 1462 LINE",
"588 573 LINE SMOOTH",
"553 456 OFFCURVE",
"526 337 OFFCURVE",
"508 215 CURVE",
"493 318 OFFCURVE",
"470 432 OFFCURVE",
"438 559 CURVE SMOOTH",
"207 1462 LINE",
"27 1462 LINE",
"416 0 LINE",
"584 0 LINE",
"870 972 LINE SMOOTH",
"902 1078 OFFCURVE",
"925 1174 OFFCURVE",
"940 1262 CURVE",
"941 1249 OFFCURVE",
"950 1209 OFFCURVE",
"967 1143 CURVE SMOOTH",
"983 1077 OFFCURVE",
"999 1022 OFFCURVE",
"1014 978 CURVE",
"1309 0 LINE",
"1477 0 LINE",
"1868 1462 LINE"
);
}
);
width = 1896;
}
);
unicode = 0057;
},
{
glyphname = X;
lastChange = "2013-03-07 06:44:13 +0200";
layers = (
{
layerId = "98F5E167-1CFF-4278-A065-7BF212AD30BE";
name = Regular;
paths = (
{
closed = 1;
nodes = (
"958 1462 LINE",
"592 883 LINE",
"229 1462 LINE",
"41 1462 LINE",
"494 764 LINE",
"8 0 LINE",
"188 0 LINE",
"588 643 LINE",
"980 0 LINE",
"1174 0 LINE",
"686 770 LINE",
"1139 1462 LINE"
);
}
);
width = 1182;
}
);
unicode = 0058;
},
{
glyphname = Y;
lastChange = "2013-03-07 06:44:13 +0200";
layers = (
{
anchors = (
{
name = top;
position = "{574, 1462}";
}
);
layerId = "98F5E167-1CFF-4278-A065-7BF212AD30BE";
name = Regular;
paths = (
{
closed = 1;
nodes = (
"963 1462 LINE",
"573 731 LINE",
"186 1462 LINE",
"0 1462 LINE",
"487 559 LINE",
"487 0 LINE",
"659 0 LINE",
"659 567 LINE",
"1147 1462 LINE"
);
}
);
width = 1147;
}
);
unicode = 0059;
},
{
glyphname = Yacute;
lastChange = "2013-03-07 06:44:13 +0200";
layers = (
{
layerId = "98F5E167-1CFF-4278-A065-7BF212AD30BE";
name = Regular;
paths = (
{
closed = 1;
nodes = (
"963 1462 LINE",
"573 731 LINE",
"186 1462 LINE",
"0 1462 LINE",
"487 559 LINE",
"487 0 LINE",
"659 0 LINE",
"659 567 LINE",
"1147 1462 LINE"
);
},
{
closed = 1;
nodes = (
"633 1907 LINE",
"590 1820 OFFCURVE",
"506 1687 OFFCURVE",
"442 1604 CURVE",
"442 1579 LINE",
"553 1579 LINE",
"638 1648 OFFCURVE",
"776 1799 OFFCURVE",
"835 1886 CURVE",
"835 1907 LINE"
);
}
);
width = 1147;
}
);
unicode = 00DD;
},
{
glyphname = Ydieresis;
lastChange = "2013-03-07 06:44:13 +0200";
layers = (
{
layerId = "98F5E167-1CFF-4278-A065-7BF212AD30BE";
name = Regular;
paths = (
{
closed = 1;
nodes = (
"963 1462 LINE",
"573 731 LINE",
"186 1462 LINE",
"0 1462 LINE",
"487 559 LINE",
"487 0 LINE",
"659 0 LINE",
"659 567 LINE",
"1147 1462 LINE"
);
},
{
closed = 1;
nodes = (
"335 1829 OFFCURVE",
"294 1800 OFFCURVE",
"294 1731 CURVE SMOOTH",
"294 1664 OFFCURVE",
"335 1632 OFFCURVE",
"384 1632 CURVE SMOOTH",
"435 1632 OFFCURVE",
"477 1664 OFFCURVE",
"477 1731 CURVE SMOOTH",
"477 1800 OFFCURVE",
"435 1829 OFFCURVE",
"384 1829 CURVE SMOOTH"
);
},
{
closed = 1;
nodes = (
"716 1829 OFFCURVE",
"675 1800 OFFCURVE",
"675 1731 CURVE SMOOTH",
"675 1664 OFFCURVE",
"716 1632 OFFCURVE",
"765 1632 CURVE SMOOTH",
"814 1632 OFFCURVE",
"857 1664 OFFCURVE",
"857 1731 CURVE SMOOTH",
"857 1800 OFFCURVE",
"814 1829 OFFCURVE",
"765 1829 CURVE SMOOTH"
);
}
);
width = 1147;
}
);
unicode = 0178;
},
{
glyphname = Z;
lastChange = "2013-03-07 06:44:13 +0200";
layers = (
{
anchors = (
{
name = top;
position = "{585, 1462}";
}
);
layerId = "98F5E167-1CFF-4278-A065-7BF212AD30BE";
name = Regular;
paths = (
{
closed = 1;
nodes = (
"106 1462 LINE",
"106 1309 LINE",
"858 1309 LINE",
"82 133 LINE",
"82 0 LINE",
"1087 0 LINE",
"1087 154 LINE",
"289 154 LINE",
"1065 1329 LINE",
"1065 1462 LINE"
);
}
);
width = 1169;
}
);
unicode = 005A;
},
{
glyphname = Zcaron;
lastChange = "2013-03-07 06:44:13 +0200";
layers = (
{
layerId = "98F5E167-1CFF-4278-A065-7BF212AD30BE";
name = Regular;
paths = (
{
closed = 1;
nodes = (
"106 1462 LINE",
"106 1309 LINE",
"858 1309 LINE",
"82 133 LINE",
"82 0 LINE",
"1087 0 LINE",
"1087 154 LINE",
"289 154 LINE",
"1065 1329 LINE",
"1065 1462 LINE"
);
},
{
closed = 1;
nodes = (
"804 1907 LINE",
"743 1868 OFFCURVE",
"670 1805 OFFCURVE",
"583 1718 CURVE",
"513 1795 OFFCURVE",
"440 1858 OFFCURVE",
"364 1907 CURVE",
"249 1907 LINE",
"249 1882 LINE",
"334 1791 OFFCURVE",
"393 1725 OFFCURVE",
"427 1683 CURVE SMOOTH",
"461 1641 OFFCURVE",
"486 1606 OFFCURVE",
"501 1579 CURVE",
"667 1579 LINE",
"698 1637 OFFCURVE",
"761 1715 OFFCURVE",
"857 1814 CURVE SMOOTH",
"923 1882 LINE",
"923 1907 LINE"
);
}
);
width = 1169;
}
);
unicode = 017D;
},
{
glyphname = a;
lastChange = "2013-03-07 06:44:13 +0200";
layers = (
{
anchors = (
{
name = ogonek;
position = "{1025, 10}";
},
{
name = top;
position = "{570, 1118}";
}
);
layerId = "98F5E167-1CFF-4278-A065-7BF212AD30BE";
name = Regular;
paths = (
{
closed = 1;
nodes = (
"459 1114 OFFCURVE",
"325 1079 OFFCURVE",
"217 1020 CURVE",
"268 893 LINE",
"383 949 OFFCURVE",
"487 976 OFFCURVE",
"578 976 CURVE SMOOTH",
"741 976 OFFCURVE",
"811 897 OFFCURVE",
"811 725 CURVE SMOOTH",
"811 657 LINE",
"625 651 LINE SMOOTH",
"271 640 OFFCURVE",
"93 524 OFFCURVE",
"93 303 CURVE SMOOTH",
"93 200 OFFCURVE",
"125 120 OFFCURVE",
"186 64 CURVE SMOOTH",
"248 8 OFFCURVE",
"333 -20 OFFCURVE",
"442 -20 CURVE SMOOTH",
"523 -20 OFFCURVE",
"591 -8 OFFCURVE",
"645 16 CURVE SMOOTH",
"700 41 OFFCURVE",
"754 87 OFFCURVE",
"809 156 CURVE",
"817 156 LINE",
"850 0 LINE",
"972 0 LINE",
"972 748 LINE SMOOTH",
"972 1004 OFFCURVE",
"849 1114 OFFCURVE",
"588 1114 CURVE SMOOTH"
);
},
{
closed = 1;
nodes = (
"807 440 LINE SMOOTH",
"807 338 OFFCURVE",
"777 259 OFFCURVE",
"718 202 CURVE SMOOTH",
"659 145 OFFCURVE",
"578 117 OFFCURVE",
"475 117 CURVE SMOOTH",
"344 117 OFFCURVE",
"268 181 OFFCURVE",
"268 301 CURVE SMOOTH",
"268 454 OFFCURVE",
"377 523 OFFCURVE",
"641 532 CURVE SMOOTH",
"807 539 LINE"
);
}
);
width = 1139;
}
);
unicode = 0061;
},
{
glyphname = aacute;
lastChange = "2013-03-07 06:44:13 +0200";
layers = (
{
layerId = "98F5E167-1CFF-4278-A065-7BF212AD30BE";
name = Regular;
paths = (
{
closed = 1;
nodes = (
"459 1114 OFFCURVE",
"325 1079 OFFCURVE",
"217 1020 CURVE",
"268 893 LINE",
"383 949 OFFCURVE",
"487 977 OFFCURVE",
"578 977 CURVE SMOOTH",
"741 977 OFFCURVE",
"811 897 OFFCURVE",
"811 725 CURVE SMOOTH",
"811 657 LINE",
"625 651 LINE SMOOTH",
"271 640 OFFCURVE",
"94 524 OFFCURVE",
"94 303 CURVE SMOOTH",
"94 96 OFFCURVE",
"225 -20 OFFCURVE",
"442 -20 CURVE SMOOTH",
"605 -20 OFFCURVE",
"700 19 OFFCURVE",
"809 156 CURVE",
"817 156 LINE",
"850 0 LINE",
"973 0 LINE",
"973 748 LINE SMOOTH",
"973 1004 OFFCURVE",
"849 1114 OFFCURVE",
"588 1114 CURVE SMOOTH"
);
},
{
closed = 1;
nodes = (
"807 440 LINE SMOOTH",
"807 236 OFFCURVE",
"682 117 OFFCURVE",
"475 117 CURVE SMOOTH",
"344 117 OFFCURVE",
"268 181 OFFCURVE",
"268 301 CURVE SMOOTH",
"268 454 OFFCURVE",
"377 523 OFFCURVE",
"641 532 CURVE SMOOTH",
"807 539 LINE"
);
},
{
closed = 1;
nodes = (
"627 1569 LINE",
"584 1482 OFFCURVE",
"500 1349 OFFCURVE",
"436 1266 CURVE",
"436 1241 LINE",
"547 1241 LINE",
"632 1310 OFFCURVE",
"770 1461 OFFCURVE",
"829 1548 CURVE",
"829 1569 LINE"
);
}
);
width = 1139;
}
);
unicode = 00E1;
},
{
glyphname = acircumflex;
lastChange = "2013-03-07 06:44:13 +0200";
layers = (
{
layerId = "98F5E167-1CFF-4278-A065-7BF212AD30BE";
name = Regular;
paths = (
{
closed = 1;
nodes = (
"459 1114 OFFCURVE",
"325 1079 OFFCURVE",
"217 1020 CURVE",
"268 893 LINE",
"383 949 OFFCURVE",
"487 977 OFFCURVE",
"578 977 CURVE SMOOTH",
"741 977 OFFCURVE",
"811 897 OFFCURVE",
"811 725 CURVE SMOOTH",
"811 657 LINE",
"625 651 LINE SMOOTH",
"271 640 OFFCURVE",
"94 524 OFFCURVE",
"94 303 CURVE SMOOTH",
"94 96 OFFCURVE",
"225 -20 OFFCURVE",
"442 -20 CURVE SMOOTH",
"605 -20 OFFCURVE",
"700 19 OFFCURVE",
"809 156 CURVE",
"817 156 LINE",
"850 0 LINE",
"973 0 LINE",
"973 748 LINE SMOOTH",
"973 1004 OFFCURVE",
"849 1114 OFFCURVE",
"588 1114 CURVE SMOOTH"
);
},
{
closed = 1;
nodes = (
"807 440 LINE SMOOTH",
"807 236 OFFCURVE",
"682 117 OFFCURVE",
"475 117 CURVE SMOOTH",
"344 117 OFFCURVE",
"268 181 OFFCURVE",
"268 301 CURVE SMOOTH",
"268 454 OFFCURVE",
"377 523 OFFCURVE",
"641 532 CURVE SMOOTH",
"807 539 LINE"
);
},
{
closed = 1;
nodes = (
"480 1569 LINE",
"465 1542 OFFCURVE",
"440 1507 OFFCURVE",
"406 1464 CURVE SMOOTH",
"372 1421 OFFCURVE",
"313 1355 OFFCURVE",
"228 1264 CURVE",
"228 1241 LINE",
"343 1241 LINE",
"398 1276 OFFCURVE",
"471 1338 OFFCURVE",
"562 1427 CURVE",
"651 1340 OFFCURVE",
"724 1278 OFFCURVE",
"783 1241 CURVE",
"902 1241 LINE",
"902 1264 LINE",
"819 1351 OFFCURVE",
"759 1416 OFFCURVE",
"723 1461 CURVE SMOOTH",
"686 1505 OFFCURVE",
"661 1541 OFFCURVE",
"646 1569 CURVE"
);
}
);
width = 1139;
}
);
unicode = 00E2;
},
{
glyphname = adieresis;
lastChange = "2013-03-07 06:44:13 +0200";
layers = (
{
layerId = "98F5E167-1CFF-4278-A065-7BF212AD30BE";
name = Regular;
paths = (
{
closed = 1;
nodes = (
"459 1114 OFFCURVE",
"325 1079 OFFCURVE",
"217 1020 CURVE",
"268 893 LINE",
"383 949 OFFCURVE",
"487 977 OFFCURVE",
"578 977 CURVE SMOOTH",
"741 977 OFFCURVE",
"811 897 OFFCURVE",
"811 725 CURVE SMOOTH",
"811 657 LINE",
"625 651 LINE SMOOTH",
"271 640 OFFCURVE",
"94 524 OFFCURVE",
"94 303 CURVE SMOOTH",
"94 96 OFFCURVE",
"225 -20 OFFCURVE",
"442 -20 CURVE SMOOTH",
"605 -20 OFFCURVE",
"700 19 OFFCURVE",
"809 156 CURVE",
"817 156 LINE",
"850 0 LINE",
"973 0 LINE",
"973 748 LINE SMOOTH",
"973 1004 OFFCURVE",
"849 1114 OFFCURVE",
"588 1114 CURVE SMOOTH"
);
},
{
closed = 1;
nodes = (
"807 440 LINE SMOOTH",
"807 236 OFFCURVE",
"682 117 OFFCURVE",
"475 117 CURVE SMOOTH",
"344 117 OFFCURVE",
"268 181 OFFCURVE",
"268 301 CURVE SMOOTH",
"268 454 OFFCURVE",
"377 523 OFFCURVE",
"641 532 CURVE SMOOTH",
"807 539 LINE"
);
},
{
closed = 1;
nodes = (
"320 1491 OFFCURVE",
"279 1462 OFFCURVE",
"279 1393 CURVE SMOOTH",
"279 1326 OFFCURVE",
"320 1294 OFFCURVE",
"369 1294 CURVE SMOOTH",
"420 1294 OFFCURVE",
"462 1326 OFFCURVE",
"462 1393 CURVE SMOOTH",
"462 1462 OFFCURVE",
"420 1491 OFFCURVE",
"369 1491 CURVE SMOOTH"
);
},
{
closed = 1;
nodes = (
"701 1491 OFFCURVE",
"660 1462 OFFCURVE",
"660 1393 CURVE SMOOTH",
"660 1326 OFFCURVE",
"701 1294 OFFCURVE",
"750 1294 CURVE SMOOTH",
"799 1294 OFFCURVE",
"842 1326 OFFCURVE",
"842 1393 CURVE SMOOTH",
"842 1462 OFFCURVE",
"799 1491 OFFCURVE",
"750 1491 CURVE SMOOTH"
);
}
);
width = 1139;
}
);
unicode = 00E4;
},
{
glyphname = agrave;
lastChange = "2013-03-07 06:44:13 +0200";
layers = (
{
layerId = "98F5E167-1CFF-4278-A065-7BF212AD30BE";
name = Regular;
paths = (
{
closed = 1;
nodes = (
"459 1114 OFFCURVE",
"325 1079 OFFCURVE",
"217 1020 CURVE",
"268 893 LINE",
"383 949 OFFCURVE",
"487 977 OFFCURVE",
"578 977 CURVE SMOOTH",
"741 977 OFFCURVE",
"811 897 OFFCURVE",
"811 725 CURVE SMOOTH",
"811 657 LINE",
"625 651 LINE SMOOTH",
"271 640 OFFCURVE",
"94 524 OFFCURVE",
"94 303 CURVE SMOOTH",
"94 96 OFFCURVE",
"225 -20 OFFCURVE",
"442 -20 CURVE SMOOTH",
"605 -20 OFFCURVE",
"700 19 OFFCURVE",
"809 156 CURVE",
"817 156 LINE",
"850 0 LINE",
"973 0 LINE",
"973 748 LINE SMOOTH",
"973 1004 OFFCURVE",
"849 1114 OFFCURVE",
"588 1114 CURVE SMOOTH"
);
},
{
closed = 1;
nodes = (
"807 440 LINE SMOOTH",
"807 236 OFFCURVE",
"682 117 OFFCURVE",
"475 117 CURVE SMOOTH",
"344 117 OFFCURVE",
"268 181 OFFCURVE",
"268 301 CURVE SMOOTH",
"268 454 OFFCURVE",
"377 523 OFFCURVE",
"641 532 CURVE SMOOTH",
"807 539 LINE"
);
},
{
closed = 1;
nodes = (
"279 1569 LINE",
"279 1548 LINE",
"332 1464 OFFCURVE",
"475 1310 OFFCURVE",
"562 1241 CURVE",
"672 1241 LINE",
"672 1266 LINE",
"613 1337 OFFCURVE",
"525 1477 OFFCURVE",
"482 1569 CURVE"
);
}
);
width = 1139;
}
);
unicode = 00E0;
},
{
glyphname = aring;
lastChange = "2013-03-07 06:44:13 +0200";
layers = (
{
layerId = "98F5E167-1CFF-4278-A065-7BF212AD30BE";
name = Regular;
paths = (
{
closed = 1;
nodes = (
"459 1114 OFFCURVE",
"325 1079 OFFCURVE",
"217 1020 CURVE",
"268 893 LINE",
"383 949 OFFCURVE",
"487 977 OFFCURVE",
"578 977 CURVE SMOOTH",
"741 977 OFFCURVE",
"811 897 OFFCURVE",
"811 725 CURVE SMOOTH",
"811 657 LINE",
"625 651 LINE SMOOTH",
"271 640 OFFCURVE",
"94 524 OFFCURVE",
"94 303 CURVE SMOOTH",
"94 96 OFFCURVE",
"225 -20 OFFCURVE",
"442 -20 CURVE SMOOTH",
"605 -20 OFFCURVE",
"700 19 OFFCURVE",
"809 156 CURVE",
"817 156 LINE",
"850 0 LINE",
"973 0 LINE",
"973 748 LINE SMOOTH",
"973 1004 OFFCURVE",
"849 1114 OFFCURVE",
"588 1114 CURVE SMOOTH"
);
},
{
closed = 1;
nodes = (
"807 440 LINE SMOOTH",
"807 236 OFFCURVE",
"682 117 OFFCURVE",
"475 117 CURVE SMOOTH",
"344 117 OFFCURVE",
"268 181 OFFCURVE",
"268 301 CURVE SMOOTH",
"268 454 OFFCURVE",
"377 523 OFFCURVE",
"641 532 CURVE SMOOTH",
"807 539 LINE"
);
},
{
closed = 1;
nodes = (
"647 1573 OFFCURVE",
"696 1531 OFFCURVE",
"696 1456 CURVE SMOOTH",
"696 1381 OFFCURVE",
"648 1339 OFFCURVE",
"579 1339 CURVE SMOOTH",
"503 1339 OFFCURVE",
"462 1381 OFFCURVE",
"462 1456 CURVE SMOOTH",
"462 1531 OFFCURVE",
"511 1573 OFFCURVE",
"579 1573 CURVE SMOOTH"
);
},
{
closed = 1;
nodes = (
"446 1669 OFFCURVE",
"358 1587 OFFCURVE",
"358 1456 CURVE SMOOTH",
"358 1325 OFFCURVE",
"444 1241 OFFCURVE",
"579 1241 CURVE SMOOTH",
"715 1241 OFFCURVE",
"804 1327 OFFCURVE",
"804 1458 CURVE SMOOTH",
"804 1581 OFFCURVE",
"714 1669 OFFCURVE",
"579 1669 CURVE SMOOTH"
);
}
);
width = 1139;
}
);
unicode = 00E5;
},
{
glyphname = atilde;
lastChange = "2013-03-07 06:44:13 +0200";
layers = (
{
layerId = "98F5E167-1CFF-4278-A065-7BF212AD30BE";
name = Regular;
paths = (
{
closed = 1;
nodes = (
"459 1114 OFFCURVE",
"325 1079 OFFCURVE",
"217 1020 CURVE",
"268 893 LINE",
"383 949 OFFCURVE",
"487 977 OFFCURVE",
"578 977 CURVE SMOOTH",
"741 977 OFFCURVE",
"811 897 OFFCURVE",
"811 725 CURVE SMOOTH",
"811 657 LINE",
"625 651 LINE SMOOTH",
"271 640 OFFCURVE",
"94 524 OFFCURVE",
"94 303 CURVE SMOOTH",
"94 96 OFFCURVE",
"225 -20 OFFCURVE",
"442 -20 CURVE SMOOTH",
"605 -20 OFFCURVE",
"700 19 OFFCURVE",
"809 156 CURVE",
"817 156 LINE",
"850 0 LINE",
"973 0 LINE",
"973 748 LINE SMOOTH",
"973 1004 OFFCURVE",
"849 1114 OFFCURVE",
"588 1114 CURVE SMOOTH"
);
},
{
closed = 1;
nodes = (
"807 440 LINE SMOOTH",
"807 236 OFFCURVE",
"682 117 OFFCURVE",
"475 117 CURVE SMOOTH",
"344 117 OFFCURVE",
"268 181 OFFCURVE",
"268 301 CURVE SMOOTH",
"268 454 OFFCURVE",
"377 523 OFFCURVE",
"641 532 CURVE SMOOTH",
"807 539 LINE"
);
},
{
closed = 1;
nodes = (
"842 1501 LINE",
"822 1418 OFFCURVE",
"795 1380 OFFCURVE",
"730 1380 CURVE SMOOTH",
"687 1380 OFFCURVE",
"639 1410 OFFCURVE",
"587 1440 CURVE SMOOTH",
"535 1470 OFFCURVE",
"477 1499 OFFCURVE",
"416 1499 CURVE SMOOTH",
"295 1499 OFFCURVE",
"214 1402 OFFCURVE",
"197 1241 CURVE",
"295 1241 LINE",
"314 1322 OFFCURVE",
"343 1362 OFFCURVE",
"410 1362 CURVE SMOOTH",
"455 1362 OFFCURVE",
"504 1333 OFFCURVE",
"557 1303 CURVE SMOOTH",
"609 1273 OFFCURVE",
"664 1243 OFFCURVE",
"721 1243 CURVE SMOOTH",
"846 1243 OFFCURVE",
"924 1340 OFFCURVE",
"941 1501 CURVE"
);
}
);
width = 1139;
}
);
unicode = 00E3;
},
{
glyphname = ae;
lastChange = "2013-03-07 06:44:13 +0200";
layers = (
{
layerId = "98F5E167-1CFF-4278-A065-7BF212AD30BE";
name = Regular;
paths = (
{
closed = 1;
nodes = (
"1080 1116 OFFCURVE",
"964 1049 OFFCURVE",
"893 932 CURVE",
"838 1059 OFFCURVE",
"730 1114 OFFCURVE",
"557 1114 CURVE SMOOTH",
"426 1114 OFFCURVE",
"285 1075 OFFCURVE",
"186 1020 CURVE",
"238 893 LINE",
"347 949 OFFCURVE",
"449 977 OFFCURVE",
"545 977 CURVE SMOOTH",
"704 977 OFFCURVE",
"780 897 OFFCURVE",
"780 725 CURVE SMOOTH",
"780 657 LINE",
"596 651 LINE SMOOTH",
"257 640 OFFCURVE",
"94 518 OFFCURVE",
"94 303 CURVE SMOOTH",
"94 99 OFFCURVE",
"225 -20 OFFCURVE",
"442 -20 CURVE SMOOTH",
"621 -20 OFFCURVE",
"746 44 OFFCURVE",
"854 213 CURVE",
"937 58 OFFCURVE",
"1075 -20 OFFCURVE",
"1268 -20 CURVE SMOOTH",
"1403 -20 OFFCURVE",
"1489 0 OFFCURVE",
"1604 51 CURVE",
"1604 199 LINE",
"1492 147 OFFCURVE",
"1393 125 OFFCURVE",
"1272 125 CURVE SMOOTH",
"1063 125 OFFCURVE",
"955 257 OFFCURVE",
"950 520 CURVE",
"1651 520 LINE",
"1651 627 LINE SMOOTH",
"1651 923 OFFCURVE",
"1483 1116 OFFCURVE",
"1227 1116 CURVE SMOOTH"
);
},
{
closed = 1;
nodes = (
"776 440 LINE SMOOTH",
"776 235 OFFCURVE",
"656 117 OFFCURVE",
"463 117 CURVE SMOOTH",
"346 117 OFFCURVE",
"268 174 OFFCURVE",
"268 301 CURVE SMOOTH",
"268 453 OFFCURVE",
"370 521 OFFCURVE",
"618 532 CURVE SMOOTH",
"776 539 LINE"
);
},
{
closed = 1;
nodes = (
"1385 977 OFFCURVE",
"1473 861 OFFCURVE",
"1473 653 CURVE",
"954 653 LINE",
"969 864 OFFCURVE",
"1064 977 OFFCURVE",
"1225 977 CURVE SMOOTH"
);
}
);
width = 1757;
}
);
unicode = 00E6;
},
{
glyphname = b;
lastChange = "2013-03-07 06:44:13 +0200";
layers = (
{
layerId = "98F5E167-1CFF-4278-A065-7BF212AD30BE";
name = Regular;
paths = (
{
closed = 1;
nodes = (
"176 1556 LINE",
"176 0 LINE",
"295 0 LINE",
"330 141 LINE",
"342 141 LINE",
"422 32 OFFCURVE",
"543 -20 OFFCURVE",
"686 -20 CURVE SMOOTH",
"829 -20 OFFCURVE",
"940 30 OFFCURVE",
"1020 129 CURVE SMOOTH",
"1101 229 OFFCURVE",
"1141 369 OFFCURVE",
"1141 549 CURVE SMOOTH",
"1141 729 OFFCURVE",
"1101 868 OFFCURVE",
"1021 966 CURVE SMOOTH",
"942 1065 OFFCURVE",
"830 1114 OFFCURVE",
"686 1114 CURVE SMOOTH",
"534 1114 OFFCURVE",
"419 1059 OFFCURVE",
"342 950 CURVE",
"334 950 LINE",
"339 1017 OFFCURVE",
"342 1093 OFFCURVE",
"342 1178 CURVE SMOOTH",
"342 1556 LINE"
);
},
{
closed = 1;
nodes = (
"871 974 OFFCURVE",
"968 836 OFFCURVE",
"968 551 CURVE SMOOTH",
"968 272 OFFCURVE",
"870 119 OFFCURVE",
"666 119 CURVE SMOOTH",
"553 119 OFFCURVE",
"470 152 OFFCURVE",
"419 218 CURVE SMOOTH",
"368 285 OFFCURVE",
"342 395 OFFCURVE",
"342 549 CURVE SMOOTH",
"342 703 OFFCURVE",
"367 812 OFFCURVE",
"417 877 CURVE SMOOTH",
"467 942 OFFCURVE",
"549 974 OFFCURVE",
"662 974 CURVE SMOOTH"
);
}
);
width = 1255;
}
);
unicode = 0062;
},
{
glyphname = c;
lastChange = "2013-03-07 06:44:13 +0200";
layers = (
{
anchors = (
{
name = bottom;
position = "{487, 0}";
},
{
name = top;
position = "{487, 1118}";
}
);
layerId = "98F5E167-1CFF-4278-A065-7BF212AD30BE";
name = Regular;
paths = (
{
closed = 1;
nodes = (
"462 1116 OFFCURVE",
"336 1066 OFFCURVE",
"247 966 CURVE SMOOTH",
"159 866 OFFCURVE",
"115 724 OFFCURVE",
"115 541 CURVE SMOOTH",
"115 362 OFFCURVE",
"158 224 OFFCURVE",
"245 126 CURVE SMOOTH",
"332 29 OFFCURVE",
"455 -20 OFFCURVE",
"614 -20 CURVE SMOOTH",
"725 -20 OFFCURVE",
"818 0 OFFCURVE",
"891 37 CURVE",
"891 184 LINE",
"795 145 OFFCURVE",
"701 125 OFFCURVE",
"610 125 CURVE SMOOTH",
"397 125 OFFCURVE",
"287 274 OFFCURVE",
"287 543 CURVE SMOOTH",
"287 827 OFFCURVE",
"398 968 OFFCURVE",
"621 968 CURVE SMOOTH",
"654 968 OFFCURVE",
"693 964 OFFCURVE",
"736 954 CURVE SMOOTH",
"779 945 OFFCURVE",
"819 933 OFFCURVE",
"856 918 CURVE",
"907 1059 LINE",
"877 1074 OFFCURVE",
"836 1088 OFFCURVE",
"783 1099 CURVE SMOOTH",
"730 1110 OFFCURVE",
"678 1116 OFFCURVE",
"625 1116 CURVE SMOOTH"
);
}
);
width = 974;
}
);
unicode = 0063;
},
{
glyphname = ccedilla;
lastChange = "2013-03-07 06:44:13 +0200";
layers = (
{
layerId = "98F5E167-1CFF-4278-A065-7BF212AD30BE";
name = Regular;
paths = (
{
closed = 1;
nodes = (
"298 1116 OFFCURVE",
"115 908 OFFCURVE",
"115 541 CURVE SMOOTH",
"115 184 OFFCURVE",
"297 -20 OFFCURVE",
"614 -20 CURVE SMOOTH",
"725 -20 OFFCURVE",
"818 -1 OFFCURVE",
"891 37 CURVE",
"891 184 LINE",
"795 145 OFFCURVE",
"701 125 OFFCURVE",
"610 125 CURVE SMOOTH",
"397 125 OFFCURVE",
"287 274 OFFCURVE",
"287 543 CURVE SMOOTH",
"287 827 OFFCURVE",
"398 969 OFFCURVE",
"621 969 CURVE SMOOTH",
"688 969 OFFCURVE",
"783 947 OFFCURVE",
"856 918 CURVE",
"907 1059 LINE",
"847 1090 OFFCURVE",
"730 1116 OFFCURVE",
"625 1116 CURVE SMOOTH"
);
},
{
closed = 1;
nodes = (
"527 0 LINE",
"439 -178 LINE",
"512 -189 OFFCURVE",
"561 -204 OFFCURVE",
"588 -221 CURVE",
"614 -239 OFFCURVE",
"627 -262 OFFCURVE",
"627 -291 CURVE SMOOTH",
"627 -363 OFFCURVE",
"572 -385 OFFCURVE",
"467 -385 CURVE SMOOTH",
"428 -385 OFFCURVE",
"393 -382 OFFCURVE",
"363 -377 CURVE",
"363 -483 LINE",
"393 -489 OFFCURVE",
"425 -492 OFFCURVE",
"459 -492 CURVE SMOOTH",
"659 -492 OFFCURVE",
"762 -418 OFFCURVE",
"762 -289 CURVE SMOOTH",
"762 -199 OFFCURVE",
"702 -141 OFFCURVE",
"582 -115 CURVE",
"637 0 LINE"
);
}
);
width = 975;
}
);
unicode = 00E7;
},
{
glyphname = d;
lastChange = "2013-03-07 06:44:13 +0200";
layers = (
{
anchors = (
{
name = center;
position = "{628, 559}";
}
);
layerId = "98F5E167-1CFF-4278-A065-7BF212AD30BE";
name = Regular;
paths = (
{
closed = 1;
nodes = (
"913 1556 LINE",
"913 1110 LINE",
"917 1033 LINE",
"924 954 LINE",
"911 954 LINE",
"832 1062 OFFCURVE",
"718 1116 OFFCURVE",
"569 1116 CURVE SMOOTH",
"426 1116 OFFCURVE",
"315 1066 OFFCURVE",
"235 966 CURVE SMOOTH",
"155 866 OFFCURVE",
"115 726 OFFCURVE",
"115 545 CURVE SMOOTH",
"115 364 OFFCURVE",
"155 225 OFFCURVE",
"234 127 CURVE SMOOTH",
"314 29 OFFCURVE",
"426 -20 OFFCURVE",
"569 -20 CURVE SMOOTH",
"722 -20 OFFCURVE",
"836 36 OFFCURVE",
"913 147 CURVE",
"922 147 LINE",
"944 0 LINE",
"1079 0 LINE",
"1079 1556 LINE"
);
},
{
closed = 1;
nodes = (
"701 976 OFFCURVE",
"784 944 OFFCURVE",
"835 877 CURVE SMOOTH",
"887 811 OFFCURVE",
"913 700 OFFCURVE",
"913 545 CURVE SMOOTH",
"913 510 LINE SMOOTH",
"913 235 OFFCURVE",
"817 119 OFFCURVE",
"590 119 CURVE SMOOTH",
"391 119 OFFCURVE",
"287 263 OFFCURVE",
"287 543 CURVE SMOOTH",
"287 819 OFFCURVE",
"393 976 OFFCURVE",
"588 976 CURVE SMOOTH"
);
}
);
width = 1255;
}
);
unicode = 0064;
},
{
glyphname = eth;
lastChange = "2013-03-07 06:44:13 +0200";
layers = (
{
layerId = "98F5E167-1CFF-4278-A065-7BF212AD30BE";
name = Regular;
paths = (
{
closed = 1;
nodes = (
"371 1452 LINE",
"434 1419 OFFCURVE",
"496 1382 OFFCURVE",
"557 1341 CURVE",
"324 1208 LINE",
"397 1100 LINE",
"668 1255 LINE",
"805 1128 OFFCURVE",
"892 993 OFFCURVE",
"930 850 CURVE",
"922 846 LINE",
"855 927 OFFCURVE",
"747 967 OFFCURVE",
"596 967 CURVE SMOOTH",
"303 967 OFFCURVE",
"113 782 OFFCURVE",
"113 475 CURVE SMOOTH",
"113 174 OFFCURVE",
"318 -20 OFFCURVE",
"614 -20 CURVE SMOOTH",
"943 -20 OFFCURVE",
"1122 188 OFFCURVE",
"1122 563 CURVE SMOOTH",
"1122 868 OFFCURVE",
"1008 1142 OFFCURVE",
"805 1333 CURVE",
"1012 1452 LINE",
"936 1559 LINE",
"698 1421 LINE",
"630 1471 OFFCURVE",
"544 1520 OFFCURVE",
"440 1569 CURVE"
);
},
{
closed = 1;
nodes = (
"826 829 OFFCURVE",
"954 708 OFFCURVE",
"954 512 CURVE SMOOTH",
"954 256 OFFCURVE",
"851 119 OFFCURVE",
"618 119 CURVE SMOOTH",
"402 119 OFFCURVE",
"281 246 OFFCURVE",
"281 469 CURVE SMOOTH",
"281 709 OFFCURVE",
"393 829 OFFCURVE",
"618 829 CURVE SMOOTH"
);
}
);
width = 1221;
}
);
unicode = 00F0;
},
{
glyphname = e;
lastChange = "2013-03-07 06:44:13 +0200";
layers = (
{
anchors = (
{
name = bottom;
position = "{575, 0}";
},
{
name = ogonek;
position = "{1034, 10}";
},
{
name = top;
position = "{575, 1118}";
}
);
layerId = "98F5E167-1CFF-4278-A065-7BF212AD30BE";
name = Regular;
paths = (
{
closed = 1;
nodes = (
"449 1116 OFFCURVE",
"332 1064 OFFCURVE",
"245 960 CURVE SMOOTH",
"158 856 OFFCURVE",
"115 716 OFFCURVE",
"115 539 CURVE SMOOTH",
"115 364 OFFCURVE",
"162 227 OFFCURVE",
"255 128 CURVE SMOOTH",
"349 29 OFFCURVE",
"477 -20 OFFCURVE",
"639 -20 CURVE SMOOTH",
"713 -20 OFFCURVE",
"776 -14 OFFCURVE",
"828 -3 CURVE SMOOTH",
"881 8 OFFCURVE",
"936 26 OFFCURVE",
"994 51 CURVE",
"994 199 LINE",
"880 150 OFFCURVE",
"763 125 OFFCURVE",
"645 125 CURVE SMOOTH",
"421 125 OFFCURVE",
"294 261 OFFCURVE",
"287 518 CURVE",
"1042 518 LINE",
"1042 623 LINE SMOOTH",
"1042 771 OFFCURVE",
"1002 890 OFFCURVE",
"922 979 CURVE SMOOTH",
"842 1071 OFFCURVE",
"733 1116 OFFCURVE",
"596 1116 CURVE SMOOTH"
);
},
{
closed = 1;
nodes = (
"767 976 OFFCURVE",
"864 862 OFFCURVE",
"864 653 CURVE",
"291 653 LINE",
"310 856 OFFCURVE",
"418 976 OFFCURVE",
"594 976 CURVE SMOOTH"
);
}
);
width = 1149;
}
);
unicode = 0065;
},
{
glyphname = eacute;
lastChange = "2013-03-07 06:44:13 +0200";
layers = (
{
layerId = "98F5E167-1CFF-4278-A065-7BF212AD30BE";
name = Regular;
paths = (
{
closed = 1;
nodes = (
"303 1116 OFFCURVE",
"115 892 OFFCURVE",
"115 539 CURVE SMOOTH",
"115 188 OFFCURVE",
"315 -20 OFFCURVE",
"639 -20 CURVE SMOOTH",
"787 -20 OFFCURVE",
"878 0 OFFCURVE",
"995 51 CURVE",
"995 199 LINE",
"880 150 OFFCURVE",
"763 125 OFFCURVE",
"645 125 CURVE SMOOTH",
"421 125 OFFCURVE",
"294 261 OFFCURVE",
"287 518 CURVE",
"1042 518 LINE",
"1042 623 LINE SMOOTH",
"1042 919 OFFCURVE",
"871 1116 OFFCURVE",
"596 1116 CURVE SMOOTH"
);
},
{
closed = 1;
nodes = (
"767 977 OFFCURVE",
"864 862 OFFCURVE",
"864 653 CURVE",
"291 653 LINE",
"310 856 OFFCURVE",
"418 977 OFFCURVE",
"594 977 CURVE SMOOTH"
);
},
{
closed = 1;
nodes = (
"662 1569 LINE",
"619 1482 OFFCURVE",
"535 1349 OFFCURVE",
"471 1266 CURVE",
"471 1241 LINE",
"582 1241 LINE",
"667 1310 OFFCURVE",
"805 1461 OFFCURVE",
"864 1548 CURVE",
"864 1569 LINE"
);
}
);
width = 1149;
}
);
unicode = 00E9;
},
{
glyphname = ecircumflex;
lastChange = "2013-03-07 06:44:13 +0200";
layers = (
{
layerId = "98F5E167-1CFF-4278-A065-7BF212AD30BE";
name = Regular;
paths = (
{
closed = 1;
nodes = (
"303 1116 OFFCURVE",
"115 892 OFFCURVE",
"115 539 CURVE SMOOTH",
"115 188 OFFCURVE",
"315 -20 OFFCURVE",
"639 -20 CURVE SMOOTH",
"787 -20 OFFCURVE",
"878 0 OFFCURVE",
"995 51 CURVE",
"995 199 LINE",
"880 150 OFFCURVE",
"763 125 OFFCURVE",
"645 125 CURVE SMOOTH",
"421 125 OFFCURVE",
"294 261 OFFCURVE",
"287 518 CURVE",
"1042 518 LINE",
"1042 623 LINE SMOOTH",
"1042 919 OFFCURVE",
"871 1116 OFFCURVE",
"596 1116 CURVE SMOOTH"
);
},
{
closed = 1;
nodes = (
"767 977 OFFCURVE",
"864 862 OFFCURVE",
"864 653 CURVE",
"291 653 LINE",
"310 856 OFFCURVE",
"418 977 OFFCURVE",
"594 977 CURVE SMOOTH"
);
},
{
closed = 1;
nodes = (
"511 1569 LINE",
"496 1542 OFFCURVE",
"471 1507 OFFCURVE",
"437 1464 CURVE SMOOTH",
"403 1421 OFFCURVE",
"344 1355 OFFCURVE",
"259 1264 CURVE",
"259 1241 LINE",
"374 1241 LINE",
"429 1276 OFFCURVE",
"502 1338 OFFCURVE",
"593 1427 CURVE",
"682 1340 OFFCURVE",
"755 1278 OFFCURVE",
"814 1241 CURVE",
"933 1241 LINE",
"933 1264 LINE",
"850 1351 OFFCURVE",
"790 1416 OFFCURVE",
"754 1461 CURVE SMOOTH",
"717 1505 OFFCURVE",
"692 1541 OFFCURVE",
"677 1569 CURVE"
);
}
);
width = 1149;
}
);
unicode = 00EA;
},
{
glyphname = edieresis;
lastChange = "2013-03-07 06:44:13 +0200";
layers = (
{
layerId = "98F5E167-1CFF-4278-A065-7BF212AD30BE";
name = Regular;
paths = (
{
closed = 1;
nodes = (
"303 1116 OFFCURVE",
"115 892 OFFCURVE",
"115 539 CURVE SMOOTH",
"115 188 OFFCURVE",
"315 -20 OFFCURVE",
"639 -20 CURVE SMOOTH",
"787 -20 OFFCURVE",
"878 0 OFFCURVE",
"995 51 CURVE",
"995 199 LINE",
"880 150 OFFCURVE",
"763 125 OFFCURVE",
"645 125 CURVE SMOOTH",
"421 125 OFFCURVE",
"294 261 OFFCURVE",
"287 518 CURVE",
"1042 518 LINE",
"1042 623 LINE SMOOTH",
"1042 919 OFFCURVE",
"871 1116 OFFCURVE",
"596 1116 CURVE SMOOTH"
);
},
{
closed = 1;
nodes = (
"767 977 OFFCURVE",
"864 862 OFFCURVE",
"864 653 CURVE",
"291 653 LINE",
"310 856 OFFCURVE",
"418 977 OFFCURVE",
"594 977 CURVE SMOOTH"
);
},
{
closed = 1;
nodes = (
"360 1491 OFFCURVE",
"319 1462 OFFCURVE",
"319 1393 CURVE SMOOTH",
"319 1326 OFFCURVE",
"360 1294 OFFCURVE",
"409 1294 CURVE SMOOTH",
"460 1294 OFFCURVE",
"502 1326 OFFCURVE",
"502 1393 CURVE SMOOTH",
"502 1462 OFFCURVE",
"460 1491 OFFCURVE",
"409 1491 CURVE SMOOTH"
);
},
{
closed = 1;
nodes = (
"741 1491 OFFCURVE",
"700 1462 OFFCURVE",
"700 1393 CURVE SMOOTH",
"700 1326 OFFCURVE",
"741 1294 OFFCURVE",
"790 1294 CURVE SMOOTH",
"839 1294 OFFCURVE",
"882 1326 OFFCURVE",
"882 1393 CURVE SMOOTH",
"882 1462 OFFCURVE",
"839 1491 OFFCURVE",
"790 1491 CURVE SMOOTH"
);
}
);
width = 1149;
}
);
unicode = 00EB;
},
{
glyphname = egrave;
lastChange = "2013-03-07 06:44:13 +0200";
layers = (
{
layerId = "98F5E167-1CFF-4278-A065-7BF212AD30BE";
name = Regular;
paths = (
{
closed = 1;
nodes = (
"303 1116 OFFCURVE",
"115 892 OFFCURVE",
"115 539 CURVE SMOOTH",
"115 188 OFFCURVE",
"315 -20 OFFCURVE",
"639 -20 CURVE SMOOTH",
"787 -20 OFFCURVE",
"878 0 OFFCURVE",
"995 51 CURVE",
"995 199 LINE",
"880 150 OFFCURVE",
"763 125 OFFCURVE",
"645 125 CURVE SMOOTH",
"421 125 OFFCURVE",
"294 261 OFFCURVE",
"287 518 CURVE",
"1042 518 LINE",
"1042 623 LINE SMOOTH",
"1042 919 OFFCURVE",
"871 1116 OFFCURVE",
"596 1116 CURVE SMOOTH"
);
},
{
closed = 1;
nodes = (
"767 977 OFFCURVE",
"864 862 OFFCURVE",
"864 653 CURVE",
"291 653 LINE",
"310 856 OFFCURVE",
"418 977 OFFCURVE",
"594 977 CURVE SMOOTH"
);
},
{
closed = 1;
nodes = (
"318 1569 LINE",
"318 1548 LINE",
"371 1464 OFFCURVE",
"514 1310 OFFCURVE",
"601 1241 CURVE",
"711 1241 LINE",
"711 1266 LINE",
"652 1337 OFFCURVE",
"564 1477 OFFCURVE",
"521 1569 CURVE"
);
}
);
width = 1149;
}
);
unicode = 00E8;
},
{
glyphname = f;
lastChange = "2013-03-07 06:44:13 +0200";
layers = (
{
layerId = "98F5E167-1CFF-4278-A065-7BF212AD30BE";
name = Regular;
paths = (
{
closed = 1;
nodes = (
"343 1567 OFFCURVE",
"225 1432 OFFCURVE",
"225 1163 CURVE SMOOTH",
"225 1102 LINE",
"29 1042 LINE",
"29 967 LINE",
"225 967 LINE",
"225 0 LINE",
"391 0 LINE",
"391 967 LINE",
"670 967 LINE",
"670 1096 LINE",
"391 1096 LINE",
"391 1167 LINE SMOOTH",
"391 1351 OFFCURVE",
"450 1430 OFFCURVE",
"575 1430 CURVE SMOOTH",
"620 1430 OFFCURVE",
"675 1420 OFFCURVE",
"739 1399 CURVE",
"782 1532 LINE",
"704 1555 OFFCURVE",
"636 1567 OFFCURVE",
"578 1567 CURVE SMOOTH"
);
}
);
width = 694;
}
);
unicode = 0066;
},
{
glyphname = g;
lastChange = "2013-03-07 06:44:13 +0200";
layers = (
{
anchors = (
{
name = top;
position = "{561, 1118}";
}
);
layerId = "98F5E167-1CFF-4278-A065-7BF212AD30BE";
name = Regular;
paths = (
{
closed = 1;
nodes = (
"275 1116 OFFCURVE",
"125 980 OFFCURVE",
"125 741 CURVE SMOOTH",
"125 669 OFFCURVE",
"143 605 OFFCURVE",
"178 549 CURVE SMOOTH",
"214 493 OFFCURVE",
"260 453 OFFCURVE",
"317 430 CURVE",
"225 374 OFFCURVE",
"184 318 OFFCURVE",
"184 238 CURVE SMOOTH",
"184 167 OFFCURVE",
"227 111 OFFCURVE",
"283 86 CURVE",
"206 69 OFFCURVE",
"146 36 OFFCURVE",
"103 -13 CURVE SMOOTH",
"60 -62 OFFCURVE",
"39 -119 OFFCURVE",
"39 -186 CURVE SMOOTH",
"39 -381 OFFCURVE",
"200 -492 OFFCURVE",
"487 -492 CURVE SMOOTH",
"860 -492 OFFCURVE",
"1059 -362 OFFCURVE",
"1059 -119 CURVE SMOOTH",
"1059 72 OFFCURVE",
"927 174 OFFCURVE",
"690 174 CURVE SMOOTH",
"496 174 LINE SMOOTH",
"376 174 OFFCURVE",
"332 202 OFFCURVE",
"332 262 CURVE SMOOTH",
"332 319 OFFCURVE",
"367 366 OFFCURVE",
"438 403 CURVE",
"467 398 OFFCURVE",
"497 395 OFFCURVE",
"530 395 CURVE SMOOTH",
"658 395 OFFCURVE",
"759 427 OFFCURVE",
"832 491 CURVE SMOOTH",
"905 555 OFFCURVE",
"942 641 OFFCURVE",
"942 748 CURVE SMOOTH",
"942 843 OFFCURVE",
"907 920 OFFCURVE",
"870 967 CURVE",
"1073 990 LINE",
"1073 1096 LINE",
"694 1096 LINE",
"648 1109 OFFCURVE",
"596 1116 OFFCURVE",
"539 1116 CURVE SMOOTH"
);
},
{
closed = 1;
nodes = (
"738 25 OFFCURVE",
"807 14 OFFCURVE",
"844 -9 CURVE SMOOTH",
"881 -32 OFFCURVE",
"899 -74 OFFCURVE",
"899 -133 CURVE SMOOTH",
"899 -276 OFFCURVE",
"768 -365 OFFCURVE",
"489 -365 CURVE SMOOTH",
"302 -365 OFFCURVE",
"199 -303 OFFCURVE",
"199 -184 CURVE SMOOTH",
"199 -49 OFFCURVE",
"287 25 OFFCURVE",
"438 25 CURVE SMOOTH",
"637 25 LINE SMOOTH"
);
},
{
closed = 1;
nodes = (
"696 994 OFFCURVE",
"778 913 OFFCURVE",
"778 748 CURVE SMOOTH",
"778 591 OFFCURVE",
"697 512 OFFCURVE",
"535 512 CURVE SMOOTH",
"380 512 OFFCURVE",
"289 592 OFFCURVE",
"289 745 CURVE SMOOTH",
"289 910 OFFCURVE",
"376 994 OFFCURVE",
"532 994 CURVE SMOOTH"
);
}
);
width = 1122;
}
);
unicode = 0067;
},
{
glyphname = h;
lastChange = "2013-03-07 06:44:13 +0200";
layers = (
{
anchors = (
{
name = center;
position = "{629, 559}";
},
{
name = top;
position = "{629, 1118}";
}
);
layerId = "98F5E167-1CFF-4278-A065-7BF212AD30BE";
name = Regular;
paths = (
{
closed = 1;
nodes = (
"176 1556 LINE",
"176 0 LINE",
"342 0 LINE",
"342 573 LINE SMOOTH",
"342 716 OFFCURVE",
"368 818 OFFCURVE",
"421 881 CURVE SMOOTH",
"474 944 OFFCURVE",
"559 974 OFFCURVE",
"674 974 CURVE SMOOTH",
"847 974 OFFCURVE",
"926 888 OFFCURVE",
"926 709 CURVE SMOOTH",
"926 0 LINE",
"1092 0 LINE",
"1092 715 LINE SMOOTH",
"1092 991 OFFCURVE",
"958 1114 OFFCURVE",
"690 1114 CURVE SMOOTH",
"535 1114 OFFCURVE",
"409 1049 OFFCURVE",
"344 944 CURVE",
"334 944 LINE",
"339 980 OFFCURVE",
"342 1028 OFFCURVE",
"342 1085 CURVE SMOOTH",
"342 1556 LINE"
);
}
);
width = 1257;
}
);
unicode = 0068;
},
{
glyphname = i;
lastChange = "2013-03-07 06:44:13 +0200";
layers = (
{
layerId = "98F5E167-1CFF-4278-A065-7BF212AD30BE";
name = Regular;
paths = (
{
closed = 1;
nodes = (
"176 1096 LINE",
"176 0 LINE",
"342 0 LINE",
"342 1096 LINE"
);
},
{
closed = 1;
nodes = (
"204 1503 OFFCURVE",
"162 1469 OFFCURVE",
"162 1393 CURVE SMOOTH",
"162 1318 OFFCURVE",
"204 1282 OFFCURVE",
"260 1282 CURVE SMOOTH",
"313 1282 OFFCURVE",
"358 1318 OFFCURVE",
"358 1393 CURVE SMOOTH",
"358 1468 OFFCURVE",
"313 1503 OFFCURVE",
"260 1503 CURVE SMOOTH"
);
}
);
width = 518;
}
);
unicode = 0069;
},
{
glyphname = dotlessi;
lastChange = "2013-03-07 06:44:13 +0200";
layers = (
{
layerId = "98F5E167-1CFF-4278-A065-7BF212AD30BE";
name = Regular;
paths = (
{
closed = 1;
nodes = (
"176 1096 LINE",
"176 0 LINE",
"342 0 LINE",
"342 1096 LINE"
);
}
);
width = 518;
}
);
unicode = 0131;
},
{
glyphname = iacute;
lastChange = "2013-03-07 06:44:13 +0200";
layers = (
{
layerId = "98F5E167-1CFF-4278-A065-7BF212AD30BE";
name = Regular;
paths = (
{
closed = 1;
nodes = (
"176 1096 LINE",
"176 0 LINE",
"342 0 LINE",
"342 1096 LINE"
);
},
{
closed = 1;
nodes = (
"360 1569 LINE",
"317 1482 OFFCURVE",
"233 1349 OFFCURVE",
"169 1266 CURVE",
"169 1241 LINE",
"280 1241 LINE",
"365 1310 OFFCURVE",
"503 1461 OFFCURVE",
"562 1548 CURVE",
"562 1569 LINE"
);
}
);
width = 518;
}
);
unicode = 00ED;
},
{
glyphname = icircumflex;
lastChange = "2013-03-07 06:44:13 +0200";
layers = (
{
layerId = "98F5E167-1CFF-4278-A065-7BF212AD30BE";
name = Regular;
paths = (
{
closed = 1;
nodes = (
"175 1569 LINE",
"160 1542 OFFCURVE",
"135 1507 OFFCURVE",
"101 1464 CURVE SMOOTH",
"67 1421 OFFCURVE",
"8 1355 OFFCURVE",
"-77 1264 CURVE",
"-77 1241 LINE",
"38 1241 LINE",
"93 1276 OFFCURVE",
"166 1338 OFFCURVE",
"257 1427 CURVE",
"346 1340 OFFCURVE",
"419 1278 OFFCURVE",
"478 1241 CURVE",
"597 1241 LINE",
"597 1264 LINE",
"514 1351 OFFCURVE",
"454 1416 OFFCURVE",
"418 1461 CURVE SMOOTH",
"381 1505 OFFCURVE",
"356 1541 OFFCURVE",
"341 1569 CURVE"
);
},
{
closed = 1;
nodes = (
"176 1096 LINE",
"176 0 LINE",
"342 0 LINE",
"342 1096 LINE"
);
}
);
width = 518;
}
);
unicode = 00EE;
},
{
glyphname = idieresis;
lastChange = "2013-03-07 06:44:13 +0200";
layers = (
{
layerId = "98F5E167-1CFF-4278-A065-7BF212AD30BE";
name = Regular;
paths = (
{
closed = 1;
nodes = (
"176 1096 LINE",
"176 0 LINE",
"342 0 LINE",
"342 1096 LINE"
);
},
{
closed = 1;
nodes = (
"21 1491 OFFCURVE",
"-20 1462 OFFCURVE",
"-20 1393 CURVE SMOOTH",
"-20 1326 OFFCURVE",
"21 1294 OFFCURVE",
"70 1294 CURVE SMOOTH",
"121 1294 OFFCURVE",
"163 1326 OFFCURVE",
"163 1393 CURVE SMOOTH",
"163 1462 OFFCURVE",
"121 1491 OFFCURVE",
"70 1491 CURVE SMOOTH"
);
},
{
closed = 1;
nodes = (
"402 1491 OFFCURVE",
"361 1462 OFFCURVE",
"361 1393 CURVE SMOOTH",
"361 1326 OFFCURVE",
"402 1294 OFFCURVE",
"451 1294 CURVE SMOOTH",
"500 1294 OFFCURVE",
"543 1326 OFFCURVE",
"543 1393 CURVE SMOOTH",
"543 1462 OFFCURVE",
"500 1491 OFFCURVE",
"451 1491 CURVE SMOOTH"
);
}
);
width = 518;
}
);
unicode = 00EF;
},
{
glyphname = igrave;
lastChange = "2013-03-07 06:44:13 +0200";
layers = (
{
layerId = "98F5E167-1CFF-4278-A065-7BF212AD30BE";
name = Regular;
paths = (
{
closed = 1;
nodes = (
"176 1096 LINE",
"176 0 LINE",
"342 0 LINE",
"342 1096 LINE"
);
},
{
closed = 1;
nodes = (
"-38 1569 LINE",
"-38 1548 LINE",
"15 1464 OFFCURVE",
"158 1310 OFFCURVE",
"245 1241 CURVE",
"355 1241 LINE",
"355 1266 LINE",
"296 1337 OFFCURVE",
"208 1477 OFFCURVE",
"165 1569 CURVE"
);
}
);
width = 518;
}
);
unicode = 00EC;
},
{
glyphname = j;
lastChange = "2013-03-07 06:44:13 +0200";
layers = (
{
layerId = "98F5E167-1CFF-4278-A065-7BF212AD30BE";
name = Regular;
paths = (
{
closed = 1;
nodes = (
"176 1096 LINE",
"176 -180 LINE SMOOTH",
"176 -296 OFFCURVE",
"129 -352 OFFCURVE",
"25 -352 CURVE SMOOTH",
"-20 -352 OFFCURVE",
"-65 -345 OFFCURVE",
"-111 -332 CURVE",
"-111 -467 LINE",
"-72 -484 OFFCURVE",
"-20 -492 OFFCURVE",
"43 -492 CURVE SMOOTH",
"242 -492 OFFCURVE",
"342 -384 OFFCURVE",
"342 -168 CURVE SMOOTH",
"342 1096 LINE"
);
},
{
closed = 1;
nodes = (
"204 1503 OFFCURVE",
"162 1469 OFFCURVE",
"162 1393 CURVE SMOOTH",
"162 1318 OFFCURVE",
"204 1282 OFFCURVE",
"260 1282 CURVE SMOOTH",
"313 1282 OFFCURVE",
"358 1318 OFFCURVE",
"358 1393 CURVE SMOOTH",
"358 1468 OFFCURVE",
"313 1503 OFFCURVE",
"260 1503 CURVE SMOOTH"
);
}
);
width = 518;
}
);
unicode = 006A;
},
{
glyphname = k;
lastChange = "2013-03-07 06:44:13 +0200";
layers = (
{
anchors = (
{
name = bottom;
position = "{538, 0}";
}
);
layerId = "98F5E167-1CFF-4278-A065-7BF212AD30BE";
name = Regular;
paths = (
{
closed = 1;
nodes = (
"176 1556 LINE",
"176 0 LINE",
"340 0 LINE",
"340 410 LINE",
"465 518 LINE",
"852 0 LINE",
"1053 0 LINE",
"578 629 LINE",
"1022 1096 LINE",
"825 1096 LINE",
"471 721 LINE SMOOTH",
"412 655 OFFCURVE",
"369 602 OFFCURVE",
"340 561 CURVE",
"332 561 LINE",
"337 638 OFFCURVE",
"340 694 OFFCURVE",
"340 731 CURVE SMOOTH",
"340 1556 LINE"
);
}
);
width = 1075;
}
);
unicode = 006B;
},
{
glyphname = l;
lastChange = "2013-03-07 06:44:13 +0200";
layers = (
{
anchors = (
{
name = bottom;
position = "{259, 0}";
},
{
name = top;
position = "{259, 1118}";
},
{
name = topright;
position = "{498, 1118}";
}
);
layerId = "98F5E167-1CFF-4278-A065-7BF212AD30BE";
name = Regular;
paths = (
{
closed = 1;
nodes = (
"176 1556 LINE",
"176 0 LINE",
"342 0 LINE",
"342 1556 LINE"
);
}
);
width = 518;
}
);
unicode = 006C;
},
{
glyphname = m;
lastChange = "2013-03-07 06:44:13 +0200";
layers = (
{
layerId = "98F5E167-1CFF-4278-A065-7BF212AD30BE";
name = Regular;
paths = (
{
closed = 1;
nodes = (
"1209 1116 OFFCURVE",
"1079 1045 OFFCURVE",
"1014 930 CURVE",
"1006 930 LINE",
"953 1054 OFFCURVE",
"841 1116 OFFCURVE",
"670 1116 CURVE SMOOTH",
"529 1116 OFFCURVE",
"409 1053 OFFCURVE",
"346 946 CURVE",
"338 946 LINE",
"311 1096 LINE",
"176 1096 LINE",
"176 0 LINE",
"342 0 LINE",
"342 575 LINE SMOOTH",
"342 717 OFFCURVE",
"366 819 OFFCURVE",
"414 881 CURVE SMOOTH",
"463 944 OFFCURVE",
"539 974 OFFCURVE",
"643 974 CURVE SMOOTH",
"802 974 OFFCURVE",
"874 888 OFFCURVE",
"874 713 CURVE SMOOTH",
"874 0 LINE",
"1040 0 LINE",
"1040 612 LINE SMOOTH",
"1040 859 OFFCURVE",
"1136 974 OFFCURVE",
"1343 974 CURVE SMOOTH",
"1500 974 OFFCURVE",
"1573 888 OFFCURVE",
"1573 713 CURVE SMOOTH",
"1573 0 LINE",
"1739 0 LINE",
"1739 715 LINE SMOOTH",
"1739 994 OFFCURVE",
"1616 1116 OFFCURVE",
"1368 1116 CURVE SMOOTH"
);
}
);
width = 1905;
}
);
unicode = 006D;
},
{
glyphname = n;
lastChange = "2013-03-07 06:44:13 +0200";
layers = (
{
anchors = (
{
name = bottom;
position = "{629, 0}";
},
{
name = top;
position = "{629, 1118}";
}
);
layerId = "98F5E167-1CFF-4278-A065-7BF212AD30BE";
name = Regular;
paths = (
{
closed = 1;
nodes = (
"543 1116 OFFCURVE",
"414 1054 OFFCURVE",
"346 946 CURVE",
"338 946 LINE",
"311 1096 LINE",
"176 1096 LINE",
"176 0 LINE",
"342 0 LINE",
"342 575 LINE SMOOTH",
"342 718 OFFCURVE",
"369 820 OFFCURVE",
"422 882 CURVE SMOOTH",
"475 944 OFFCURVE",
"559 974 OFFCURVE",
"674 974 CURVE SMOOTH",
"847 974 OFFCURVE",
"926 888 OFFCURVE",
"926 709 CURVE SMOOTH",
"926 0 LINE",
"1092 0 LINE",
"1092 715 LINE SMOOTH",
"1092 994 OFFCURVE",
"958 1116 OFFCURVE",
"694 1116 CURVE SMOOTH"
);
}
);
width = 1257;
}
);
unicode = 006E;
},
{
glyphname = ntilde;
lastChange = "2013-03-07 06:44:13 +0200";
layers = (
{
layerId = "98F5E167-1CFF-4278-A065-7BF212AD30BE";
name = Regular;
paths = (
{
closed = 1;
nodes = (
"543 1116 OFFCURVE",
"414 1054 OFFCURVE",
"346 946 CURVE",
"338 946 LINE",
"311 1096 LINE",
"176 1096 LINE",
"176 0 LINE",
"342 0 LINE",
"342 575 LINE SMOOTH",
"342 860 OFFCURVE",
"445 975 OFFCURVE",
"674 975 CURVE SMOOTH",
"847 975 OFFCURVE",
"926 888 OFFCURVE",
"926 709 CURVE SMOOTH",
"926 0 LINE",
"1092 0 LINE",
"1092 715 LINE SMOOTH",
"1092 995 OFFCURVE",
"958 1116 OFFCURVE",
"694 1116 CURVE SMOOTH"
);
},
{
closed = 1;
nodes = (
"923 1501 LINE",
"903 1418 OFFCURVE",
"876 1380 OFFCURVE",
"811 1380 CURVE SMOOTH",
"768 1380 OFFCURVE",
"720 1410 OFFCURVE",
"668 1440 CURVE SMOOTH",
"616 1470 OFFCURVE",
"558 1499 OFFCURVE",
"497 1499 CURVE SMOOTH",
"376 1499 OFFCURVE",
"295 1402 OFFCURVE",
"278 1241 CURVE",
"376 1241 LINE",
"395 1322 OFFCURVE",
"424 1362 OFFCURVE",
"491 1362 CURVE SMOOTH",
"536 1362 OFFCURVE",
"585 1333 OFFCURVE",
"638 1303 CURVE SMOOTH",
"690 1273 OFFCURVE",
"745 1243 OFFCURVE",
"802 1243 CURVE SMOOTH",
"927 1243 OFFCURVE",
"1005 1340 OFFCURVE",
"1022 1501 CURVE"
);
}
);
width = 1257;
}
);
unicode = 00F1;
},
{
glyphname = o;
lastChange = "2013-03-07 06:44:13 +0200";
layers = (
{
anchors = (
{
name = top;
position = "{619, 1118}";
}
);
layerId = "98F5E167-1CFF-4278-A065-7BF212AD30BE";
name = Regular;
paths = (
{
closed = 1;
nodes = (
"462 1116 OFFCURVE",
"338 1066 OFFCURVE",
"249 966 CURVE SMOOTH",
"160 867 OFFCURVE",
"115 728 OFFCURVE",
"115 549 CURVE SMOOTH",
"110 203 OFFCURVE",
"320 -24 OFFCURVE",
"614 -20 CURVE SMOOTH",
"773 -20 OFFCURVE",
"897 30 OFFCURVE",
"986 130 CURVE SMOOTH",
"1077 231 OFFCURVE",
"1122 370 OFFCURVE",
"1122 549 CURVE SMOOTH",
"1122 723 OFFCURVE",
"1077 861 OFFCURVE",
"985 963 CURVE SMOOTH",
"896 1065 OFFCURVE",
"774 1116 OFFCURVE",
"621 1116 CURVE SMOOTH"
);
},
{
closed = 1;
nodes = (
"836 974 OFFCURVE",
"950 828 OFFCURVE",
"950 549 CURVE SMOOTH",
"950 268 OFFCURVE",
"835 119 OFFCURVE",
"618 119 CURVE SMOOTH",
"401 119 OFFCURVE",
"287 269 OFFCURVE",
"287 549 CURVE SMOOTH",
"287 832 OFFCURVE",
"399 974 OFFCURVE",
"616 974 CURVE SMOOTH"
);
}
);
width = 1237;
}
);
unicode = 006F;
},
{
glyphname = oacute;
lastChange = "2013-03-07 06:44:13 +0200";
layers = (
{
layerId = "98F5E167-1CFF-4278-A065-7BF212AD30BE";
name = Regular;
paths = (
{
closed = 1;
nodes = (
"304 1116 OFFCURVE",
"115 906 OFFCURVE",
"115 549 CURVE SMOOTH",
"115 434 OFFCURVE",
"136 333 OFFCURVE",
"177 247 CURVE SMOOTH",
"260 75 OFFCURVE",
"418 -20 OFFCURVE",
"614 -20 CURVE SMOOTH",
"931 -20 OFFCURVE",
"1122 192 OFFCURVE",
"1122 549 CURVE SMOOTH",
"1122 897 OFFCURVE",
"928 1116 OFFCURVE",
"621 1116 CURVE SMOOTH"
);
},
{
closed = 1;
nodes = (
"836 975 OFFCURVE",
"950 828 OFFCURVE",
"950 549 CURVE SMOOTH",
"950 268 OFFCURVE",
"835 119 OFFCURVE",
"618 119 CURVE SMOOTH",
"401 119 OFFCURVE",
"287 269 OFFCURVE",
"287 549 CURVE SMOOTH",
"287 832 OFFCURVE",
"399 975 OFFCURVE",
"616 975 CURVE SMOOTH"
);
},
{
closed = 1;
nodes = (
"670 1569 LINE",
"627 1482 OFFCURVE",
"543 1349 OFFCURVE",
"479 1266 CURVE",
"479 1241 LINE",
"590 1241 LINE",
"675 1310 OFFCURVE",
"813 1461 OFFCURVE",
"872 1548 CURVE",
"872 1569 LINE"
);
}
);
width = 1237;
}
);
unicode = 00F3;
},
{
glyphname = ocircumflex;
lastChange = "2013-03-07 06:44:13 +0200";
layers = (
{
layerId = "98F5E167-1CFF-4278-A065-7BF212AD30BE";
name = Regular;
paths = (
{
closed = 1;
nodes = (
"304 1116 OFFCURVE",
"115 906 OFFCURVE",
"115 549 CURVE SMOOTH",
"115 434 OFFCURVE",
"136 333 OFFCURVE",
"177 247 CURVE SMOOTH",
"260 75 OFFCURVE",
"418 -20 OFFCURVE",
"614 -20 CURVE SMOOTH",
"931 -20 OFFCURVE",
"1122 192 OFFCURVE",
"1122 549 CURVE SMOOTH",
"1122 897 OFFCURVE",
"928 1116 OFFCURVE",
"621 1116 CURVE SMOOTH"
);
},
{
closed = 1;
nodes = (
"836 975 OFFCURVE",
"950 828 OFFCURVE",
"950 549 CURVE SMOOTH",
"950 268 OFFCURVE",
"835 119 OFFCURVE",
"618 119 CURVE SMOOTH",
"401 119 OFFCURVE",
"287 269 OFFCURVE",
"287 549 CURVE SMOOTH",
"287 832 OFFCURVE",
"399 975 OFFCURVE",
"616 975 CURVE SMOOTH"
);
},
{
closed = 1;
nodes = (
"534 1569 LINE",
"519 1542 OFFCURVE",
"494 1507 OFFCURVE",
"460 1464 CURVE SMOOTH",
"426 1421 OFFCURVE",
"367 1355 OFFCURVE",
"282 1264 CURVE",
"282 1241 LINE",
"397 1241 LINE",
"452 1276 OFFCURVE",
"525 1338 OFFCURVE",
"616 1427 CURVE",
"705 1340 OFFCURVE",
"778 1278 OFFCURVE",
"837 1241 CURVE",
"956 1241 LINE",
"956 1264 LINE",
"873 1351 OFFCURVE",
"813 1416 OFFCURVE",
"777 1461 CURVE SMOOTH",
"740 1505 OFFCURVE",
"715 1541 OFFCURVE",
"700 1569 CURVE"
);
}
);
width = 1237;
}
);
unicode = 00F4;
},
{
glyphname = odieresis;
lastChange = "2013-03-07 06:44:13 +0200";
layers = (
{
layerId = "98F5E167-1CFF-4278-A065-7BF212AD30BE";
name = Regular;
paths = (
{
closed = 1;
nodes = (
"304 1116 OFFCURVE",
"115 906 OFFCURVE",
"115 549 CURVE SMOOTH",
"115 434 OFFCURVE",
"136 333 OFFCURVE",
"177 247 CURVE SMOOTH",
"260 75 OFFCURVE",
"418 -20 OFFCURVE",
"614 -20 CURVE SMOOTH",
"931 -20 OFFCURVE",
"1122 192 OFFCURVE",
"1122 549 CURVE SMOOTH",
"1122 897 OFFCURVE",
"928 1116 OFFCURVE",
"621 1116 CURVE SMOOTH"
);
},
{
closed = 1;
nodes = (
"836 975 OFFCURVE",
"950 828 OFFCURVE",
"950 549 CURVE SMOOTH",
"950 268 OFFCURVE",
"835 119 OFFCURVE",
"618 119 CURVE SMOOTH",
"401 119 OFFCURVE",
"287 269 OFFCURVE",
"287 549 CURVE SMOOTH",
"287 832 OFFCURVE",
"399 975 OFFCURVE",
"616 975 CURVE SMOOTH"
);
},
{
closed = 1;
nodes = (
"377 1491 OFFCURVE",
"336 1462 OFFCURVE",
"336 1393 CURVE SMOOTH",
"336 1326 OFFCURVE",
"377 1294 OFFCURVE",
"426 1294 CURVE SMOOTH",
"477 1294 OFFCURVE",
"519 1326 OFFCURVE",
"519 1393 CURVE SMOOTH",
"519 1462 OFFCURVE",
"477 1491 OFFCURVE",
"426 1491 CURVE SMOOTH"
);
},
{
closed = 1;
nodes = (
"758 1491 OFFCURVE",
"717 1462 OFFCURVE",
"717 1393 CURVE SMOOTH",
"717 1326 OFFCURVE",
"758 1294 OFFCURVE",
"807 1294 CURVE SMOOTH",
"856 1294 OFFCURVE",
"899 1326 OFFCURVE",
"899 1393 CURVE SMOOTH",
"899 1462 OFFCURVE",
"856 1491 OFFCURVE",
"807 1491 CURVE SMOOTH"
);
}
);
width = 1237;
}
);
unicode = 00F6;
},
{
glyphname = ograve;
lastChange = "2013-03-07 06:44:13 +0200";
layers = (
{
layerId = "98F5E167-1CFF-4278-A065-7BF212AD30BE";
name = Regular;
paths = (
{
closed = 1;
nodes = (
"304 1116 OFFCURVE",
"115 906 OFFCURVE",
"115 549 CURVE SMOOTH",
"115 434 OFFCURVE",
"136 333 OFFCURVE",
"177 247 CURVE SMOOTH",
"260 75 OFFCURVE",
"418 -20 OFFCURVE",
"614 -20 CURVE SMOOTH",
"931 -20 OFFCURVE",
"1122 192 OFFCURVE",
"1122 549 CURVE SMOOTH",
"1122 897 OFFCURVE",
"928 1116 OFFCURVE",
"621 1116 CURVE SMOOTH"
);
},
{
closed = 1;
nodes = (
"836 975 OFFCURVE",
"950 828 OFFCURVE",
"950 549 CURVE SMOOTH",
"950 268 OFFCURVE",
"835 119 OFFCURVE",
"618 119 CURVE SMOOTH",
"401 119 OFFCURVE",
"287 269 OFFCURVE",
"287 549 CURVE SMOOTH",
"287 832 OFFCURVE",
"399 975 OFFCURVE",
"616 975 CURVE SMOOTH"
);
},
{
closed = 1;
nodes = (
"349 1569 LINE",
"349 1548 LINE",
"402 1464 OFFCURVE",
"545 1310 OFFCURVE",
"632 1241 CURVE",
"742 1241 LINE",
"742 1266 LINE",
"683 1337 OFFCURVE",
"595 1477 OFFCURVE",
"552 1569 CURVE"
);
}
);
width = 1237;
}
);
unicode = 00F2;
},
{
glyphname = oslash;
lastChange = "2013-03-07 06:44:13 +0200";
layers = (
{
layerId = "98F5E167-1CFF-4278-A065-7BF212AD30BE";
name = Regular;
paths = (
{
closed = 1;
nodes = (
"891 1040 LINE",
"814 1091 OFFCURVE",
"724 1116 OFFCURVE",
"621 1116 CURVE SMOOTH",
"304 1116 OFFCURVE",
"115 906 OFFCURVE",
"115 549 CURVE SMOOTH",
"115 378 OFFCURVE",
"158 242 OFFCURVE",
"244 141 CURVE",
"150 10 LINE",
"264 -68 LINE",
"348 49 LINE",
"423 3 OFFCURVE",
"511 -20 OFFCURVE",
"614 -20 CURVE SMOOTH",
"931 -20 OFFCURVE",
"1122 192 OFFCURVE",
"1122 549 CURVE SMOOTH",
"1122 715 OFFCURVE",
"1080 849 OFFCURVE",
"995 950 CURVE",
"1092 1083 LINE",
"975 1159 LINE"
);
},
{
closed = 1;
nodes = (
"933 746 OFFCURVE",
"950 658 OFFCURVE",
"950 549 CURVE SMOOTH",
"950 268 OFFCURVE",
"835 119 OFFCURVE",
"618 119 CURVE SMOOTH",
"543 119 OFFCURVE",
"481 136 OFFCURVE",
"434 170 CURVE",
"899 813 LINE"
);
},
{
closed = 1;
nodes = (
"692 975 OFFCURVE",
"755 957 OFFCURVE",
"805 922 CURVE",
"340 276 LINE",
"305 344 OFFCURVE",
"287 435 OFFCURVE",
"287 549 CURVE SMOOTH",
"287 832 OFFCURVE",
"399 975 OFFCURVE",
"616 975 CURVE SMOOTH"
);
}
);
width = 1237;
}
);
unicode = 00F8;
},
{
glyphname = otilde;
lastChange = "2013-03-07 06:44:13 +0200";
layers = (
{
layerId = "98F5E167-1CFF-4278-A065-7BF212AD30BE";
name = Regular;
paths = (
{
closed = 1;
nodes = (
"304 1116 OFFCURVE",
"115 906 OFFCURVE",
"115 549 CURVE SMOOTH",
"115 434 OFFCURVE",
"136 333 OFFCURVE",
"177 247 CURVE SMOOTH",
"260 75 OFFCURVE",
"418 -20 OFFCURVE",
"614 -20 CURVE SMOOTH",
"931 -20 OFFCURVE",
"1122 192 OFFCURVE",
"1122 549 CURVE SMOOTH",
"1122 897 OFFCURVE",
"928 1116 OFFCURVE",
"621 1116 CURVE SMOOTH"
);
},
{
closed = 1;
nodes = (
"836 975 OFFCURVE",
"950 828 OFFCURVE",
"950 549 CURVE SMOOTH",
"950 268 OFFCURVE",
"835 119 OFFCURVE",
"618 119 CURVE SMOOTH",
"401 119 OFFCURVE",
"287 269 OFFCURVE",
"287 549 CURVE SMOOTH",
"287 832 OFFCURVE",
"399 975 OFFCURVE",
"616 975 CURVE SMOOTH"
);
},
{
closed = 1;
nodes = (
"894 1501 LINE",
"874 1418 OFFCURVE",
"847 1380 OFFCURVE",
"782 1380 CURVE SMOOTH",
"739 1380 OFFCURVE",
"691 1410 OFFCURVE",
"639 1440 CURVE SMOOTH",
"587 1470 OFFCURVE",
"529 1499 OFFCURVE",
"468 1499 CURVE SMOOTH",
"347 1499 OFFCURVE",
"266 1402 OFFCURVE",
"249 1241 CURVE",
"347 1241 LINE",
"366 1322 OFFCURVE",
"395 1362 OFFCURVE",
"462 1362 CURVE SMOOTH",
"507 1362 OFFCURVE",
"556 1333 OFFCURVE",
"609 1303 CURVE SMOOTH",
"661 1273 OFFCURVE",
"716 1243 OFFCURVE",
"773 1243 CURVE SMOOTH",
"898 1243 OFFCURVE",
"976 1340 OFFCURVE",
"993 1501 CURVE"
);
}
);
width = 1237;
}
);
unicode = 00F5;
},
{
glyphname = oe;
lastChange = "2013-03-07 06:44:13 +0200";
layers = (
{
layerId = "98F5E167-1CFF-4278-A065-7BF212AD30BE";
name = Regular;
paths = (
{
closed = 1;
nodes = (
"1216 1114 OFFCURVE",
"1085 1030 OFFCURVE",
"1008 881 CURVE",
"925 1033 OFFCURVE",
"785 1114 OFFCURVE",
"610 1114 CURVE SMOOTH",
"297 1114 OFFCURVE",
"113 902 OFFCURVE",
"113 549 CURVE SMOOTH",
"113 197 OFFCURVE",
"307 -20 OFFCURVE",
"604 -20 CURVE SMOOTH",
"787 -20 OFFCURVE",
"929 60 OFFCURVE",
"1012 215 CURVE",
"1095 58 OFFCURVE",
"1235 -20 OFFCURVE",
"1430 -20 CURVE SMOOTH",
"1569 -20 OFFCURVE",
"1657 -1 OFFCURVE",
"1774 51 CURVE",
"1774 199 LINE",
"1658 147 OFFCURVE",
"1557 125 OFFCURVE",
"1432 125 CURVE SMOOTH",
"1212 125 OFFCURVE",
"1099 256 OFFCURVE",
"1094 518 CURVE",
"1823 518 LINE",
"1823 623 LINE SMOOTH",
"1823 924 OFFCURVE",
"1652 1114 OFFCURVE",
"1384 1114 CURVE SMOOTH"
);
},
{
closed = 1;
nodes = (
"822 975 OFFCURVE",
"922 836 OFFCURVE",
"922 541 CURVE SMOOTH",
"922 262 OFFCURVE",
"823 119 OFFCURVE",
"606 119 CURVE SMOOTH",
"383 119 OFFCURVE",
"287 268 OFFCURVE",
"287 549 CURVE SMOOTH",
"287 829 OFFCURVE",
"381 975 OFFCURVE",
"602 975 CURVE SMOOTH"
);
},
{
closed = 1;
nodes = (
"1553 975 OFFCURVE",
"1642 864 OFFCURVE",
"1642 653 CURVE",
"1098 653 LINE",
"1114 864 OFFCURVE",
"1213 975 OFFCURVE",
"1382 975 CURVE SMOOTH"
);
}
);
width = 1929;
}
);
unicode = 0153;
},
{
glyphname = p;
lastChange = "2013-03-07 06:44:13 +0200";
layers = (
{
layerId = "98F5E167-1CFF-4278-A065-7BF212AD30BE";
name = Regular;
paths = (
{
closed = 1;
nodes = (
"539 1116 OFFCURVE",
"427 1066 OFFCURVE",
"342 946 CURVE",
"334 946 LINE",
"311 1096 LINE",
"176 1096 LINE",
"176 -492 LINE",
"342 -492 LINE",
"342 -41 LINE SMOOTH",
"342 16 OFFCURVE",
"338 77 OFFCURVE",
"330 141 CURVE",
"342 141 LINE",
"422 32 OFFCURVE",
"543 -20 OFFCURVE",
"686 -20 CURVE SMOOTH",
"829 -20 OFFCURVE",
"940 30 OFFCURVE",
"1020 129 CURVE SMOOTH",
"1101 229 OFFCURVE",
"1141 369 OFFCURVE",
"1141 549 CURVE SMOOTH",
"1141 728 OFFCURVE",
"1101 868 OFFCURVE",
"1022 967 CURVE SMOOTH",
"943 1066 OFFCURVE",
"831 1116 OFFCURVE",
"686 1116 CURVE SMOOTH"
);
},
{
closed = 1;
nodes = (
"857 974 OFFCURVE",
"968 824 OFFCURVE",
"968 551 CURVE SMOOTH",
"968 416 OFFCURVE",
"942 311 OFFCURVE",
"888 234 CURVE SMOOTH",
"835 157 OFFCURVE",
"761 119 OFFCURVE",
"666 119 CURVE SMOOTH",
"553 119 OFFCURVE",
"470 152 OFFCURVE",
"419 218 CURVE SMOOTH",
"368 285 OFFCURVE",
"342 395 OFFCURVE",
"342 549 CURVE SMOOTH",
"342 586 LINE SMOOTH",
"343 721 OFFCURVE",
"369 820 OFFCURVE",
"419 882 CURVE SMOOTH",
"469 944 OFFCURVE",
"550 974 OFFCURVE",
"662 974 CURVE SMOOTH"
);
}
);
width = 1255;
}
);
unicode = 0070;
},
{
glyphname = thorn;
lastChange = "2013-03-07 06:44:13 +0200";
layers = (
{
layerId = "98F5E167-1CFF-4278-A065-7BF212AD30BE";
name = Regular;
paths = (
{
closed = 1;
nodes = (
"176 1556 LINE",
"176 -492 LINE",
"342 -492 LINE",
"342 -33 LINE SMOOTH",
"342 9 OFFCURVE",
"339 56 OFFCURVE",
"334 107 CURVE SMOOTH",
"330 141 LINE",
"342 141 LINE",
"423 34 OFFCURVE",
"538 -20 OFFCURVE",
"686 -20 CURVE SMOOTH",
"971 -20 OFFCURVE",
"1141 192 OFFCURVE",
"1141 549 CURVE SMOOTH",
"1141 905 OFFCURVE",
"973 1116 OFFCURVE",
"686 1116 CURVE SMOOTH",
"545 1116 OFFCURVE",
"432 1067 OFFCURVE",
"344 948 CURVE",
"336 948 LINE",
"340 1008 OFFCURVE",
"342 1055 OFFCURVE",
"342 1090 CURVE SMOOTH",
"342 1556 LINE"
);
},
{
closed = 1;
nodes = (
"873 975 OFFCURVE",
"969 838 OFFCURVE",
"969 551 CURVE SMOOTH",
"969 263 OFFCURVE",
"868 119 OFFCURVE",
"666 119 CURVE SMOOTH",
"439 119 OFFCURVE",
"342 241 OFFCURVE",
"342 549 CURVE SMOOTH",
"342 590 LINE SMOOTH",
"345 858 OFFCURVE",
"440 975 OFFCURVE",
"664 975 CURVE SMOOTH"
);
}
);
width = 1255;
}
);
unicode = 00FE;
},
{
glyphname = q;
lastChange = "2013-03-07 06:44:13 +0200";
layers = (
{
layerId = "98F5E167-1CFF-4278-A065-7BF212AD30BE";
name = Regular;
paths = (
{
closed = 1;
nodes = (
"426 1116 OFFCURVE",
"315 1066 OFFCURVE",
"235 965 CURVE SMOOTH",
"155 864 OFFCURVE",
"115 724 OFFCURVE",
"115 545 CURVE SMOOTH",
"115 367 OFFCURVE",
"155 228 OFFCURVE",
"234 129 CURVE SMOOTH",
"313 30 OFFCURVE",
"424 -20 OFFCURVE",
"565 -20 CURVE SMOOTH",
"719 -20 OFFCURVE",
"834 36 OFFCURVE",
"911 147 CURVE",
"924 147 LINE",
"917 99 OFFCURVE",
"913 44 OFFCURVE",
"913 -23 CURVE SMOOTH",
"913 -492 LINE",
"1079 -492 LINE",
"1079 1096 LINE",
"948 1096 LINE",
"924 946 LINE",
"915 946 LINE",
"834 1059 OFFCURVE",
"719 1116 OFFCURVE",
"569 1116 CURVE SMOOTH"
);
},
{
closed = 1;
nodes = (
"701 976 OFFCURVE",
"783 943 OFFCURVE",
"835 876 CURVE SMOOTH",
"887 809 OFFCURVE",
"913 698 OFFCURVE",
"913 545 CURVE SMOOTH",
"913 508 LINE SMOOTH",
"910 367 OFFCURVE",
"883 267 OFFCURVE",
"832 208 CURVE SMOOTH",
"781 149 OFFCURVE",
"701 119 OFFCURVE",
"590 119 CURVE SMOOTH",
"390 119 OFFCURVE",
"287 267 OFFCURVE",
"287 543 CURVE SMOOTH",
"287 819 OFFCURVE",
"393 976 OFFCURVE",
"588 976 CURVE SMOOTH"
);
}
);
width = 1255;
}
);
unicode = 0071;
},
{
glyphname = r;
lastChange = "2013-03-07 06:44:13 +0200";
layers = (
{
anchors = (
{
name = bottom;
position = "{418, 0}";
},
{
name = top;
position = "{418, 1118}";
}
);
layerId = "98F5E167-1CFF-4278-A065-7BF212AD30BE";
name = Regular;
paths = (
{
closed = 1;
nodes = (
"539 1116 OFFCURVE",
"421 1036 OFFCURVE",
"340 893 CURVE",
"332 893 LINE",
"313 1096 LINE",
"176 1096 LINE",
"176 0 LINE",
"342 0 LINE",
"342 588 LINE SMOOTH",
"342 695 OFFCURVE",
"373 785 OFFCURVE",
"436 857 CURVE SMOOTH",
"499 929 OFFCURVE",
"575 965 OFFCURVE",
"664 965 CURVE SMOOTH",
"699 965 OFFCURVE",
"739 960 OFFCURVE",
"784 950 CURVE",
"807 1104 LINE",
"768 1112 OFFCURVE",
"725 1116 OFFCURVE",
"676 1116 CURVE SMOOTH"
);
}
);
width = 836;
}
);
unicode = 0072;
},
{
glyphname = s;
lastChange = "2013-03-07 06:44:13 +0200";
layers = (
{
anchors = (
{
name = bottom;
position = "{488, 0}";
},
{
name = top;
position = "{488, 1118}";
}
);
layerId = "98F5E167-1CFF-4278-A065-7BF212AD30BE";
name = Regular;
paths = (
{
closed = 1;
nodes = (
"387 1116 OFFCURVE",
"288 1090 OFFCURVE",
"215 1038 CURVE SMOOTH",
"142 986 OFFCURVE",
"106 916 OFFCURVE",
"106 827 CURVE SMOOTH",
"106 777 OFFCURVE",
"116 734 OFFCURVE",
"137 698 CURVE SMOOTH",
"158 662 OFFCURVE",
"190 630 OFFCURVE",
"233 601 CURVE SMOOTH",
"276 573 OFFCURVE",
"349 540 OFFCURVE",
"451 502 CURVE SMOOTH",
"558 461 OFFCURVE",
"630 425 OFFCURVE",
"667 394 CURVE SMOOTH",
"704 364 OFFCURVE",
"723 328 OFFCURVE",
"723 285 CURVE SMOOTH",
"723 172 OFFCURVE",
"626 117 OFFCURVE",
"453 117 CURVE SMOOTH",
"341 117 OFFCURVE",
"214 150 OFFCURVE",
"109 203 CURVE",
"109 49 LINE",
"190 3 OFFCURVE",
"304 -20 OFFCURVE",
"449 -20 CURVE SMOOTH",
"586 -20 OFFCURVE",
"693 8 OFFCURVE",
"769 63 CURVE SMOOTH",
"845 118 OFFCURVE",
"883 197 OFFCURVE",
"883 299 CURVE SMOOTH",
"883 372 OFFCURVE",
"860 432 OFFCURVE",
"814 480 CURVE SMOOTH",
"769 528 OFFCURVE",
"681 576 OFFCURVE",
"551 623 CURVE SMOOTH",
"456 658 OFFCURVE",
"392 685 OFFCURVE",
"359 704 CURVE SMOOTH",
"292 741 OFFCURVE",
"264 779 OFFCURVE",
"264 838 CURVE SMOOTH",
"264 925 OFFCURVE",
"345 976 OFFCURVE",
"502 976 CURVE SMOOTH",
"591 976 OFFCURVE",
"691 954 OFFCURVE",
"801 909 CURVE",
"860 1044 LINE",
"747 1092 OFFCURVE",
"632 1116 OFFCURVE",
"514 1116 CURVE SMOOTH"
);
}
);
width = 976;
}
);
unicode = 0073;
},
{
glyphname = scaron;
lastChange = "2013-03-07 06:44:13 +0200";
layers = (
{
layerId = "98F5E167-1CFF-4278-A065-7BF212AD30BE";
name = Regular;
paths = (
{
closed = 1;
nodes = (
"261 1116 OFFCURVE",
"106 1006 OFFCURVE",
"106 827 CURVE SMOOTH",
"106 727 OFFCURVE",
"148 658 OFFCURVE",
"234 602 CURVE SMOOTH",
"277 573 OFFCURVE",
"349 540 OFFCURVE",
"451 502 CURVE SMOOTH",
"558 461 OFFCURVE",
"631 425 OFFCURVE",
"668 395 CURVE SMOOTH",
"705 364 OFFCURVE",
"723 328 OFFCURVE",
"723 285 CURVE SMOOTH",
"723 172 OFFCURVE",
"626 117 OFFCURVE",
"453 117 CURVE SMOOTH",
"341 117 OFFCURVE",
"214 150 OFFCURVE",
"109 203 CURVE",
"109 49 LINE",
"190 3 OFFCURVE",
"304 -20 OFFCURVE",
"449 -20 CURVE SMOOTH",
"724 -20 OFFCURVE",
"883 95 OFFCURVE",
"883 299 CURVE SMOOTH",
"883 444 OFFCURVE",
"811 528 OFFCURVE",
"551 623 CURVE SMOOTH",
"456 658 OFFCURVE",
"392 685 OFFCURVE",
"359 704 CURVE SMOOTH",
"292 741 OFFCURVE",
"264 779 OFFCURVE",
"264 838 CURVE SMOOTH",
"264 925 OFFCURVE",
"345 977 OFFCURVE",
"502 977 CURVE SMOOTH",
"591 977 OFFCURVE",
"691 954 OFFCURVE",
"801 909 CURVE",
"860 1044 LINE",
"747 1092 OFFCURVE",
"632 1116 OFFCURVE",
"514 1116 CURVE SMOOTH"
);
},
{
closed = 1;
nodes = (
"720 1569 LINE",
"659 1530 OFFCURVE",
"586 1467 OFFCURVE",
"499 1380 CURVE",
"429 1457 OFFCURVE",
"356 1520 OFFCURVE",
"280 1569 CURVE",
"165 1569 LINE",
"165 1544 LINE",
"250 1453 OFFCURVE",
"309 1387 OFFCURVE",
"343 1345 CURVE SMOOTH",
"377 1303 OFFCURVE",
"402 1268 OFFCURVE",
"417 1241 CURVE",
"583 1241 LINE",
"614 1299 OFFCURVE",
"677 1377 OFFCURVE",
"773 1476 CURVE SMOOTH",
"839 1544 LINE",
"839 1569 LINE"
);
}
);
width = 977;
}
);
unicode = 0161;
},
{
glyphname = germandbls;
lastChange = "2013-03-07 06:44:13 +0200";
layers = (
{
layerId = "98F5E167-1CFF-4278-A065-7BF212AD30BE";
name = Regular;
paths = (
{
closed = 1;
nodes = (
"322 1567 OFFCURVE",
"176 1439 OFFCURVE",
"176 1202 CURVE SMOOTH",
"176 0 LINE",
"342 0 LINE",
"342 1204 LINE SMOOTH",
"342 1353 OFFCURVE",
"434 1427 OFFCURVE",
"618 1427 CURVE SMOOTH",
"787 1427 OFFCURVE",
"881 1369 OFFCURVE",
"881 1262 CURVE SMOOTH",
"881 1191 OFFCURVE",
"842 1138 OFFCURVE",
"742 1062 CURVE SMOOTH",
"647 991 OFFCURVE",
"602 924 OFFCURVE",
"602 840 CURVE SMOOTH",
"602 728 OFFCURVE",
"656 660 OFFCURVE",
"825 551 CURVE SMOOTH",
"972 458 OFFCURVE",
"1018 399 OFFCURVE",
"1018 299 CURVE SMOOTH",
"1018 178 OFFCURVE",
"946 117 OFFCURVE",
"803 117 CURVE SMOOTH",
"707 117 OFFCURVE",
"596 151 OFFCURVE",
"512 203 CURVE",
"512 49 LINE",
"583 3 OFFCURVE",
"682 -20 OFFCURVE",
"807 -20 CURVE SMOOTH",
"1046 -20 OFFCURVE",
"1180 98 OFFCURVE",
"1180 311 CURVE SMOOTH",
"1180 446 OFFCURVE",
"1125 537 OFFCURVE",
"938 664 CURVE SMOOTH",
"886 698 OFFCURVE",
"848 725 OFFCURVE",
"825 744 CURVE SMOOTH",
"777 782 OFFCURVE",
"762 803 OFFCURVE",
"762 846 CURVE SMOOTH",
"762 868 OFFCURVE",
"771 890 OFFCURVE",
"790 913 CURVE SMOOTH",
"809 935 OFFCURVE",
"847 969 OFFCURVE",
"906 1016 CURVE SMOOTH",
"1001 1093 OFFCURVE",
"1049 1176 OFFCURVE",
"1049 1266 CURVE SMOOTH",
"1049 1458 OFFCURVE",
"893 1567 OFFCURVE",
"618 1567 CURVE SMOOTH"
);
}
);
width = 1274;
}
);
unicode = 00DF;
},
{
glyphname = t;
lastChange = "2013-03-07 06:44:13 +0200";
layers = (
{
anchors = (
{
name = bottom;
position = "{362, 0}";
},
{
name = center;
position = "{362, 559}";
}
);
layerId = "98F5E167-1CFF-4278-A065-7BF212AD30BE";
name = Regular;
paths = (
{
closed = 1;
nodes = (
"258 1350 LINE",
"188 1116 LINE",
"31 1047 LINE",
"31 967 LINE",
"188 967 LINE",
"188 315 LINE SMOOTH",
"188 92 OFFCURVE",
"294 -20 OFFCURVE",
"506 -20 CURVE SMOOTH",
"534 -20 OFFCURVE",
"565 -17 OFFCURVE",
"600 -11 CURVE SMOOTH",
"635 -6 OFFCURVE",
"662 0 OFFCURVE",
"680 9 CURVE",
"680 137 LINE",
"648 128 OFFCURVE",
"589 117 OFFCURVE",
"530 117 CURVE SMOOTH",
"421 117 OFFCURVE",
"354 190 OFFCURVE",
"354 322 CURVE SMOOTH",
"354 967 LINE",
"672 967 LINE",
"672 1096 LINE",
"354 1096 LINE",
"354 1350 LINE"
);
}
);
width = 723;
}
);
unicode = 0074;
},
{
glyphname = u;
lastChange = "2013-03-07 06:44:13 +0200";
layers = (
{
anchors = (
{
name = ogonek;
position = "{1131, 10}";
},
{
name = top;
position = "{629, 1118}";
}
);
layerId = "98F5E167-1CFF-4278-A065-7BF212AD30BE";
name = Regular;
paths = (
{
closed = 1;
nodes = (
"915 1096 LINE",
"915 520 LINE SMOOTH",
"915 378 OFFCURVE",
"888 276 OFFCURVE",
"835 213 CURVE SMOOTH",
"782 150 OFFCURVE",
"699 119 OFFCURVE",
"584 119 CURVE SMOOTH",
"411 119 OFFCURVE",
"332 206 OFFCURVE",
"332 385 CURVE SMOOTH",
"332 1096 LINE",
"164 1096 LINE",
"164 379 LINE SMOOTH",
"164 99 OFFCURVE",
"296 -20 OFFCURVE",
"563 -20 CURVE SMOOTH",
"718 -20 OFFCURVE",
"843 39 OFFCURVE",
"911 147 CURVE",
"920 147 LINE",
"944 0 LINE",
"1081 0 LINE",
"1081 1096 LINE"
);
}
);
width = 1257;
}
);
unicode = 0075;
},
{
glyphname = uacute;
lastChange = "2013-03-07 06:44:13 +0200";
layers = (
{
layerId = "98F5E167-1CFF-4278-A065-7BF212AD30BE";
name = Regular;
paths = (
{
closed = 1;
nodes = (
"915 1096 LINE",
"915 520 LINE SMOOTH",
"915 236 OFFCURVE",
"813 119 OFFCURVE",
"584 119 CURVE SMOOTH",
"411 119 OFFCURVE",
"332 206 OFFCURVE",
"332 385 CURVE SMOOTH",
"332 1096 LINE",
"164 1096 LINE",
"164 379 LINE SMOOTH",
"164 100 OFFCURVE",
"296 -20 OFFCURVE",
"563 -20 CURVE SMOOTH",
"718 -20 OFFCURVE",
"843 39 OFFCURVE",
"911 147 CURVE",
"920 147 LINE",
"944 0 LINE",
"1081 0 LINE",
"1081 1096 LINE"
);
},
{
closed = 1;
nodes = (
"697 1569 LINE",
"654 1482 OFFCURVE",
"570 1349 OFFCURVE",
"506 1266 CURVE",
"506 1241 LINE",
"617 1241 LINE",
"702 1310 OFFCURVE",
"840 1461 OFFCURVE",
"899 1548 CURVE",
"899 1569 LINE"
);
}
);
width = 1257;
}
);
unicode = 00FA;
},
{
glyphname = ucircumflex;
lastChange = "2013-03-07 06:44:13 +0200";
layers = (
{
layerId = "98F5E167-1CFF-4278-A065-7BF212AD30BE";
name = Regular;
paths = (
{
closed = 1;
nodes = (
"915 1096 LINE",
"915 520 LINE SMOOTH",
"915 236 OFFCURVE",
"813 119 OFFCURVE",
"584 119 CURVE SMOOTH",
"411 119 OFFCURVE",
"332 206 OFFCURVE",
"332 385 CURVE SMOOTH",
"332 1096 LINE",
"164 1096 LINE",
"164 379 LINE SMOOTH",
"164 100 OFFCURVE",
"296 -20 OFFCURVE",
"563 -20 CURVE SMOOTH",
"718 -20 OFFCURVE",
"843 39 OFFCURVE",
"911 147 CURVE",
"920 147 LINE",
"944 0 LINE",
"1081 0 LINE",
"1081 1096 LINE"
);
},
{
closed = 1;
nodes = (
"538 1569 LINE",
"523 1542 OFFCURVE",
"498 1507 OFFCURVE",
"464 1464 CURVE SMOOTH",
"430 1421 OFFCURVE",
"371 1355 OFFCURVE",
"286 1264 CURVE",
"286 1241 LINE",
"401 1241 LINE",
"456 1276 OFFCURVE",
"529 1338 OFFCURVE",
"620 1427 CURVE",
"709 1340 OFFCURVE",
"782 1278 OFFCURVE",
"841 1241 CURVE",
"960 1241 LINE",
"960 1264 LINE",
"877 1351 OFFCURVE",
"817 1416 OFFCURVE",
"781 1461 CURVE SMOOTH",
"744 1505 OFFCURVE",
"719 1541 OFFCURVE",
"704 1569 CURVE"
);
}
);
width = 1257;
}
);
unicode = 00FB;
},
{
glyphname = udieresis;
lastChange = "2013-03-07 06:44:13 +0200";
layers = (
{
layerId = "98F5E167-1CFF-4278-A065-7BF212AD30BE";
name = Regular;
paths = (
{
closed = 1;
nodes = (
"915 1096 LINE",
"915 520 LINE SMOOTH",
"915 236 OFFCURVE",
"813 119 OFFCURVE",
"584 119 CURVE SMOOTH",
"411 119 OFFCURVE",
"332 206 OFFCURVE",
"332 385 CURVE SMOOTH",
"332 1096 LINE",
"164 1096 LINE",
"164 379 LINE SMOOTH",
"164 100 OFFCURVE",
"296 -20 OFFCURVE",
"563 -20 CURVE SMOOTH",
"718 -20 OFFCURVE",
"843 39 OFFCURVE",
"911 147 CURVE",
"920 147 LINE",
"944 0 LINE",
"1081 0 LINE",
"1081 1096 LINE"
);
},
{
closed = 1;
nodes = (
"383 1491 OFFCURVE",
"342 1462 OFFCURVE",
"342 1393 CURVE SMOOTH",
"342 1326 OFFCURVE",
"383 1294 OFFCURVE",
"432 1294 CURVE SMOOTH",
"483 1294 OFFCURVE",
"525 1326 OFFCURVE",
"525 1393 CURVE SMOOTH",
"525 1462 OFFCURVE",
"483 1491 OFFCURVE",
"432 1491 CURVE SMOOTH"
);
},
{
closed = 1;
nodes = (
"764 1491 OFFCURVE",
"723 1462 OFFCURVE",
"723 1393 CURVE SMOOTH",
"723 1326 OFFCURVE",
"764 1294 OFFCURVE",
"813 1294 CURVE SMOOTH",
"862 1294 OFFCURVE",
"905 1326 OFFCURVE",
"905 1393 CURVE SMOOTH",
"905 1462 OFFCURVE",
"862 1491 OFFCURVE",
"813 1491 CURVE SMOOTH"
);
}
);
width = 1257;
}
);
unicode = 00FC;
},
{
glyphname = ugrave;
lastChange = "2013-03-07 06:44:13 +0200";
layers = (
{
layerId = "98F5E167-1CFF-4278-A065-7BF212AD30BE";
name = Regular;
paths = (
{
closed = 1;
nodes = (
"915 1096 LINE",
"915 520 LINE SMOOTH",
"915 236 OFFCURVE",
"813 119 OFFCURVE",
"584 119 CURVE SMOOTH",
"411 119 OFFCURVE",
"332 206 OFFCURVE",
"332 385 CURVE SMOOTH",
"332 1096 LINE",
"164 1096 LINE",
"164 379 LINE SMOOTH",
"164 100 OFFCURVE",
"296 -20 OFFCURVE",
"563 -20 CURVE SMOOTH",
"718 -20 OFFCURVE",
"843 39 OFFCURVE",
"911 147 CURVE",
"920 147 LINE",
"944 0 LINE",
"1081 0 LINE",
"1081 1096 LINE"
);
},
{
closed = 1;
nodes = (
"333 1569 LINE",
"333 1548 LINE",
"386 1464 OFFCURVE",
"529 1310 OFFCURVE",
"616 1241 CURVE",
"726 1241 LINE",
"726 1266 LINE",
"667 1337 OFFCURVE",
"579 1477 OFFCURVE",
"536 1569 CURVE"
);
}
);
width = 1257;
}
);
unicode = 00F9;
},
{
glyphname = v;
lastChange = "2013-03-07 06:44:13 +0200";
layers = (
{
layerId = "98F5E167-1CFF-4278-A065-7BF212AD30BE";
name = Regular;
paths = (
{
closed = 1;
nodes = (
"848 1096 LINE",
"712 723 OFFCURVE",
"624 480 OFFCURVE",
"585 369 CURVE SMOOTH",
"546 258 OFFCURVE",
"523 185 OFFCURVE",
"516 150 CURVE",
"508 150 LINE",
"499 195 OFFCURVE",
"467 294 OFFCURVE",
"414 446 CURVE SMOOTH",
"178 1096 LINE",
"0 1096 LINE",
"416 0 LINE",
"610 0 LINE",
"1026 1096 LINE"
);
}
);
width = 1026;
}
);
unicode = 0076;
},
{
glyphname = w;
lastChange = "2013-03-07 06:44:13 +0200";
layers = (
{
anchors = (
{
name = top;
position = "{797, 1118}";
}
);
layerId = "98F5E167-1CFF-4278-A065-7BF212AD30BE";
name = Regular;
paths = (
{
closed = 1;
nodes = (
"1399 1096 LINE",
"1272 608 OFFCURVE",
"1202 339 OFFCURVE",
"1190 289 CURVE SMOOTH",
"1179 239 OFFCURVE",
"1172 202 OFFCURVE",
"1169 178 CURVE",
"1161 178 LINE",
"1148 256 OFFCURVE",
"1122 352 OFFCURVE",
"1085 467 CURVE SMOOTH",
"889 1096 LINE",
"709 1096 LINE",
"508 467 LINE SMOOTH",
"496 432 OFFCURVE",
"482 384 OFFCURVE",
"465 323 CURVE SMOOTH",
"449 263 OFFCURVE",
"437 214 OFFCURVE",
"430 176 CURVE",
"422 176 LINE",
"417 226 OFFCURVE",
"395 323 OFFCURVE",
"358 467 CURVE SMOOTH",
"321 611 OFFCURVE",
"268 821 OFFCURVE",
"197 1096 CURVE",
"23 1096 LINE",
"322 0 LINE",
"514 0 LINE",
"721 641 LINE SMOOTH",
"741 704 OFFCURVE",
"764 794 OFFCURVE",
"791 911 CURVE",
"799 911 LINE",
"834 772 OFFCURVE",
"857 682 OFFCURVE",
"870 643 CURVE SMOOTH",
"1071 0 LINE",
"1268 0 LINE",
"1571 1096 LINE"
);
}
);
width = 1593;
}
);
unicode = 0077;
},
{
glyphname = x;
lastChange = "2013-03-07 06:44:13 +0200";
layers = (
{
layerId = "98F5E167-1CFF-4278-A065-7BF212AD30BE";
name = Regular;
paths = (
{
closed = 1;
nodes = (
"825 1096 LINE",
"537 676 LINE",
"248 1096 LINE",
"59 1096 LINE",
"440 561 LINE",
"39 0 LINE",
"227 0 LINE",
"537 444 LINE",
"844 0 LINE",
"1032 0 LINE",
"631 561 LINE",
"1012 1096 LINE"
);
}
);
width = 1073;
}
);
unicode = 0078;
},
{
glyphname = y;
lastChange = "2013-03-07 06:44:13 +0200";
layers = (
{
anchors = (
{
name = top;
position = "{516, 1118}";
}
);
layerId = "98F5E167-1CFF-4278-A065-7BF212AD30BE";
name = Regular;
paths = (
{
closed = 1;
nodes = (
"852 1096 LINE",
"699 672 OFFCURVE",
"608 419 OFFCURVE",
"580 336 CURVE SMOOTH",
"553 254 OFFCURVE",
"535 196 OFFCURVE",
"526 162 CURVE",
"518 162 LINE",
"505 225 OFFCURVE",
"473 328 OFFCURVE",
"420 471 CURVE SMOOTH",
"180 1096 LINE",
"2 1096 LINE",
"444 -6 LINE",
"383 -162 LINE SMOOTH",
"334 -290 OFFCURVE",
"253 -354 OFFCURVE",
"139 -354 CURVE SMOOTH",
"93 -354 OFFCURVE",
"53 -350 OFFCURVE",
"16 -342 CURVE",
"16 -475 LINE",
"65 -486 OFFCURVE",
"115 -492 OFFCURVE",
"166 -492 CURVE SMOOTH",
"257 -492 OFFCURVE",
"333 -466 OFFCURVE",
"395 -414 CURVE SMOOTH",
"458 -363 OFFCURVE",
"512 -275 OFFCURVE",
"559 -152 CURVE SMOOTH",
"1030 1096 LINE"
);
}
);
width = 1032;
}
);
unicode = 0079;
},
{
glyphname = yacute;
lastChange = "2013-03-07 06:44:13 +0200";
layers = (
{
layerId = "98F5E167-1CFF-4278-A065-7BF212AD30BE";
name = Regular;
paths = (
{
closed = 1;
nodes = (
"852 1096 LINE",
"699 672 OFFCURVE",
"608 419 OFFCURVE",
"581 337 CURVE SMOOTH",
"553 254 OFFCURVE",
"535 196 OFFCURVE",
"526 162 CURVE",
"518 162 LINE",
"505 225 OFFCURVE",
"473 328 OFFCURVE",
"420 471 CURVE SMOOTH",
"180 1096 LINE",
"2 1096 LINE",
"444 -6 LINE",
"383 -162 LINE SMOOTH",
"334 -290 OFFCURVE",
"253 -354 OFFCURVE",
"139 -354 CURVE SMOOTH",
"94 -354 OFFCURVE",
"53 -350 OFFCURVE",
"16 -342 CURVE",
"16 -475 LINE",
"65 -486 OFFCURVE",
"115 -492 OFFCURVE",
"166 -492 CURVE SMOOTH",
"347 -492 OFFCURVE",
"466 -399 OFFCURVE",
"559 -152 CURVE SMOOTH",
"1030 1096 LINE"
);
},
{
closed = 1;
nodes = (
"602 1569 LINE",
"559 1482 OFFCURVE",
"475 1349 OFFCURVE",
"411 1266 CURVE",
"411 1241 LINE",
"522 1241 LINE",
"607 1310 OFFCURVE",
"745 1461 OFFCURVE",
"804 1548 CURVE",
"804 1569 LINE"
);
}
);
width = 1032;
}
);
unicode = 00FD;
},
{
glyphname = ydieresis;
lastChange = "2013-03-07 06:44:13 +0200";
layers = (
{
layerId = "98F5E167-1CFF-4278-A065-7BF212AD30BE";
name = Regular;
paths = (
{
closed = 1;
nodes = (
"852 1096 LINE",
"699 672 OFFCURVE",
"608 419 OFFCURVE",
"581 337 CURVE SMOOTH",
"553 254 OFFCURVE",
"535 196 OFFCURVE",
"526 162 CURVE",
"518 162 LINE",
"505 225 OFFCURVE",
"473 328 OFFCURVE",
"420 471 CURVE SMOOTH",
"180 1096 LINE",
"2 1096 LINE",
"444 -6 LINE",
"383 -162 LINE SMOOTH",
"334 -290 OFFCURVE",
"253 -354 OFFCURVE",
"139 -354 CURVE SMOOTH",
"94 -354 OFFCURVE",
"53 -350 OFFCURVE",
"16 -342 CURVE",
"16 -475 LINE",
"65 -486 OFFCURVE",
"115 -492 OFFCURVE",
"166 -492 CURVE SMOOTH",
"347 -492 OFFCURVE",
"466 -399 OFFCURVE",
"559 -152 CURVE SMOOTH",
"1030 1096 LINE"
);
},
{
closed = 1;
nodes = (
"275 1491 OFFCURVE",
"234 1462 OFFCURVE",
"234 1393 CURVE SMOOTH",
"234 1326 OFFCURVE",
"275 1294 OFFCURVE",
"324 1294 CURVE SMOOTH",
"375 1294 OFFCURVE",
"417 1326 OFFCURVE",
"417 1393 CURVE SMOOTH",
"417 1462 OFFCURVE",
"375 1491 OFFCURVE",
"324 1491 CURVE SMOOTH"
);
},
{
closed = 1;
nodes = (
"656 1491 OFFCURVE",
"615 1462 OFFCURVE",
"615 1393 CURVE SMOOTH",
"615 1326 OFFCURVE",
"656 1294 OFFCURVE",
"705 1294 CURVE SMOOTH",
"754 1294 OFFCURVE",
"797 1326 OFFCURVE",
"797 1393 CURVE SMOOTH",
"797 1462 OFFCURVE",
"754 1491 OFFCURVE",
"705 1491 CURVE SMOOTH"
);
}
);
width = 1032;
}
);
unicode = 00FF;
},
{
glyphname = z;
lastChange = "2013-03-07 06:44:13 +0200";
layers = (
{
anchors = (
{
name = top;
position = "{479, 1118}";
}
);
layerId = "98F5E167-1CFF-4278-A065-7BF212AD30BE";
name = Regular;
paths = (
{
closed = 1;
nodes = (
"119 1096 LINE",
"119 967 LINE",
"680 967 LINE",
"82 113 LINE",
"82 0 LINE",
"877 0 LINE",
"877 129 LINE",
"272 129 LINE",
"862 967 LINE",
"862 1096 LINE"
);
}
);
width = 958;
}
);
unicode = 007A;
},
{
glyphname = zcaron;
lastChange = "2013-03-07 06:44:13 +0200";
layers = (
{
layerId = "98F5E167-1CFF-4278-A065-7BF212AD30BE";
name = Regular;
paths = (
{
closed = 1;
nodes = (
"119 1096 LINE",
"119 967 LINE",
"680 967 LINE",
"82 113 LINE",
"82 0 LINE",
"877 0 LINE",
"877 129 LINE",
"272 129 LINE",
"862 967 LINE",
"862 1096 LINE"
);
},
{
closed = 1;
nodes = (
"701 1569 LINE",
"640 1530 OFFCURVE",
"567 1467 OFFCURVE",
"480 1380 CURVE",
"410 1457 OFFCURVE",
"337 1520 OFFCURVE",
"261 1569 CURVE",
"146 1569 LINE",
"146 1544 LINE",
"231 1453 OFFCURVE",
"290 1387 OFFCURVE",
"324 1345 CURVE SMOOTH",
"358 1303 OFFCURVE",
"383 1268 OFFCURVE",
"398 1241 CURVE",
"564 1241 LINE",
"595 1299 OFFCURVE",
"658 1377 OFFCURVE",
"754 1476 CURVE SMOOTH",
"820 1544 LINE",
"820 1569 LINE"
);
}
);
width = 958;
}
);
unicode = 017E;
},
{
glyphname = mu;
lastChange = "2013-03-07 06:44:13 +0200";
layers = (
{
layerId = "98F5E167-1CFF-4278-A065-7BF212AD30BE";
name = Regular;
paths = (
{
closed = 1;
nodes = (
"926 1096 LINE",
"926 520 LINE SMOOTH",
"926 237 OFFCURVE",
"824 119 OFFCURVE",
"596 119 CURVE SMOOTH",
"427 119 OFFCURVE",
"342 206 OFFCURVE",
"342 381 CURVE SMOOTH",
"342 1096 LINE",
"176 1096 LINE",
"176 -492 LINE",
"342 -492 LINE",
"342 -172 LINE SMOOTH",
"342 -65 OFFCURVE",
"339 16 OFFCURVE",
"332 72 CURVE",
"342 72 LINE",
"401 11 OFFCURVE",
"480 -20 OFFCURVE",
"580 -20 CURVE SMOOTH",
"733 -20 OFFCURVE",
"846 36 OFFCURVE",
"920 147 CURVE",
"930 147 LINE",
"956 0 LINE",
"1092 0 LINE",
"1092 1096 LINE"
);
}
);
width = 1268;
}
);
unicode = 03BC;
},
{
glyphname = "alef-hb";
lastChange = "2013-03-07 06:44:13 +0200";
layers = (
{
anchors = (
{
name = bottom;
position = "{579, -152}";
},
{
name = bottomleft;
position = "{20, 0}";
},
{
name = center;
position = "{467, 374}";
},
{
name = top;
position = "{579, 1118}";
},
{
name = topleft;
position = "{145, 1160}";
}
);
layerId = "98F5E167-1CFF-4278-A065-7BF212AD30BE";
name = Regular;
paths = (
{
closed = 1;
nodes = (
"877 1290 LINE",
"877 811 LINE SMOOTH",
"877 650 OFFCURVE",
"823 591 OFFCURVE",
"780 556 CURVE SMOOTH",
"766 545 OFFCURVE",
"744 532 OFFCURVE",
"744 532 CURVE",
"577 791 LINE",
"281 1290 LINE",
"93 1290 LINE",
"341 884 LINE",
"118 809 OFFCURVE",
"92 613 OFFCURVE",
"92 419 CURVE SMOOTH",
"92 0 LINE",
"258 0 LINE",
"258 479 LINE SMOOTH",
"258 640 OFFCURVE",
"310 702 OFFCURVE",
"353 737 CURVE SMOOTH",
"371 752 OFFCURVE",
"411 767 OFFCURVE",
"411 767 CURVE",
"563 539 LINE",
"878 0 LINE",
"1065 0 LINE",
"816 413 LINE",
"1021 493 OFFCURVE",
"1043 683 OFFCURVE",
"1043 871 CURVE SMOOTH",
"1043 1290 LINE"
);
}
);
width = 1157;
}
);
unicode = 05D0;
},
{
glyphname = "bet-hb";
lastChange = "2013-03-07 06:44:13 +0200";
layers = (
{
anchors = (
{
name = bottom;
position = "{547, -152}";
},
{
name = bottomleft;
position = "{20, 0}";
},
{
name = center;
position = "{397, 665}";
},
{
name = top;
position = "{547, 1118}";
},
{
name = topleft;
position = "{152, 1160}";
}
);
layerId = "98F5E167-1CFF-4278-A065-7BF212AD30BE";
name = Regular;
paths = (
{
closed = 1;
nodes = (
"262 1310 OFFCURVE",
"102 1295 OFFCURVE",
"102 1295 CURVE",
"102 1154 LINE",
"102 1154 OFFCURVE",
"289 1169 OFFCURVE",
"448 1169 CURVE SMOOTH",
"626 1169 OFFCURVE",
"732 1119 OFFCURVE",
"732 902 CURVE SMOOTH",
"732 129 LINE",
"102 129 LINE",
"102 0 LINE",
"1045 0 LINE",
"1045 129 LINE",
"898 129 LINE",
"898 900 LINE SMOOTH",
"898 1204 OFFCURVE",
"758 1310 OFFCURVE",
"471 1310 CURVE SMOOTH"
);
}
);
width = 1093;
}
);
unicode = 05D1;
},
{
glyphname = "gimel-hb";
lastChange = "2013-03-07 06:44:13 +0200";
layers = (
{
anchors = (
{
name = bottom;
position = "{429, -152}";
},
{
name = bottomleft;
position = "{20, 0}";
},
{
name = center;
position = "{333, 665}";
},
{
name = top;
position = "{429, 1118}";
},
{
name = topleft;
position = "{255, 1160}";
}
);
layerId = "98F5E167-1CFF-4278-A065-7BF212AD30BE";
name = Regular;
paths = (
{
closed = 1;
nodes = (
"292 1310 OFFCURVE",
"212 1289 OFFCURVE",
"212 1289 CURVE",
"212 1158 LINE",
"212 1158 OFFCURVE",
"272 1176 OFFCURVE",
"338 1176 CURVE SMOOTH",
"513 1176 OFFCURVE",
"537 1053 OFFCURVE",
"537 953 CURVE SMOOTH",
"537 530 LINE SMOOTH",
"537 246 OFFCURVE",
"326 132 OFFCURVE",
"231 132 CURVE SMOOTH",
"136 132 OFFCURVE",
"94 145 OFFCURVE",
"94 145 CURVE",
"70 -7 LINE",
"70 -7 OFFCURVE",
"109 -20 OFFCURVE",
"210 -20 CURVE SMOOTH",
"430 -20 OFFCURVE",
"539 218 OFFCURVE",
"539 218 CURVE",
"547 218 LINE",
"566 0 LINE",
"703 0 LINE",
"703 967 LINE SMOOTH",
"703 1140 OFFCURVE",
"647 1310 OFFCURVE",
"391 1310 CURVE SMOOTH"
);
}
);
width = 857;
}
);
unicode = 05D2;
},
{
glyphname = "dalet-hb";
lastChange = "2013-03-07 06:44:13 +0200";
layers = (
{
anchors = (
{
name = bottom;
position = "{691, -152}";
},
{
name = bottomleft;
position = "{20, 0}";
},
{
name = center;
position = "{339, 665}";
},
{
name = top;
position = "{517, 1118}";
},
{
name = topleft;
position = "{93, 1160}";
}
);
layerId = "98F5E167-1CFF-4278-A065-7BF212AD30BE";
name = Regular;
paths = (
{
closed = 1;
nodes = (
"43 1290 LINE",
"43 1161 LINE",
"749 1161 LINE",
"749 1156 LINE",
"749 1156 OFFCURVE",
"613 1100 OFFCURVE",
"613 888 CURVE SMOOTH",
"613 0 LINE",
"779 0 LINE",
"779 888 LINE SMOOTH",
"779 1083 OFFCURVE",
"891 1149 OFFCURVE",
"985 1176 CURVE",
"985 1290 LINE"
);
}
);
width = 1033;
}
);
unicode = 05D3;
},
{
glyphname = "he-hb";
lastChange = "2013-03-07 06:44:13 +0200";
layers = (
{
anchors = (
{
name = bottom;
position = "{629, -152}";
},
{
name = bottomleft;
position = "{20, 0}";
},
{
name = center;
position = "{629, 665}";
},
{
name = top;
position = "{629, 1118}";
},
{
name = topleft;
position = "{212, 1160}";
}
);
layerId = "98F5E167-1CFF-4278-A065-7BF212AD30BE";
name = Regular;
paths = (
{
closed = 1;
nodes = (
"393 1310 OFFCURVE",
"160 1295 OFFCURVE",
"160 1295 CURVE",
"160 1154 LINE",
"160 1154 OFFCURVE",
"420 1169 OFFCURVE",
"579 1169 CURVE SMOOTH",
"757 1169 OFFCURVE",
"937 1119 OFFCURVE",
"937 902 CURVE SMOOTH",
"937 0 LINE",
"1103 0 LINE",
"1103 900 LINE SMOOTH",
"1103 1204 OFFCURVE",
"889 1310 OFFCURVE",
"602 1310 CURVE SMOOTH"
);
},
{
closed = 1;
nodes = (
"160 823 LINE",
"160 0 LINE",
"326 0 LINE",
"326 823 LINE"
);
}
);
width = 1257;
}
);
unicode = 05D4;
},
{
glyphname = "vav-hb";
lastChange = "2013-03-07 06:44:13 +0200";
layers = (
{
anchors = (
{
name = bottom;
position = "{243, -152}";
},
{
name = bottomleft;
position = "{20, 0}";
},
{
name = center;
position = "{-30, 714}";
},
{
name = top;
position = "{243, 1118}";
},
{
name = topleft;
position = "{206, 1160}";
}
);
layerId = "98F5E167-1CFF-4278-A065-7BF212AD30BE";
name = Regular;
paths = (
{
closed = 1;
nodes = (
"160 1290 LINE",
"160 0 LINE",
"326 0 LINE",
"326 1290 LINE"
);
}
);
width = 486;
}
);
unicode = 05D5;
},
{
glyphname = "zayin-hb";
lastChange = "2013-03-07 06:44:13 +0200";
layers = (
{
anchors = (
{
name = bottom;
position = "{330, -152}";
},
{
name = bottomleft;
position = "{20, 0}";
},
{
name = center;
position = "{48, 665}";
},
{
name = top;
position = "{306, 1118}";
},
{
name = topleft;
position = "{159, 1160}";
}
);
layerId = "98F5E167-1CFF-4278-A065-7BF212AD30BE";
name = Regular;
paths = (
{
closed = 1;
nodes = (
"112 1290 LINE",
"112 1161 LINE",
"421 1161 LINE",
"421 1156 LINE",
"421 1156 OFFCURVE",
"251 1018 OFFCURVE",
"251 763 CURVE SMOOTH",
"251 0 LINE",
"417 0 LINE",
"417 765 LINE SMOOTH",
"417 1091 OFFCURVE",
"565 1161 OFFCURVE",
"565 1161 CURVE",
"565 1290 LINE"
);
}
);
width = 612;
}
);
unicode = 05D6;
},
{
glyphname = "het-hb";
lastChange = "2013-03-07 06:44:13 +0200";
layers = (
{
anchors = (
{
name = bottom;
position = "{629, -152}";
},
{
name = bottomleft;
position = "{20, 0}";
},
{
name = center;
position = "{629, 665}";
},
{
name = top;
position = "{629, 1118}";
},
{
name = topleft;
position = "{212, 1160}";
}
);
layerId = "98F5E167-1CFF-4278-A065-7BF212AD30BE";
name = Regular;
paths = (
{
closed = 1;
nodes = (
"393 1310 OFFCURVE",
"160 1295 OFFCURVE",
"160 1295 CURVE",
"160 0 LINE",
"326 0 LINE",
"326 1160 LINE",
"326 1160 OFFCURVE",
"503 1169 OFFCURVE",
"579 1169 CURVE SMOOTH",
"757 1169 OFFCURVE",
"937 1119 OFFCURVE",
"937 902 CURVE SMOOTH",
"937 0 LINE",
"1103 0 LINE",
"1103 900 LINE SMOOTH",
"1103 1204 OFFCURVE",
"889 1310 OFFCURVE",
"602 1310 CURVE SMOOTH"
);
}
);
width = 1257;
}
);
unicode = 05D7;
},
{
glyphname = "tet-hb";
lastChange = "2013-03-07 06:44:13 +0200";
layers = (
{
anchors = (
{
name = bottom;
position = "{655, -152}";
},
{
name = bottomleft;
position = "{20, 0}";
},
{
name = center;
position = "{648, 665}";
},
{
name = top;
position = "{626, 1118}";
},
{
name = topleft;
position = "{200, 1160}";
}
);
layerId = "98F5E167-1CFF-4278-A065-7BF212AD30BE";
name = Regular;
paths = (
{
closed = 1;
nodes = (
"591 1310 OFFCURVE",
"532 1297 OFFCURVE",
"532 1297 CURVE",
"532 1161 LINE",
"532 1161 OFFCURVE",
"581 1171 OFFCURVE",
"674 1171 CURVE SMOOTH",
"935 1171 OFFCURVE",
"987 911 OFFCURVE",
"987 645 CURVE SMOOTH",
"987 379 OFFCURVE",
"918 119 OFFCURVE",
"657 119 CURVE SMOOTH",
"396 119 OFFCURVE",
"326 379 OFFCURVE",
"326 645 CURVE SMOOTH",
"326 1290 LINE",
"154 1290 LINE",
"154 645 LINE SMOOTH",
"154 180 OFFCURVE",
"382 -20 OFFCURVE",
"657 -20 CURVE SMOOTH",
"932 -20 OFFCURVE",
"1160 180 OFFCURVE",
"1160 645 CURVE SMOOTH",
"1160 1110 OFFCURVE",
"949 1310 OFFCURVE",
"674 1310 CURVE SMOOTH"
);
}
);
width = 1252;
}
);
unicode = 05D8;
},
{
glyphname = "yod-hb";
lastChange = "2013-03-07 06:44:13 +0200";
layers = (
{
anchors = (
{
name = bottom;
position = "{227, -152}";
},
{
name = bottomleft;
position = "{20, 0}";
},
{
name = center;
position = "{-36, 911}";
},
{
name = top;
position = "{227, 1118}";
},
{
name = topleft;
position = "{197, 1160}";
}
);
layerId = "98F5E167-1CFF-4278-A065-7BF212AD30BE";
name = Regular;
paths = (
{
closed = 1;
nodes = (
"147 1290 LINE",
"147 436 LINE",
"181 436 LINE",
"313 606 LINE",
"313 1290 LINE"
);
}
);
width = 453;
}
);
unicode = 05D9;
},
{
glyphname = "finalkaf-hb";
lastChange = "2013-03-07 06:44:13 +0200";
layers = (
{
anchors = (
{
name = bottom;
position = "{176, 250}";
},
{
name = bottomleft;
position = "{20, 0}";
},
{
name = center;
position = "{318, 665}";
},
{
name = top;
position = "{486, 1118}";
},
{
name = topleft;
position = "{103, 1160}";
}
);
layerId = "98F5E167-1CFF-4278-A065-7BF212AD30BE";
name = Regular;
paths = (
{
closed = 1;
nodes = (
"139 1310 OFFCURVE",
"43 1260 OFFCURVE",
"43 1260 CURVE",
"43 1112 LINE",
"43 1112 OFFCURVE",
"142 1163 OFFCURVE",
"327 1163 CURVE SMOOTH",
"643 1163 OFFCURVE",
"652 840 OFFCURVE",
"652 736 CURVE SMOOTH",
"652 -492 LINE",
"818 -492 LINE",
"818 756 LINE SMOOTH",
"818 961 OFFCURVE",
"733 1310 OFFCURVE",
"327 1310 CURVE SMOOTH"
);
}
);
width = 971;
}
);
unicode = 05DA;
},
{
glyphname = "kaf-hb";
lastChange = "2013-03-07 06:44:13 +0200";
layers = (
{
anchors = (
{
name = bottom;
position = "{348, -152}";
},
{
name = bottomleft;
position = "{20, 0}";
},
{
name = center;
position = "{342, 665}";
},
{
name = top;
position = "{467, 1118}";
},
{
name = topleft;
position = "{116, 1160}";
}
);
layerId = "98F5E167-1CFF-4278-A065-7BF212AD30BE";
name = Regular;
paths = (
{
closed = 1;
nodes = (
"162 1310 OFFCURVE",
"66 1260 OFFCURVE",
"66 1260 CURVE",
"66 1112 LINE",
"66 1112 OFFCURVE",
"165 1163 OFFCURVE",
"350 1163 CURVE SMOOTH",
"666 1163 OFFCURVE",
"675 840 OFFCURVE",
"675 736 CURVE SMOOTH",
"675 540 LINE SMOOTH",
"675 427 OFFCURVE",
"647 125 OFFCURVE",
"353 125 CURVE SMOOTH",
"197 125 OFFCURVE",
"66 167 OFFCURVE",
"66 167 CURVE",
"66 17 LINE",
"66 17 OFFCURVE",
"160 -20 OFFCURVE",
"343 -20 CURVE SMOOTH",
"838 -20 OFFCURVE",
"841 470 OFFCURVE",
"841 537 CURVE SMOOTH",
"841 756 LINE SMOOTH",
"841 961 OFFCURVE",
"756 1310 OFFCURVE",
"350 1310 CURVE SMOOTH"
);
}
);
width = 934;
}
);
unicode = 05DB;
},
{
glyphname = "lamed-hb";
lastChange = "2013-03-07 06:44:13 +0200";
layers = (
{
anchors = (
{
name = bottom;
position = "{548, -152}";
},
{
name = bottomleft;
position = "{20, 0}";
},
{
name = center;
position = "{294, 665}";
},
{
name = top;
position = "{488, 1118}";
},
{
name = topleft;
position = "{-73, 1160}";
}
);
layerId = "98F5E167-1CFF-4278-A065-7BF212AD30BE";
name = Regular;
paths = (
{
closed = 1;
nodes = (
"70 1554 LINE",
"70 1161 LINE",
"749 1161 LINE",
"574 501 LINE",
"470 0 LINE",
"638 0 LINE",
"742 501 LINE",
"915 1161 LINE",
"915 1290 LINE",
"236 1290 LINE",
"236 1554 LINE"
);
}
);
width = 975;
}
);
unicode = 05DC;
},
{
glyphname = "finalmem-hb";
lastChange = "2013-03-07 06:44:13 +0200";
layers = (
{
anchors = (
{
name = bottom;
position = "{629, -152}";
},
{
name = bottomleft;
position = "{20, 0}";
},
{
name = center;
position = "{629, 665}";
},
{
name = top;
position = "{629, 1118}";
},
{
name = topleft;
position = "{209, 1160}";
}
);
layerId = "98F5E167-1CFF-4278-A065-7BF212AD30BE";
name = Regular;
paths = (
{
closed = 1;
nodes = (
"334 1310 OFFCURVE",
"160 1283 OFFCURVE",
"160 1283 CURVE",
"160 0 LINE",
"1103 0 LINE",
"1103 958 LINE SMOOTH",
"1103 1242 OFFCURVE",
"853 1310 OFFCURVE",
"602 1310 CURVE SMOOTH"
);
},
{
closed = 1;
nodes = (
"757 1169 OFFCURVE",
"937 1151 OFFCURVE",
"937 934 CURVE SMOOTH",
"937 129 LINE",
"326 129 LINE",
"326 1158 LINE",
"326 1158 OFFCURVE",
"460 1169 OFFCURVE",
"579 1169 CURVE SMOOTH"
);
}
);
width = 1257;
}
);
unicode = 05DD;
},
{
glyphname = "mem-hb";
lastChange = "2013-03-07 06:44:13 +0200";
layers = (
{
anchors = (
{
name = bottom;
position = "{614, -152}";
},
{
name = bottomleft;
position = "{20, 0}";
},
{
name = center;
position = "{614, 665}";
},
{
name = top;
position = "{614, 1118}";
},
{
name = topleft;
position = "{158, 1160}";
}
);
layerId = "98F5E167-1CFF-4278-A065-7BF212AD30BE";
name = Regular;
paths = (
{
closed = 1;
nodes = (
"453 1310 OFFCURVE",
"341 1154 OFFCURVE",
"341 1154 CURVE SMOOTH",
"334 1154 LINE",
"321 1216 OFFCURVE",
"300 1270 OFFCURVE",
"288 1290 CURVE",
"121 1290 LINE",
"147 1228 LINE SMOOTH",
"176 1160 OFFCURVE",
"199 1030 OFFCURVE",
"196 992 CURVE SMOOTH",
"102 0 LINE",
"269 0 LINE",
"364 1010 LINE",
"364 1010 OFFCURVE",
"471 1170 OFFCURVE",
"638 1170 CURVE SMOOTH",
"839 1170 OFFCURVE",
"908 1044 OFFCURVE",
"908 875 CURVE SMOOTH",
"908 129 LINE",
"634 129 LINE",
"634 0 LINE",
"1074 0 LINE",
"1074 882 LINE SMOOTH",
"1074 1140 OFFCURVE",
"955 1310 OFFCURVE",
"696 1310 CURVE SMOOTH"
);
}
);
width = 1228;
}
);
unicode = 05DE;
},
{
glyphname = "finalnun-hb";
lastChange = "2013-03-07 06:44:13 +0200";
layers = (
{
anchors = (
{
name = bottom;
position = "{-294, 250}";
},
{
name = bottomleft;
position = "{20, 0}";
},
{
name = center;
position = "{-48, 665}";
},
{
name = top;
position = "{232, 1118}";
},
{
name = topleft;
position = "{121, 1160}";
}
);
layerId = "98F5E167-1CFF-4278-A065-7BF212AD30BE";
name = Regular;
paths = (
{
closed = 1;
nodes = (
"73 1288 LINE SMOOTH",
"71 1288 OFFCURVE",
"143 1124 OFFCURVE",
"143 898 CURVE SMOOTH",
"143 -492 LINE",
"309 -492 LINE",
"309 898 LINE SMOOTH",
"309 1118 OFFCURVE",
"239 1288 OFFCURVE",
"239 1288 CURVE SMOOTH"
);
}
);
width = 463;
}
);
unicode = 05DF;
},
{
glyphname = "nun-hb";
lastChange = "2013-03-07 06:44:13 +0200";
layers = (
{
anchors = (
{
name = bottom;
position = "{440, -152}";
},
{
name = bottomleft;
position = "{20, 0}";
},
{
name = center;
position = "{282, 665}";
},
{
name = top;
position = "{440, 1118}";
},
{
name = topleft;
position = "{272, 1160}";
}
);
layerId = "98F5E167-1CFF-4278-A065-7BF212AD30BE";
name = Regular;
paths = (
{
closed = 1;
nodes = (
"314 1310 OFFCURVE",
"234 1289 OFFCURVE",
"234 1289 CURVE",
"234 1158 LINE",
"234 1158 OFFCURVE",
"294 1176 OFFCURVE",
"360 1176 CURVE SMOOTH",
"535 1176 OFFCURVE",
"558 1053 OFFCURVE",
"558 953 CURVE SMOOTH",
"558 315 LINE SMOOTH",
"558 204 OFFCURVE",
"538 129 OFFCURVE",
"538 129 CURVE SMOOTH",
"92 129 LINE",
"92 0 LINE",
"686 0 LINE",
"686 0 OFFCURVE",
"725 132 OFFCURVE",
"725 315 CURVE SMOOTH",
"725 967 LINE SMOOTH",
"725 1140 OFFCURVE",
"669 1310 OFFCURVE",
"413 1310 CURVE SMOOTH"
);
}
);
width = 879;
}
);
unicode = 05E0;
},
{
glyphname = "samekh-hb";
lastChange = "2013-03-07 06:44:13 +0200";
layers = (
{
anchors = (
{
name = bottom;
position = "{595, -152}";
},
{
name = bottomleft;
position = "{20, 0}";
},
{
name = center;
position = "{595, 665}";
},
{
name = top;
position = "{595, 1118}";
},
{
name = topleft;
position = "{161, 1160}";
}
);
layerId = "98F5E167-1CFF-4278-A065-7BF212AD30BE";
name = Regular;
paths = (
{
closed = 1;
nodes = (
"322 1310 OFFCURVE",
"112 1293 OFFCURVE",
"112 1293 CURVE",
"112 1152 LINE",
"240 1160 LINE",
"168 1081 OFFCURVE",
"92 917 OFFCURVE",
"92 645 CURVE SMOOTH",
"92 180 OFFCURVE",
"320 -20 OFFCURVE",
"595 -20 CURVE SMOOTH",
"870 -20 OFFCURVE",
"1098 180 OFFCURVE",
"1098 645 CURVE SMOOTH",
"1098 1110 OFFCURVE",
"890 1310 OFFCURVE",
"595 1310 CURVE SMOOTH"
);
},
{
closed = 1;
nodes = (
"868 1168 OFFCURVE",
"926 911 OFFCURVE",
"926 645 CURVE SMOOTH",
"926 379 OFFCURVE",
"856 119 OFFCURVE",
"595 119 CURVE SMOOTH",
"334 119 OFFCURVE",
"264 379 OFFCURVE",
"264 645 CURVE SMOOTH",
"264 816 OFFCURVE",
"308 1045 OFFCURVE",
"416 1166 CURVE",
"416 1166 OFFCURVE",
"491 1168 OFFCURVE",
"595 1168 CURVE SMOOTH"
);
}
);
width = 1190;
}
);
unicode = 05E1;
},
{
glyphname = "ayin-hb";
lastChange = "2013-03-07 06:44:13 +0200";
layers = (
{
anchors = (
{
name = bottom;
position = "{628, -152}";
},
{
name = bottomleft;
position = "{20, 0}";
},
{
name = center;
position = "{697, 750}";
},
{
name = top;
position = "{628, 1118}";
},
{
name = topleft;
position = "{197, 1160}";
}
);
layerId = "98F5E167-1CFF-4278-A065-7BF212AD30BE";
name = Regular;
paths = (
{
closed = 1;
nodes = (
"158 1290 LINE",
"461 140 LINE",
"70 79 LINE",
"70 -52 LINE",
"440 0 LINE SMOOTH",
"999 79 OFFCURVE",
"1083 470 OFFCURVE",
"1105 727 CURVE SMOOTH",
"1154 1289 LINE",
"988 1289 LINE",
"938 727 LINE SMOOTH",
"909 410 OFFCURVE",
"783 238 OFFCURVE",
"604 172 CURVE",
"541 450 OFFCURVE",
"501 629 OFFCURVE",
"484 708 CURVE",
"330 1290 LINE"
);
}
);
width = 1256;
}
);
unicode = 05E2;
},
{
glyphname = "finalpe-hb";
lastChange = "2013-03-07 06:44:13 +0200";
layers = (
{
anchors = (
{
name = bottom;
position = "{374, 250}";
},
{
name = bottomleft;
position = "{20, 0}";
},
{
name = center;
position = "{548, 859}";
},
{
name = top;
position = "{603, 1118}";
},
{
name = topleft;
position = "{130, 1160}";
}
);
layerId = "98F5E167-1CFF-4278-A065-7BF212AD30BE";
name = Regular;
paths = (
{
closed = 1;
nodes = (
"321 1310 OFFCURVE",
"70 1154 OFFCURVE",
"70 849 CURVE SMOOTH",
"70 595 OFFCURVE",
"230 456 OFFCURVE",
"454 427 CURVE SMOOTH",
"492 422 LINE",
"519 545 LINE",
"475 553 LINE SMOOTH",
"302 584 OFFCURVE",
"223 668 OFFCURVE",
"223 849 CURVE SMOOTH",
"223 985 OFFCURVE",
"301 1171 OFFCURVE",
"556 1171 CURVE SMOOTH",
"817 1171 OFFCURVE",
"887 911 OFFCURVE",
"887 645 CURVE SMOOTH",
"887 -492 LINE",
"1052 -492 LINE",
"1052 645 LINE SMOOTH",
"1052 1110 OFFCURVE",
"831 1310 OFFCURVE",
"556 1310 CURVE SMOOTH"
);
}
);
width = 1206;
}
);
unicode = 05E3;
},
{
glyphname = "pe-hb";
lastChange = "2013-03-07 06:44:13 +0200";
layers = (
{
anchors = (
{
name = bottom;
position = "{576, -152}";
},
{
name = bottomleft;
position = "{20, 0}";
},
{
name = center;
position = "{587, 847}";
},
{
name = top;
position = "{587, 1118}";
},
{
name = topleft;
position = "{136, 1160}";
}
);
layerId = "98F5E167-1CFF-4278-A065-7BF212AD30BE";
name = Regular;
paths = (
{
closed = 1;
nodes = (
"343 1310 OFFCURVE",
"92 1154 OFFCURVE",
"92 849 CURVE SMOOTH",
"92 595 OFFCURVE",
"252 456 OFFCURVE",
"476 427 CURVE SMOOTH",
"514 422 LINE",
"541 545 LINE",
"497 553 LINE SMOOTH",
"324 584 OFFCURVE",
"245 668 OFFCURVE",
"245 849 CURVE SMOOTH",
"245 985 OFFCURVE",
"323 1172 OFFCURVE",
"578 1171 CURVE SMOOTH",
"839 1171 OFFCURVE",
"909 911 OFFCURVE",
"909 645 CURVE SMOOTH",
"909 379 OFFCURVE",
"839 119 OFFCURVE",
"577 119 CURVE SMOOTH",
"372 119 OFFCURVE",
"201 149 OFFCURVE",
"202 150 CURVE",
"202 7 LINE",
"202 7 OFFCURVE",
"378 -20 OFFCURVE",
"578 -20 CURVE SMOOTH",
"853 -20 OFFCURVE",
"1081 180 OFFCURVE",
"1081 645 CURVE SMOOTH",
"1081 1110 OFFCURVE",
"853 1310 OFFCURVE",
"578 1310 CURVE SMOOTH"
);
}
);
width = 1173;
}
);
unicode = 05E4;
},
{
glyphname = "finaltsadi-hb";
lastChange = "2013-03-07 06:44:13 +0200";
layers = (
{
anchors = (
{
name = bottom;
position = "{-170, 250}";
},
{
name = bottomleft;
position = "{20, 0}";
},
{
name = center;
position = "{506, 986}";
},
{
name = top;
position = "{480, 1118}";
},
{
name = topleft;
position = "{58, 1160}";
}
);
layerId = "98F5E167-1CFF-4278-A065-7BF212AD30BE";
name = Regular;
paths = (
{
closed = 1;
nodes = (
"8 1290 LINE",
"276 577 LINE",
"276 -492 LINE",
"442 -492 LINE",
"442 441 LINE",
"563 474 LINE SMOOTH",
"817 540 OFFCURVE",
"857 746 OFFCURVE",
"857 950 CURVE SMOOTH",
"857 1289 LINE",
"691 1289 LINE",
"691 890 LINE SMOOTH",
"691 729 OFFCURVE",
"634 642 OFFCURVE",
"542 612 CURVE SMOOTH",
"433 574 LINE",
"427 605 OFFCURVE",
"418 638 OFFCURVE",
"405 676 CURVE SMOOTH",
"185 1290 LINE"
);
}
);
width = 959;
}
);
unicode = 05E5;
},
{
glyphname = "tsadi-hb";
lastChange = "2013-03-07 06:44:13 +0200";
layers = (
{
anchors = (
{
name = bottom;
position = "{563, -152}";
},
{
name = bottomleft;
position = "{20, 0}";
},
{
name = center;
position = "{242, 580}";
},
{
name = top;
position = "{563, 1118}";
},
{
name = topleft;
position = "{112, 1160}";
}
);
layerId = "98F5E167-1CFF-4278-A065-7BF212AD30BE";
name = Regular;
paths = (
{
closed = 1;
nodes = (
"867 1293 LINE",
"845 1062 LINE SMOOTH",
"824 844 OFFCURVE",
"780 688 OFFCURVE",
"672 624 CURVE",
"640 669 LINE",
"254 1290 LINE",
"65 1290 LINE",
"520 573 LINE",
"853 122 LINE",
"853 118 LINE",
"625 129 LINE",
"75 129 LINE",
"75 0 LINE",
"1024 0 LINE",
"1024 129 LINE",
"751 513 LINE",
"995 638 OFFCURVE",
"999 950 OFFCURVE",
"1013 1086 CURVE SMOOTH",
"1033 1293 LINE"
);
}
);
width = 1125;
}
);
unicode = 05E6;
},
{
glyphname = "qof-hb";
lastChange = "2013-03-07 06:44:13 +0200";
layers = (
{
anchors = (
{
name = bottom;
position = "{721, -152}";
},
{
name = bottomleft;
position = "{20, 0}";
},
{
name = center;
position = "{564, 665}";
},
{
name = top;
position = "{585, 1118}";
},
{
name = topleft;
position = "{203, 1160}";
}
);
layerId = "98F5E167-1CFF-4278-A065-7BF212AD30BE";
name = Regular;
paths = (
{
closed = 1;
nodes = (
"160 1290 LINE",
"160 1162 LINE",
"943 1162 LINE",
"800 672 LINE SMOOTH",
"757 521 OFFCURVE",
"645 156 OFFCURVE",
"645 34 CURVE SMOOTH",
"645 0 LINE",
"810 0 LINE",
"810 34 LINE SMOOTH",
"810 144 OFFCURVE",
"915 496 OFFCURVE",
"959 652 CURVE SMOOTH",
"1109 1162 LINE",
"1109 1290 LINE"
);
},
{
closed = 1;
nodes = (
"161 771 LINE",
"161 -493 LINE",
"326 -493 LINE",
"326 771 LINE"
);
}
);
width = 1170;
}
);
unicode = 05E7;
},
{
glyphname = "resh-hb";
lastChange = "2013-03-07 06:44:13 +0200";
layers = (
{
anchors = (
{
name = bottom;
position = "{721, -152}";
},
{
name = bottomleft;
position = "{20, 0}";
},
{
name = center;
position = "{321, 665}";
},
{
name = top;
position = "{485, 1118}";
},
{
name = topleft;
position = "{94, 1160}";
}
);
layerId = "98F5E167-1CFF-4278-A065-7BF212AD30BE";
name = Regular;
paths = (
{
closed = 1;
nodes = (
"221 1310 OFFCURVE",
"123 1307 OFFCURVE",
"43 1303 CURVE",
"43 1162 LINE",
"124 1166 OFFCURVE",
"219 1169 OFFCURVE",
"293 1169 CURVE SMOOTH",
"471 1169 OFFCURVE",
"651 1119 OFFCURVE",
"651 902 CURVE SMOOTH",
"651 0 LINE",
"817 0 LINE",
"817 900 LINE SMOOTH",
"817 1204 OFFCURVE",
"603 1310 OFFCURVE",
"316 1310 CURVE SMOOTH"
);
}
);
width = 970;
}
);
unicode = 05E8;
},
{
glyphname = "shin-hb";
lastChange = "2013-03-07 06:44:13 +0200";
layers = (
{
anchors = (
{
name = bottom;
position = "{628, -152}";
},
{
name = bottomleft;
position = "{20, 0}";
},
{
name = center;
position = "{806, 432}";
},
{
name = top;
position = "{737, 1160}";
},
{
name = topleft;
position = "{155, 1160}";
},
{
name = topright;
position = "{1453, 1160}";
}
);
layerId = "98F5E167-1CFF-4278-A065-7BF212AD30BE";
name = Regular;
paths = (
{
closed = 1;
nodes = (
"679 1290 LINE",
"640 891 LINE SMOOTH",
"624 730 OFFCURVE",
"558 644 OFFCURVE",
"463 613 CURVE SMOOTH",
"330 569 LINE",
"270 1290 LINE",
"102 1290 LINE",
"209 0 LINE",
"637 0 LINE SMOOTH",
"1203 0 OFFCURVE",
"1312 470 OFFCURVE",
"1334 727 CURVE SMOOTH",
"1383 1289 LINE",
"1218 1289 LINE",
"1167 727 LINE SMOOTH",
"1128 302 OFFCURVE",
"920 129 OFFCURVE",
"664 129 CURVE SMOOTH",
"366 129 LINE",
"340 440 LINE",
"470 475 LINE SMOOTH",
"731 541 OFFCURVE",
"792 747 OFFCURVE",
"812 951 CURVE SMOOTH",
"845 1290 LINE"
);
}
);
width = 1473;
}
);
unicode = 05E9;
},
{
glyphname = "tav-hb";
lastChange = "2013-03-07 06:44:13 +0200";
layers = (
{
anchors = (
{
name = bottom;
position = "{700, -152}";
},
{
name = bottomleft;
position = "{20, 0}";
},
{
name = center;
position = "{715, 665}";
},
{
name = top;
position = "{648, 1118}";
},
{
name = topleft;
position = "{212, 1160}";
}
);
layerId = "98F5E167-1CFF-4278-A065-7BF212AD30BE";
name = Regular;
paths = (
{
closed = 1;
nodes = (
"432 1310 OFFCURVE",
"153 1278 OFFCURVE",
"153 1278 CURVE",
"153 1137 LINE",
"153 1137 OFFCURVE",
"213 1143 OFFCURVE",
"294 1150 CURVE",
"294 297 LINE SMOOTH",
"294 162 OFFCURVE",
"223 127 OFFCURVE",
"151 127 CURVE SMOOTH",
"122 127 OFFCURVE",
"92 134 OFFCURVE",
"70 137 CURVE",
"70 0 LINE",
"94 -4 OFFCURVE",
"128 -14 OFFCURVE",
"170 -14 CURVE SMOOTH",
"370 -14 OFFCURVE",
"460 116 OFFCURVE",
"460 320 CURVE SMOOTH",
"460 1163 LINE",
"517 1166 OFFCURVE",
"573 1169 OFFCURVE",
"618 1169 CURVE SMOOTH",
"796 1169 OFFCURVE",
"975 1119 OFFCURVE",
"975 902 CURVE SMOOTH",
"975 0 LINE",
"1142 0 LINE",
"1142 900 LINE SMOOTH",
"1142 1204 OFFCURVE",
"928 1310 OFFCURVE",
"641 1310 CURVE SMOOTH"
);
}
);
width = 1296;
}
);
unicode = 05EA;
},
{
glyphname = zero;
lastChange = "2013-03-07 06:44:13 +0200";
layers = (
{
layerId = "98F5E167-1CFF-4278-A065-7BF212AD30BE";
name = Regular;
paths = (
{
closed = 1;
nodes = (
"259 1485 OFFCURVE",
"102 1242 OFFCURVE",
"102 733 CURVE SMOOTH",
"102 240 OFFCURVE",
"269 -20 OFFCURVE",
"584 -20 CURVE SMOOTH",
"912 -20 OFFCURVE",
"1069 228 OFFCURVE",
"1069 733 CURVE SMOOTH",
"1069 1221 OFFCURVE",
"901 1485 OFFCURVE",
"584 1485 CURVE SMOOTH"
);
},
{
closed = 1;
nodes = (
"695 1341 OFFCURVE",
"775 1292 OFFCURVE",
"824 1194 CURVE SMOOTH",
"874 1097 OFFCURVE",
"899 943 OFFCURVE",
"899 733 CURVE SMOOTH",
"899 523 OFFCURVE",
"874 369 OFFCURVE",
"824 270 CURVE SMOOTH",
"775 172 OFFCURVE",
"695 123 OFFCURVE",
"584 123 CURVE SMOOTH",
"475 123 OFFCURVE",
"395 171 OFFCURVE",
"345 268 CURVE SMOOTH",
"295 365 OFFCURVE",
"270 520 OFFCURVE",
"270 733 CURVE SMOOTH",
"270 946 OFFCURVE",
"295 1100 OFFCURVE",
"345 1196 CURVE SMOOTH",
"395 1293 OFFCURVE",
"475 1341 OFFCURVE",
"584 1341 CURVE SMOOTH"
);
}
);
width = 1171;
}
);
unicode = 0030;
},
{
glyphname = one;
lastChange = "2013-03-07 06:44:13 +0200";
layers = (
{
layerId = "98F5E167-1CFF-4278-A065-7BF212AD30BE";
name = Regular;
paths = (
{
closed = 1;
nodes = (
"575 1462 LINE",
"188 1163 LINE",
"276 1049 LINE",
"417 1164 OFFCURVE",
"497 1229 OFFCURVE",
"514 1244 CURVE SMOOTH",
"531 1259 OFFCURVE",
"547 1274 OFFCURVE",
"561 1288 CURVE",
"556 1211 OFFCURVE",
"553 1129 OFFCURVE",
"553 1042 CURVE SMOOTH",
"553 0 LINE",
"715 0 LINE",
"715 1462 LINE"
);
}
);
width = 1171;
}
);
unicode = 0031;
},
{
glyphname = two;
lastChange = "2013-03-07 06:44:13 +0200";
layers = (
{
layerId = "98F5E167-1CFF-4278-A065-7BF212AD30BE";
name = Regular;
paths = (
{
closed = 1;
nodes = (
"400 1483 OFFCURVE",
"254 1427 OFFCURVE",
"119 1315 CURVE",
"207 1202 LINE",
"274 1255 OFFCURVE",
"334 1291 OFFCURVE",
"388 1311 CURVE SMOOTH",
"443 1331 OFFCURVE",
"500 1341 OFFCURVE",
"561 1341 CURVE SMOOTH",
"729 1341 OFFCURVE",
"829 1243 OFFCURVE",
"829 1087 CURVE SMOOTH",
"829 1032 OFFCURVE",
"820 979 OFFCURVE",
"801 932 CURVE SMOOTH",
"782 884 OFFCURVE",
"754 835 OFFCURVE",
"717 784 CURVE SMOOTH",
"680 733 OFFCURVE",
"602 649 OFFCURVE",
"485 530 CURVE SMOOTH",
"99 143 LINE",
"99 0 LINE",
"1061 0 LINE",
"1061 154 LINE",
"309 154 LINE",
"309 162 LINE",
"629 475 LINE SMOOTH",
"772 614 OFFCURVE",
"869 728 OFFCURVE",
"921 819 CURVE SMOOTH",
"972 910 OFFCURVE",
"998 1001 OFFCURVE",
"998 1094 CURVE SMOOTH",
"998 1213 OFFCURVE",
"960 1307 OFFCURVE",
"882 1377 CURVE SMOOTH",
"804 1448 OFFCURVE",
"696 1483 OFFCURVE",
"559 1483 CURVE SMOOTH"
);
}
);
width = 1171;
}
);
unicode = 0032;
},
{
glyphname = three;
lastChange = "2013-03-07 06:44:13 +0200";
layers = (
{
layerId = "98F5E167-1CFF-4278-A065-7BF212AD30BE";
name = Regular;
paths = (
{
closed = 1;
nodes = (
"384 1483 OFFCURVE",
"222 1426 OFFCURVE",
"102 1331 CURVE",
"186 1219 LINE",
"259 1266 OFFCURVE",
"323 1298 OFFCURVE",
"380 1315 CURVE SMOOTH",
"437 1332 OFFCURVE",
"497 1341 OFFCURVE",
"561 1341 CURVE SMOOTH",
"729 1341 OFFCURVE",
"834 1255 OFFCURVE",
"834 1112 CURVE SMOOTH",
"834 1023 OFFCURVE",
"801 953 OFFCURVE",
"734 902 CURVE SMOOTH",
"667 852 OFFCURVE",
"577 827 OFFCURVE",
"463 827 CURVE SMOOTH",
"317 827 LINE",
"317 684 LINE",
"461 684 LINE SMOOTH",
"740 684 OFFCURVE",
"879 595 OFFCURVE",
"879 418 CURVE SMOOTH",
"879 220 OFFCURVE",
"753 121 OFFCURVE",
"500 121 CURVE SMOOTH",
"372 121 OFFCURVE",
"221 154 OFFCURVE",
"93 217 CURVE",
"93 59 LINE",
"215 0 OFFCURVE",
"339 -20 OFFCURVE",
"494 -20 CURVE SMOOTH",
"672 -20 OFFCURVE",
"809 17 OFFCURVE",
"906 92 CURVE SMOOTH",
"1003 167 OFFCURVE",
"1051 275 OFFCURVE",
"1051 414 CURVE SMOOTH",
"1051 609 OFFCURVE",
"940 733 OFFCURVE",
"705 762 CURVE",
"705 770 LINE",
"897 810 OFFCURVE",
"1006 931 OFFCURVE",
"1006 1118 CURVE SMOOTH",
"1006 1231 OFFCURVE",
"967 1320 OFFCURVE",
"888 1385 CURVE SMOOTH",
"809 1450 OFFCURVE",
"699 1483 OFFCURVE",
"557 1483 CURVE SMOOTH"
);
}
);
width = 1171;
}
);
unicode = 0033;
},
{
glyphname = four;
lastChange = "2013-03-07 06:44:13 +0200";
layers = (
{
layerId = "98F5E167-1CFF-4278-A065-7BF212AD30BE";
name = Regular;
paths = (
{
closed = 1;
nodes = (
"737 1470 LINE",
"43 481 LINE",
"43 336 LINE",
"754 336 LINE",
"754 0 LINE",
"913 0 LINE",
"913 336 LINE",
"1130 336 LINE",
"1130 487 LINE",
"913 487 LINE",
"913 1470 LINE"
);
},
{
closed = 1;
nodes = (
"757 1176 OFFCURVE",
"754 1068 OFFCURVE",
"754 972 CURVE SMOOTH",
"754 487 LINE",
"209 487 LINE",
"666 1137 LINE SMOOTH",
"694 1179 OFFCURVE",
"724 1232 OFFCURVE",
"756 1296 CURVE",
"764 1296 LINE"
);
}
);
width = 1171;
}
);
unicode = 0034;
},
{
glyphname = five;
lastChange = "2013-03-07 06:44:13 +0200";
layers = (
{
layerId = "98F5E167-1CFF-4278-A065-7BF212AD30BE";
name = Regular;
paths = (
{
closed = 1;
nodes = (
"223 1462 LINE",
"168 778 LINE",
"254 723 LINE",
"360 742 OFFCURVE",
"445 752 OFFCURVE",
"508 752 CURVE SMOOTH",
"758 752 OFFCURVE",
"883 650 OFFCURVE",
"883 446 CURVE SMOOTH",
"883 237 OFFCURVE",
"747 123 OFFCURVE",
"512 123 CURVE SMOOTH",
"445 123 OFFCURVE",
"376 131 OFFCURVE",
"307 148 CURVE SMOOTH",
"238 165 OFFCURVE",
"180 189 OFFCURVE",
"133 219 CURVE",
"133 59 LINE",
"220 6 OFFCURVE",
"345 -20 OFFCURVE",
"510 -20 CURVE SMOOTH",
"679 -20 OFFCURVE",
"812 23 OFFCURVE",
"908 109 CURVE SMOOTH",
"1005 195 OFFCURVE",
"1053 314 OFFCURVE",
"1053 465 CURVE SMOOTH",
"1053 598 OFFCURVE",
"1009 702 OFFCURVE",
"920 778 CURVE SMOOTH",
"832 855 OFFCURVE",
"711 893 OFFCURVE",
"557 893 CURVE SMOOTH",
"481 893 OFFCURVE",
"405 885 OFFCURVE",
"328 870 CURVE",
"365 1309 LINE",
"950 1309 LINE",
"950 1462 LINE"
);
}
);
width = 1171;
}
);
unicode = 0035;
},
{
glyphname = six;
lastChange = "2013-03-07 06:44:13 +0200";
layers = (
{
layerId = "98F5E167-1CFF-4278-A065-7BF212AD30BE";
name = Regular;
paths = (
{
closed = 1;
nodes = (
"343 1483 OFFCURVE",
"117 1200 OFFCURVE",
"117 625 CURVE SMOOTH",
"117 422 OFFCURVE",
"161 264 OFFCURVE",
"250 150 CURVE SMOOTH",
"339 37 OFFCURVE",
"459 -20 OFFCURVE",
"610 -20 CURVE SMOOTH",
"751 -20 OFFCURVE",
"863 23 OFFCURVE",
"946 110 CURVE SMOOTH",
"1029 197 OFFCURVE",
"1071 317 OFFCURVE",
"1071 469 CURVE SMOOTH",
"1071 605 OFFCURVE",
"1033 713 OFFCURVE",
"957 792 CURVE SMOOTH",
"882 871 OFFCURVE",
"778 911 OFFCURVE",
"647 911 CURVE SMOOTH",
"488 911 OFFCURVE",
"372 854 OFFCURVE",
"299 739 CURVE",
"287 739 LINE",
"303 1158 OFFCURVE",
"469 1346 OFFCURVE",
"782 1346 CURVE SMOOTH",
"848 1346 OFFCURVE",
"907 1338 OFFCURVE",
"958 1321 CURVE",
"958 1464 LINE",
"915 1477 OFFCURVE",
"855 1483 OFFCURVE",
"780 1483 CURVE SMOOTH"
);
},
{
closed = 1;
nodes = (
"809 780 OFFCURVE",
"907 662 OFFCURVE",
"907 469 CURVE SMOOTH",
"907 244 OFFCURVE",
"797 121 OFFCURVE",
"608 121 CURVE SMOOTH",
"420 116 OFFCURVE",
"284 301 OFFCURVE",
"287 506 CURVE",
"284 647 OFFCURVE",
"438 786 OFFCURVE",
"616 780 CURVE SMOOTH"
);
}
);
width = 1171;
}
);
unicode = 0036;
},
{
glyphname = seven;
lastChange = "2013-03-07 06:44:13 +0200";
layers = (
{
layerId = "98F5E167-1CFF-4278-A065-7BF212AD30BE";
name = Regular;
paths = (
{
closed = 1;
nodes = (
"93 1462 LINE",
"93 1309 LINE",
"891 1309 LINE",
"285 0 LINE",
"469 0 LINE",
"1067 1329 LINE",
"1067 1462 LINE"
);
}
);
width = 1171;
}
);
unicode = 0037;
},
{
glyphname = eight;
lastChange = "2013-03-07 06:44:13 +0200";
layers = (
{
layerId = "98F5E167-1CFF-4278-A065-7BF212AD30BE";
name = Regular;
paths = (
{
closed = 1;
nodes = (
"453 1483 OFFCURVE",
"348 1451 OFFCURVE",
"269 1388 CURVE SMOOTH",
"191 1325 OFFCURVE",
"152 1241 OFFCURVE",
"152 1135 CURVE SMOOTH",
"152 985 OFFCURVE",
"226 868 OFFCURVE",
"410 764 CURVE",
"206 671 OFFCURVE",
"104 540 OFFCURVE",
"104 373 CURVE SMOOTH",
"104 122 OFFCURVE",
"278 -20 OFFCURVE",
"590 -20 CURVE SMOOTH",
"737 -20 OFFCURVE",
"853 16 OFFCURVE",
"938 88 CURVE SMOOTH",
"1023 161 OFFCURVE",
"1065 258 OFFCURVE",
"1065 379 CURVE SMOOTH",
"1065 461 OFFCURVE",
"1040 533 OFFCURVE",
"989 595 CURVE SMOOTH",
"940 658 OFFCURVE",
"856 717 OFFCURVE",
"737 774 CURVE",
"933 871 OFFCURVE",
"1018 988 OFFCURVE",
"1018 1133 CURVE SMOOTH",
"1018 1242 OFFCURVE",
"978 1328 OFFCURVE",
"901 1390 CURVE SMOOTH",
"823 1452 OFFCURVE",
"717 1483 OFFCURVE",
"584 1483 CURVE SMOOTH"
);
},
{
closed = 1;
nodes = (
"680 649 OFFCURVE",
"771 600 OFFCURVE",
"823 549 CURVE SMOOTH",
"875 499 OFFCURVE",
"901 442 OFFCURVE",
"901 377 CURVE SMOOTH",
"901 214 OFFCURVE",
"785 115 OFFCURVE",
"586 115 CURVE SMOOTH",
"385 115 OFFCURVE",
"268 209 OFFCURVE",
"268 369 CURVE SMOOTH",
"268 513 OFFCURVE",
"352 611 OFFCURVE",
"551 696 CURVE"
);
},
{
closed = 1;
nodes = (
"667 1348 OFFCURVE",
"733 1328 OFFCURVE",
"781 1288 CURVE SMOOTH",
"830 1249 OFFCURVE",
"854 1195 OFFCURVE",
"854 1128 CURVE SMOOTH",
"854 1067 OFFCURVE",
"834 1013 OFFCURVE",
"794 967 CURVE SMOOTH",
"755 921 OFFCURVE",
"687 878 OFFCURVE",
"592 838 CURVE",
"486 882 OFFCURVE",
"413 926 OFFCURVE",
"374 969 CURVE SMOOTH",
"335 1014 OFFCURVE",
"315 1067 OFFCURVE",
"315 1128 CURVE SMOOTH",
"315 1195 OFFCURVE",
"339 1248 OFFCURVE",
"386 1288 CURVE SMOOTH",
"433 1328 OFFCURVE",
"499 1348 OFFCURVE",
"582 1348 CURVE SMOOTH"
);
}
);
width = 1171;
}
);
unicode = 0038;
},
{
glyphname = nine;
lastChange = "2013-03-07 06:44:13 +0200";
layers = (
{
layerId = "98F5E167-1CFF-4278-A065-7BF212AD30BE";
name = Regular;
paths = (
{
closed = 1;
nodes = (
"430 1483 OFFCURVE",
"318 1439 OFFCURVE",
"233 1351 CURVE SMOOTH",
"148 1263 OFFCURVE",
"106 1143 OFFCURVE",
"106 990 CURVE SMOOTH",
"106 852 OFFCURVE",
"144 744 OFFCURVE",
"220 667 CURVE SMOOTH",
"296 590 OFFCURVE",
"399 551 OFFCURVE",
"528 551 CURVE SMOOTH",
"680 551 OFFCURVE",
"806 610 OFFCURVE",
"879 721 CURVE",
"891 721 LINE",
"876 312 OFFCURVE",
"715 117 OFFCURVE",
"395 117 CURVE SMOOTH",
"327 117 OFFCURVE",
"266 126 OFFCURVE",
"213 143 CURVE",
"213 0 LINE",
"258 -13 OFFCURVE",
"320 -20 OFFCURVE",
"397 -20 CURVE SMOOTH",
"840 -20 OFFCURVE",
"1061 266 OFFCURVE",
"1061 838 CURVE SMOOTH",
"1064 1237 OFFCURVE",
"866 1488 OFFCURVE",
"569 1483 CURVE SMOOTH"
);
},
{
closed = 1;
nodes = (
"758 1346 OFFCURVE",
"895 1165 OFFCURVE",
"893 956 CURVE",
"897 816 OFFCURVE",
"742 679 OFFCURVE",
"561 684 CURVE SMOOTH",
"365 684 OFFCURVE",
"270 801 OFFCURVE",
"270 992 CURVE SMOOTH",
"270 1212 OFFCURVE",
"378 1341 OFFCURVE",
"569 1341 CURVE SMOOTH"
);
}
);
width = 1171;
}
);
unicode = 0039;
},
{
glyphname = onehalf;
lastChange = "2013-03-07 06:44:13 +0200";
layers = (
{
layerId = "98F5E167-1CFF-4278-A065-7BF212AD30BE";
name = Regular;
paths = (
{
closed = 1;
nodes = (
"1087 1462 LINE",
"184 0 LINE",
"327 0 LINE",
"1230 1462 LINE"
);
},
{
closed = 1;
nodes = (
"308 1462 LINE",
"46 1280 LINE",
"113 1184 LINE",
"203 1247 OFFCURVE",
"257 1286 OFFCURVE",
"275 1301 CURVE SMOOTH",
"293 1316 OFFCURVE",
"309 1331 OFFCURVE",
"324 1346 CURVE",
"320 1286 OFFCURVE",
"318 1226 OFFCURVE",
"318 1165 CURVE SMOOTH",
"318 586 LINE",
"451 586 LINE",
"451 1462 LINE"
);
},
{
closed = 1;
nodes = (
"1089 896 OFFCURVE",
"993 859 OFFCURVE",
"907 785 CURVE",
"972 697 LINE",
"1019 730 OFFCURVE",
"1058 753 OFFCURVE",
"1091 766 CURVE SMOOTH",
"1124 779 OFFCURVE",
"1157 785 OFFCURVE",
"1192 785 CURVE SMOOTH",
"1276 785 OFFCURVE",
"1335 739 OFFCURVE",
"1335 648 CURVE SMOOTH",
"1335 612 OFFCURVE",
"1329 581 OFFCURVE",
"1318 556 CURVE SMOOTH",
"1307 531 OFFCURVE",
"1288 502 OFFCURVE",
"1261 469 CURVE SMOOTH",
"1234 437 OFFCURVE",
"1190 392 OFFCURVE",
"1131 335 CURVE SMOOTH",
"895 105 LINE",
"895 0 LINE",
"1499 0 LINE",
"1499 120 LINE",
"1059 120 LINE",
"1233 285 LINE SMOOTH",
"1331 377 OFFCURVE",
"1395 448 OFFCURVE",
"1424 498 CURVE SMOOTH",
"1454 549 OFFCURVE",
"1469 601 OFFCURVE",
"1469 654 CURVE SMOOTH",
"1469 803 OFFCURVE",
"1366 896 OFFCURVE",
"1190 896 CURVE SMOOTH"
);
}
);
width = 1597;
}
);
unicode = 00BD;
},
{
glyphname = onequarter;
lastChange = "2013-03-07 06:44:13 +0200";
layers = (
{
layerId = "98F5E167-1CFF-4278-A065-7BF212AD30BE";
name = Regular;
paths = (
{
closed = 1;
nodes = (
"1155 1462 LINE",
"252 0 LINE",
"395 0 LINE",
"1298 1462 LINE"
);
},
{
closed = 1;
nodes = (
"337 1462 LINE",
"75 1280 LINE",
"142 1184 LINE",
"232 1247 OFFCURVE",
"286 1286 OFFCURVE",
"304 1301 CURVE SMOOTH",
"322 1316 OFFCURVE",
"338 1331 OFFCURVE",
"353 1346 CURVE",
"349 1286 OFFCURVE",
"347 1226 OFFCURVE",
"347 1165 CURVE SMOOTH",
"347 586 LINE",
"480 586 LINE",
"480 1462 LINE"
);
},
{
closed = 1;
nodes = (
"1225 883 LINE",
"817 304 LINE",
"817 203 LINE",
"1219 203 LINE",
"1219 0 LINE",
"1364 0 LINE",
"1364 203 LINE",
"1489 203 LINE",
"1489 320 LINE",
"1364 320 LINE",
"1364 883 LINE"
);
},
{
closed = 1;
nodes = (
"1221 674 OFFCURVE",
"1219 604 OFFCURVE",
"1219 515 CURVE SMOOTH",
"1219 320 LINE",
"957 320 LINE",
"1125 566 LINE SMOOTH",
"1154 611 OFFCURVE",
"1212 693 OFFCURVE",
"1225 724 CURVE"
);
}
);
width = 1597;
}
);
unicode = 00BC;
},
{
glyphname = threequarters;
lastChange = "2013-03-07 06:44:13 +0200";
layers = (
{
layerId = "98F5E167-1CFF-4278-A065-7BF212AD30BE";
name = Regular;
paths = (
{
closed = 1;
nodes = (
"1247 1462 LINE",
"344 0 LINE",
"487 0 LINE",
"1390 1462 LINE"
);
},
{
closed = 1;
nodes = (
"202 1481 OFFCURVE",
"114 1442 OFFCURVE",
"30 1382 CURVE",
"98 1292 LINE",
"174 1339 OFFCURVE",
"245 1370 OFFCURVE",
"333 1370 CURVE SMOOTH",
"422 1370 OFFCURVE",
"480 1322 OFFCURVE",
"480 1241 CURVE SMOOTH",
"480 1150 OFFCURVE",
"415 1094 OFFCURVE",
"278 1094 CURVE SMOOTH",
"159 1094 LINE",
"159 986 LINE",
"276 986 LINE SMOOTH",
"430 986 OFFCURVE",
"507 939 OFFCURVE",
"507 842 CURVE SMOOTH",
"507 734 OFFCURVE",
"437 680 OFFCURVE",
"296 680 CURVE SMOOTH",
"214 680 OFFCURVE",
"124 703 OFFCURVE",
"26 748 CURVE",
"26 625 LINE",
"103 588 OFFCURVE",
"193 569 OFFCURVE",
"294 569 CURVE SMOOTH",
"518 569 OFFCURVE",
"646 669 OFFCURVE",
"646 840 CURVE SMOOTH",
"646 948 OFFCURVE",
"587 1018 OFFCURVE",
"470 1049 CURVE",
"561 1080 OFFCURVE",
"620 1148 OFFCURVE",
"620 1255 CURVE SMOOTH",
"620 1398 OFFCURVE",
"508 1481 OFFCURVE",
"327 1481 CURVE SMOOTH"
);
},
{
closed = 1;
nodes = (
"1305 883 LINE",
"897 304 LINE",
"897 203 LINE",
"1299 203 LINE",
"1299 0 LINE",
"1444 0 LINE",
"1444 203 LINE",
"1569 203 LINE",
"1569 320 LINE",
"1444 320 LINE",
"1444 883 LINE"
);
},
{
closed = 1;
nodes = (
"1301 674 OFFCURVE",
"1299 604 OFFCURVE",
"1299 515 CURVE SMOOTH",
"1299 320 LINE",
"1037 320 LINE",
"1205 566 LINE SMOOTH",
"1234 611 OFFCURVE",
"1292 693 OFFCURVE",
"1305 724 CURVE"
);
}
);
width = 1597;
}
);
unicode = 00BE;
},
{
glyphname = onesuperior;
lastChange = "2013-03-07 06:44:13 +0200";
layers = (
{
layerId = "98F5E167-1CFF-4278-A065-7BF212AD30BE";
name = Regular;
paths = (
{
closed = 1;
nodes = (
"338 1462 LINE",
"76 1280 LINE",
"143 1184 LINE",
"233 1247 OFFCURVE",
"287 1286 OFFCURVE",
"305 1301 CURVE SMOOTH",
"323 1316 OFFCURVE",
"339 1331 OFFCURVE",
"354 1346 CURVE",
"350 1286 OFFCURVE",
"348 1226 OFFCURVE",
"348 1165 CURVE SMOOTH",
"348 586 LINE",
"481 586 LINE",
"481 1462 LINE"
);
}
);
width = 711;
}
);
unicode = 00B9;
},
{
glyphname = twosuperior;
lastChange = "2013-03-07 06:44:13 +0200";
layers = (
{
layerId = "98F5E167-1CFF-4278-A065-7BF212AD30BE";
name = Regular;
paths = (
{
closed = 1;
nodes = (
"243 1481 OFFCURVE",
"148 1444 OFFCURVE",
"61 1370 CURVE",
"127 1282 LINE",
"173 1315 OFFCURVE",
"212 1338 OFFCURVE",
"245 1351 CURVE SMOOTH",
"278 1364 OFFCURVE",
"311 1370 OFFCURVE",
"346 1370 CURVE SMOOTH",
"430 1370 OFFCURVE",
"489 1324 OFFCURVE",
"489 1233 CURVE SMOOTH",
"489 1197 OFFCURVE",
"483 1166 OFFCURVE",
"472 1141 CURVE SMOOTH",
"461 1116 OFFCURVE",
"442 1087 OFFCURVE",
"415 1054 CURVE SMOOTH",
"388 1022 OFFCURVE",
"344 976 OFFCURVE",
"285 920 CURVE SMOOTH",
"49 690 LINE",
"49 586 LINE",
"653 586 LINE",
"653 705 LINE",
"213 705 LINE",
"387 870 LINE SMOOTH",
"485 962 OFFCURVE",
"549 1033 OFFCURVE",
"578 1083 CURVE SMOOTH",
"608 1134 OFFCURVE",
"623 1186 OFFCURVE",
"623 1239 CURVE SMOOTH",
"623 1388 OFFCURVE",
"520 1481 OFFCURVE",
"344 1481 CURVE SMOOTH"
);
}
);
width = 711;
}
);
unicode = 00B2;
},
{
glyphname = threesuperior;
lastChange = "2013-03-07 06:44:13 +0200";
layers = (
{
layerId = "98F5E167-1CFF-4278-A065-7BF212AD30BE";
name = Regular;
paths = (
{
closed = 1;
nodes = (
"209 1481 OFFCURVE",
"121 1442 OFFCURVE",
"37 1382 CURVE",
"106 1292 LINE",
"181 1339 OFFCURVE",
"252 1370 OFFCURVE",
"340 1370 CURVE SMOOTH",
"429 1370 OFFCURVE",
"487 1322 OFFCURVE",
"487 1241 CURVE SMOOTH",
"487 1150 OFFCURVE",
"422 1094 OFFCURVE",
"285 1094 CURVE SMOOTH",
"166 1094 LINE",
"166 986 LINE",
"283 986 LINE SMOOTH",
"437 986 OFFCURVE",
"514 939 OFFCURVE",
"514 842 CURVE SMOOTH",
"514 734 OFFCURVE",
"444 680 OFFCURVE",
"303 680 CURVE SMOOTH",
"221 680 OFFCURVE",
"131 703 OFFCURVE",
"33 748 CURVE",
"33 625 LINE",
"110 588 OFFCURVE",
"200 569 OFFCURVE",
"301 569 CURVE SMOOTH",
"525 569 OFFCURVE",
"653 669 OFFCURVE",
"653 840 CURVE SMOOTH",
"653 948 OFFCURVE",
"594 1018 OFFCURVE",
"477 1049 CURVE",
"568 1080 OFFCURVE",
"627 1148 OFFCURVE",
"627 1255 CURVE SMOOTH",
"627 1398 OFFCURVE",
"515 1481 OFFCURVE",
"334 1481 CURVE SMOOTH"
);
}
);
width = 711;
}
);
unicode = 00B3;
},
{
glyphname = asterisk;
lastChange = "2013-03-07 06:44:13 +0200";
layers = (
{
layerId = "98F5E167-1CFF-4278-A065-7BF212AD30BE";
name = Regular;
paths = (
{
closed = 1;
nodes = (
"463 1556 LINE",
"506 1161 LINE",
"115 1272 LINE",
"86 1090 LINE",
"463 1059 LINE",
"221 733 LINE",
"397 639 LINE",
"557 1001 LINE",
"733 639 LINE",
"905 733 LINE",
"657 1059 LINE",
"1038 1090 LINE",
"1012 1272 LINE",
"614 1161 LINE",
"657 1556 LINE"
);
}
);
width = 1130;
}
);
unicode = 002A;
},
{
glyphname = backslash;
lastChange = "2013-03-07 06:44:13 +0200";
layers = (
{
layerId = "98F5E167-1CFF-4278-A065-7BF212AD30BE";
name = Regular;
paths = (
{
closed = 1;
nodes = (
"23 1462 LINE",
"567 0 LINE",
"733 0 LINE",
"186 1462 LINE"
);
}
);
width = 752;
}
);
unicode = 005C;
},
{
glyphname = bullet;
lastChange = "2013-03-07 06:44:13 +0200";
layers = (
{
layerId = "98F5E167-1CFF-4278-A065-7BF212AD30BE";
name = Regular;
paths = (
{
closed = 1;
nodes = (
"241 994 OFFCURVE",
"164 909 OFFCURVE",
"164 748 CURVE SMOOTH",
"164 592 OFFCURVE",
"242 500 OFFCURVE",
"385 500 CURVE SMOOTH",
"526 500 OFFCURVE",
"606 589 OFFCURVE",
"606 748 CURVE SMOOTH",
"606 912 OFFCURVE",
"525 994 OFFCURVE",
"385 994 CURVE SMOOTH"
);
}
);
width = 770;
}
);
unicode = 2022;
},
{
glyphname = colon;
lastChange = "2013-03-07 06:44:13 +0200";
layers = (
{
layerId = "98F5E167-1CFF-4278-A065-7BF212AD30BE";
name = Regular;
paths = (
{
closed = 1;
nodes = (
"194 242 OFFCURVE",
"152 195 OFFCURVE",
"152 106 CURVE SMOOTH",
"152 9 OFFCURVE",
"202 -29 OFFCURVE",
"270 -29 CURVE SMOOTH",
"346 -29 OFFCURVE",
"393 19 OFFCURVE",
"393 106 CURVE SMOOTH",
"393 195 OFFCURVE",
"347 242 OFFCURVE",
"270 242 CURVE SMOOTH"
);
},
{
closed = 1;
nodes = (
"191 1124 OFFCURVE",
"152 1079 OFFCURVE",
"152 988 CURVE SMOOTH",
"152 893 OFFCURVE",
"202 854 OFFCURVE",
"270 854 CURVE SMOOTH",
"346 854 OFFCURVE",
"393 902 OFFCURVE",
"393 988 CURVE SMOOTH",
"393 1079 OFFCURVE",
"352 1124 OFFCURVE",
"270 1124 CURVE SMOOTH"
);
}
);
width = 545;
}
);
unicode = 003A;
},
{
glyphname = comma;
lastChange = "2013-03-07 06:44:13 +0200";
layers = (
{
layerId = "98F5E167-1CFF-4278-A065-7BF212AD30BE";
name = Regular;
paths = (
{
closed = 1;
nodes = (
"168 238 LINE",
"159 177 OFFCURVE",
"144 94 OFFCURVE",
"122 -7 CURVE SMOOTH",
"101 -109 OFFCURVE",
"81 -195 OFFCURVE",
"63 -264 CURVE",
"188 -264 LINE",
"223 -188 OFFCURVE",
"257 -106 OFFCURVE",
"290 -17 CURVE SMOOTH",
"323 71 OFFCURVE",
"348 148 OFFCURVE",
"365 215 CURVE",
"350 238 LINE"
);
}
);
width = 502;
}
);
unicode = 002C;
},
{
glyphname = ellipsis;
lastChange = "2013-03-07 06:44:13 +0200";
layers = (
{
layerId = "98F5E167-1CFF-4278-A065-7BF212AD30BE";
name = Regular;
paths = (
{
closed = 1;
nodes = (
"1255 242 OFFCURVE",
"1213 195 OFFCURVE",
"1213 106 CURVE SMOOTH",
"1213 9 OFFCURVE",
"1263 -29 OFFCURVE",
"1331 -29 CURVE SMOOTH",
"1407 -29 OFFCURVE",
"1454 19 OFFCURVE",
"1454 106 CURVE SMOOTH",
"1454 195 OFFCURVE",
"1408 242 OFFCURVE",
"1331 242 CURVE SMOOTH"
);
},
{
closed = 1;
nodes = (
"194 242 OFFCURVE",
"152 195 OFFCURVE",
"152 106 CURVE SMOOTH",
"152 9 OFFCURVE",
"202 -29 OFFCURVE",
"270 -29 CURVE SMOOTH",
"346 -29 OFFCURVE",
"393 19 OFFCURVE",
"393 106 CURVE SMOOTH",
"393 195 OFFCURVE",
"347 242 OFFCURVE",
"270 242 CURVE SMOOTH"
);
},
{
closed = 1;
nodes = (
"724 242 OFFCURVE",
"682 195 OFFCURVE",
"682 106 CURVE SMOOTH",
"682 9 OFFCURVE",
"732 -29 OFFCURVE",
"800 -29 CURVE SMOOTH",
"876 -29 OFFCURVE",
"923 19 OFFCURVE",
"923 106 CURVE SMOOTH",
"923 195 OFFCURVE",
"877 242 OFFCURVE",
"800 242 CURVE SMOOTH"
);
}
);
width = 1606;
}
);
unicode = 2026;
},
{
glyphname = exclam;
lastChange = "2013-03-07 06:44:13 +0200";
layers = (
{
layerId = "98F5E167-1CFF-4278-A065-7BF212AD30BE";
name = Regular;
paths = (
{
closed = 1;
nodes = (
"170 1462 LINE",
"221 403 LINE",
"326 403 LINE",
"377 1462 LINE"
);
},
{
closed = 1;
nodes = (
"192 242 OFFCURVE",
"152 197 OFFCURVE",
"152 106 CURVE SMOOTH",
"152 9 OFFCURVE",
"203 -29 OFFCURVE",
"272 -29 CURVE SMOOTH",
"348 -29 OFFCURVE",
"393 21 OFFCURVE",
"393 106 CURVE SMOOTH",
"393 194 OFFCURVE",
"349 242 OFFCURVE",
"272 242 CURVE SMOOTH"
);
}
);
width = 547;
}
);
unicode = 0021;
},
{
glyphname = exclamdown;
lastChange = "2013-03-07 06:44:13 +0200";
layers = (
{
layerId = "98F5E167-1CFF-4278-A065-7BF212AD30BE";
name = Regular;
paths = (
{
closed = 1;
nodes = (
"219 684 LINE",
"168 -373 LINE",
"375 -373 LINE",
"324 684 LINE"
);
},
{
closed = 1;
nodes = (
"196 1118 OFFCURVE",
"152 1067 OFFCURVE",
"152 982 CURVE SMOOTH",
"152 898 OFFCURVE",
"192 848 OFFCURVE",
"272 848 CURVE SMOOTH",
"353 848 OFFCURVE",
"393 893 OFFCURVE",
"393 982 CURVE SMOOTH",
"393 1078 OFFCURVE",
"340 1118 OFFCURVE",
"272 1118 CURVE SMOOTH"
);
}
);
width = 547;
}
);
unicode = 00A1;
},
{
glyphname = numbersign;
lastChange = "2013-03-07 06:44:13 +0200";
layers = (
{
layerId = "98F5E167-1CFF-4278-A065-7BF212AD30BE";
name = Regular;
paths = (
{
closed = 1;
nodes = (
"956 1462 LINE",
"872 1026 LINE",
"567 1026 LINE",
"649 1462 LINE",
"510 1462 LINE",
"428 1026 LINE",
"129 1026 LINE",
"129 899 LINE",
"406 899 LINE",
"338 559 LINE",
"51 559 LINE",
"51 430 LINE",
"313 430 LINE",
"233 0 LINE",
"369 0 LINE",
"451 430 LINE",
"754 430 LINE",
"670 0 LINE",
"807 0 LINE",
"891 430 LINE",
"1198 430 LINE",
"1198 559 LINE",
"915 559 LINE",
"980 899 LINE",
"1270 899 LINE",
"1270 1026 LINE",
"1006 1026 LINE",
"1090 1462 LINE"
);
},
{
closed = 1;
nodes = (
"778 559 LINE",
"475 559 LINE",
"541 899 LINE",
"844 899 LINE"
);
}
);
width = 1323;
}
);
unicode = 0023;
},
{
glyphname = period;
lastChange = "2013-03-07 06:44:13 +0200";
layers = (
{
layerId = "98F5E167-1CFF-4278-A065-7BF212AD30BE";
name = Regular;
paths = (
{
closed = 1;
nodes = (
"194 242 OFFCURVE",
"152 195 OFFCURVE",
"152 106 CURVE SMOOTH",
"152 9 OFFCURVE",
"202 -29 OFFCURVE",
"270 -29 CURVE SMOOTH",
"346 -29 OFFCURVE",
"393 19 OFFCURVE",
"393 106 CURVE SMOOTH",
"393 195 OFFCURVE",
"347 242 OFFCURVE",
"270 242 CURVE SMOOTH"
);
}
);
width = 545;
}
);
unicode = 002E;
},
{
glyphname = periodcentered;
lastChange = "2013-03-07 06:44:13 +0200";
layers = (
{
layerId = "98F5E167-1CFF-4278-A065-7BF212AD30BE";
name = Regular;
paths = (
{
closed = 1;
nodes = (
"195 858 OFFCURVE",
"152 811 OFFCURVE",
"152 723 CURVE SMOOTH",
"152 627 OFFCURVE",
"202 588 OFFCURVE",
"270 588 CURVE SMOOTH",
"346 588 OFFCURVE",
"393 636 OFFCURVE",
"393 723 CURVE SMOOTH",
"393 811 OFFCURVE",
"347 858 OFFCURVE",
"270 858 CURVE SMOOTH"
);
}
);
width = 545;
}
);
unicode = 00B7;
},
{
glyphname = question;
lastChange = "2013-03-07 06:44:13 +0200";
layers = (
{
layerId = "98F5E167-1CFF-4278-A065-7BF212AD30BE";
name = Regular;
paths = (
{
closed = 1;
nodes = (
"285 1483 OFFCURVE",
"153 1450 OFFCURVE",
"27 1384 CURVE",
"86 1249 LINE",
"151 1282 OFFCURVE",
"208 1304 OFFCURVE",
"258 1316 CURVE SMOOTH",
"308 1329 OFFCURVE",
"359 1335 OFFCURVE",
"412 1335 CURVE SMOOTH",
"576 1335 OFFCURVE",
"666 1258 OFFCURVE",
"666 1122 CURVE SMOOTH",
"666 1067 OFFCURVE",
"654 1021 OFFCURVE",
"630 981 CURVE SMOOTH",
"607 943 OFFCURVE",
"550 886 OFFCURVE",
"459 809 CURVE SMOOTH",
"394 753 OFFCURVE",
"349 700 OFFCURVE",
"325 649 CURVE SMOOTH",
"301 599 OFFCURVE",
"289 535 OFFCURVE",
"289 457 CURVE SMOOTH",
"289 403 LINE",
"418 403 LINE",
"418 436 LINE SMOOTH",
"418 499 OFFCURVE",
"429 550 OFFCURVE",
"450 588 CURVE SMOOTH",
"472 626 OFFCURVE",
"517 674 OFFCURVE",
"584 731 CURVE SMOOTH",
"668 804 OFFCURVE",
"723 857 OFFCURVE",
"748 890 CURVE SMOOTH",
"799 957 OFFCURVE",
"825 1027 OFFCURVE",
"825 1124 CURVE SMOOTH",
"825 1238 OFFCURVE",
"790 1326 OFFCURVE",
"719 1389 CURVE SMOOTH",
"648 1452 OFFCURVE",
"549 1483 OFFCURVE",
"422 1483 CURVE SMOOTH"
);
},
{
closed = 1;
nodes = (
"280 242 OFFCURVE",
"240 197 OFFCURVE",
"240 106 CURVE SMOOTH",
"240 9 OFFCURVE",
"291 -29 OFFCURVE",
"360 -29 CURVE SMOOTH",
"436 -29 OFFCURVE",
"481 21 OFFCURVE",
"481 106 CURVE SMOOTH",
"481 194 OFFCURVE",
"437 242 OFFCURVE",
"360 242 CURVE SMOOTH"
);
}
);
width = 879;
}
);
unicode = 003F;
},
{
glyphname = questiondown;
lastChange = "2013-03-07 06:44:13 +0200";
layers = (
{
layerId = "98F5E167-1CFF-4278-A065-7BF212AD30BE";
name = Regular;
paths = (
{
closed = 1;
nodes = (
"459 684 LINE",
"459 653 LINE SMOOTH",
"459 591 OFFCURVE",
"448 541 OFFCURVE",
"426 502 CURVE SMOOTH",
"405 463 OFFCURVE",
"360 415 OFFCURVE",
"293 356 CURVE SMOOTH",
"149 231 OFFCURVE",
"51 150 OFFCURVE",
"51 -37 CURVE SMOOTH",
"51 -150 OFFCURVE",
"87 -238 OFFCURVE",
"159 -300 CURVE SMOOTH",
"231 -362 OFFCURVE",
"330 -393 OFFCURVE",
"457 -393 CURVE SMOOTH",
"589 -393 OFFCURVE",
"721 -361 OFFCURVE",
"852 -297 CURVE",
"793 -162 LINE",
"728 -194 OFFCURVE",
"670 -216 OFFCURVE",
"620 -229 CURVE SMOOTH",
"570 -242 OFFCURVE",
"518 -248 OFFCURVE",
"465 -248 CURVE SMOOTH",
"302 -248 OFFCURVE",
"211 -168 OFFCURVE",
"211 -35 CURVE SMOOTH",
"211 2 OFFCURVE",
"215 34 OFFCURVE",
"223 59 CURVE SMOOTH",
"232 85 OFFCURVE",
"246 110 OFFCURVE",
"266 135 CURVE SMOOTH",
"287 160 OFFCURVE",
"337 208 OFFCURVE",
"418 279 CURVE SMOOTH",
"483 335 OFFCURVE",
"527 388 OFFCURVE",
"552 437 CURVE SMOOTH",
"577 486 OFFCURVE",
"590 552 OFFCURVE",
"590 633 CURVE SMOOTH",
"590 684 LINE"
);
},
{
closed = 1;
nodes = (
"445 1118 OFFCURVE",
"397 1068 OFFCURVE",
"397 982 CURVE SMOOTH",
"397 895 OFFCURVE",
"439 848 OFFCURVE",
"518 848 CURVE SMOOTH",
"599 848 OFFCURVE",
"639 893 OFFCURVE",
"639 982 CURVE SMOOTH",
"639 1078 OFFCURVE",
"586 1118 OFFCURVE",
"518 1118 CURVE SMOOTH"
);
}
);
width = 879;
}
);
unicode = 00BF;
},
{
glyphname = quotedbl;
lastChange = "2013-03-07 06:44:13 +0200";
layers = (
{
layerId = "98F5E167-1CFF-4278-A065-7BF212AD30BE";
name = Regular;
paths = (
{
closed = 1;
nodes = (
"502 1462 LINE",
"543 934 LINE",
"647 934 LINE",
"688 1462 LINE"
);
},
{
closed = 1;
nodes = (
"133 1462 LINE",
"174 934 LINE",
"279 934 LINE",
"319 1462 LINE"
);
}
);
width = 821;
}
);
unicode = 0022;
},
{
glyphname = quotesingle;
lastChange = "2013-03-07 06:44:13 +0200";
layers = (
{
layerId = "98F5E167-1CFF-4278-A065-7BF212AD30BE";
name = Regular;
paths = (
{
closed = 1;
nodes = (
"133 1462 LINE",
"174 934 LINE",
"279 934 LINE",
"319 1462 LINE"
);
}
);
width = 453;
}
);
unicode = 0027;
},
{
glyphname = semicolon;
lastChange = "2013-03-07 06:44:13 +0200";
layers = (
{
layerId = "98F5E167-1CFF-4278-A065-7BF212AD30BE";
name = Regular;
paths = (
{
closed = 1;
nodes = (
"168 238 LINE",
"159 177 OFFCURVE",
"144 94 OFFCURVE",
"122 -7 CURVE SMOOTH",
"101 -109 OFFCURVE",
"81 -195 OFFCURVE",
"63 -264 CURVE",
"188 -264 LINE",
"223 -188 OFFCURVE",
"257 -106 OFFCURVE",
"290 -17 CURVE SMOOTH",
"323 71 OFFCURVE",
"348 148 OFFCURVE",
"365 215 CURVE",
"350 238 LINE"
);
},
{
closed = 1;
nodes = (
"187 1124 OFFCURVE",
"147 1079 OFFCURVE",
"147 988 CURVE SMOOTH",
"147 902 OFFCURVE",
"189 854 OFFCURVE",
"266 854 CURVE SMOOTH",
"342 854 OFFCURVE",
"389 902 OFFCURVE",
"389 988 CURVE SMOOTH",
"389 1079 OFFCURVE",
"348 1124 OFFCURVE",
"266 1124 CURVE SMOOTH"
);
}
);
width = 545;
}
);
unicode = 003B;
},
{
glyphname = slash;
lastChange = "2013-03-07 06:44:13 +0200";
layers = (
{
layerId = "98F5E167-1CFF-4278-A065-7BF212AD30BE";
name = Regular;
paths = (
{
closed = 1;
nodes = (
"565 1462 LINE",
"20 0 LINE",
"186 0 LINE",
"731 1462 LINE"
);
}
);
width = 752;
}
);
unicode = 002F;
},
{
glyphname = underscore;
lastChange = "2013-03-07 06:44:13 +0200";
layers = (
{
layerId = "98F5E167-1CFF-4278-A065-7BF212AD30BE";
name = Regular;
paths = (
{
closed = 1;
nodes = (
"-4 -184 LINE",
"-4 -315 LINE",
"922 -315 LINE",
"922 -184 LINE"
);
}
);
width = 918;
}
);
unicode = 005F;
},
{
glyphname = braceleft;
lastChange = "2013-03-07 06:44:13 +0200";
layers = (
{
layerId = "98F5E167-1CFF-4278-A065-7BF212AD30BE";
name = Regular;
paths = (
{
closed = 1;
nodes = (
"584 1462 OFFCURVE",
"487 1433 OFFCURVE",
"415 1376 CURVE SMOOTH",
"343 1319 OFFCURVE",
"307 1238 OFFCURVE",
"307 1135 CURVE SMOOTH",
"307 829 LINE SMOOTH",
"307 701 OFFCURVE",
"234 642 OFFCURVE",
"61 639 CURVE",
"61 498 LINE",
"221 498 OFFCURVE",
"307 444 OFFCURVE",
"307 305 CURVE SMOOTH",
"307 2 LINE SMOOTH",
"307 -203 OFFCURVE",
"452 -321 OFFCURVE",
"705 -324 CURVE",
"705 -184 LINE",
"554 -181 OFFCURVE",
"475 -124 OFFCURVE",
"475 12 CURVE SMOOTH",
"475 309 LINE SMOOTH",
"475 452 OFFCURVE",
"401 537 OFFCURVE",
"252 563 CURVE",
"252 575 LINE",
"401 601 OFFCURVE",
"475 686 OFFCURVE",
"475 829 CURVE SMOOTH",
"475 1124 LINE SMOOTH",
"475 1253 OFFCURVE",
"552 1319 OFFCURVE",
"705 1323 CURVE",
"705 1462 LINE"
);
}
);
width = 776;
}
);
unicode = 007B;
},
{
glyphname = braceright;
lastChange = "2013-03-07 06:44:13 +0200";
layers = (
{
layerId = "98F5E167-1CFF-4278-A065-7BF212AD30BE";
name = Regular;
paths = (
{
closed = 1;
nodes = (
"72 1323 LINE",
"223 1319 OFFCURVE",
"299 1253 OFFCURVE",
"299 1124 CURVE SMOOTH",
"299 829 LINE SMOOTH",
"299 686 OFFCURVE",
"373 601 OFFCURVE",
"522 575 CURVE",
"522 563 LINE",
"371 536 OFFCURVE",
"299 461 OFFCURVE",
"299 309 CURVE SMOOTH",
"299 12 LINE SMOOTH",
"299 -124 OFFCURVE",
"220 -181 OFFCURVE",
"72 -184 CURVE",
"72 -324 LINE",
"325 -321 OFFCURVE",
"467 -202 OFFCURVE",
"467 2 CURVE SMOOTH",
"467 305 LINE SMOOTH",
"467 444 OFFCURVE",
"552 498 OFFCURVE",
"715 498 CURVE",
"715 639 LINE",
"542 642 OFFCURVE",
"467 700 OFFCURVE",
"467 829 CURVE SMOOTH",
"467 1135 LINE SMOOTH",
"467 1237 OFFCURVE",
"432 1317 OFFCURVE",
"361 1375 CURVE SMOOTH",
"291 1433 OFFCURVE",
"195 1462 OFFCURVE",
"72 1462 CURVE"
);
}
);
width = 776;
}
);
unicode = 007D;
},
{
glyphname = bracketleft;
lastChange = "2013-03-07 06:44:13 +0200";
layers = (
{
layerId = "98F5E167-1CFF-4278-A065-7BF212AD30BE";
name = Regular;
paths = (
{
closed = 1;
nodes = (
"166 1462 LINE",
"166 -324 LINE",
"623 -324 LINE",
"623 -182 LINE",
"334 -182 LINE",
"334 1321 LINE",
"623 1321 LINE",
"623 1462 LINE"
);
}
);
width = 674;
}
);
unicode = 005B;
},
{
glyphname = bracketright;
lastChange = "2013-03-07 06:44:13 +0200";
layers = (
{
layerId = "98F5E167-1CFF-4278-A065-7BF212AD30BE";
name = Regular;
paths = (
{
closed = 1;
nodes = (
"51 1462 LINE",
"51 1321 LINE",
"340 1321 LINE",
"340 -182 LINE",
"51 -182 LINE",
"51 -324 LINE",
"508 -324 LINE",
"508 1462 LINE"
);
}
);
width = 674;
}
);
unicode = 005D;
},
{
glyphname = parenleft;
lastChange = "2013-03-07 06:44:13 +0200";
layers = (
{
layerId = "98F5E167-1CFF-4278-A065-7BF212AD30BE";
name = Regular;
paths = (
{
closed = 1;
nodes = (
"383 1462 LINE",
"188 1230 OFFCURVE",
"82 914 OFFCURVE",
"82 561 CURVE SMOOTH",
"82 213 OFFCURVE",
"187 -96 OFFCURVE",
"383 -324 CURVE",
"543 -324 LINE",
"450 -198 OFFCURVE",
"379 -59 OFFCURVE",
"330 93 CURVE SMOOTH",
"281 247 OFFCURVE",
"256 403 OFFCURVE",
"256 563 CURVE SMOOTH",
"256 888 OFFCURVE",
"353 1205 OFFCURVE",
"545 1462 CURVE"
);
}
);
width = 606;
}
);
unicode = 0028;
},
{
glyphname = parenright;
lastChange = "2013-03-07 06:44:13 +0200";
layers = (
{
layerId = "98F5E167-1CFF-4278-A065-7BF212AD30BE";
name = Regular;
paths = (
{
closed = 1;
nodes = (
"61 1462 LINE",
"253 1205 OFFCURVE",
"350 888 OFFCURVE",
"350 563 CURVE SMOOTH",
"350 403 OFFCURVE",
"325 246 OFFCURVE",
"276 92 CURVE SMOOTH",
"227 -60 OFFCURVE",
"156 -199 OFFCURVE",
"63 -324 CURVE",
"223 -324 LINE",
"418 -99 OFFCURVE",
"524 210 OFFCURVE",
"524 561 CURVE SMOOTH",
"524 736 OFFCURVE",
"498 901 OFFCURVE",
"447 1055 CURVE SMOOTH",
"396 1210 OFFCURVE",
"321 1345 OFFCURVE",
"223 1462 CURVE"
);
}
);
width = 606;
}
);
unicode = 0029;
},
{
glyphname = emdash;
lastChange = "2013-03-07 06:44:13 +0200";
layers = (
{
layerId = "98F5E167-1CFF-4278-A065-7BF212AD30BE";
name = Regular;
paths = (
{
closed = 1;
nodes = (
"82 625 LINE",
"82 473 LINE",
"1966 473 LINE",
"1966 625 LINE"
);
}
);
width = 2048;
}
);
unicode = 2014;
},
{
glyphname = endash;
lastChange = "2013-03-07 06:44:13 +0200";
layers = (
{
layerId = "98F5E167-1CFF-4278-A065-7BF212AD30BE";
name = Regular;
paths = (
{
closed = 1;
nodes = (
"82 625 LINE",
"82 473 LINE",
"942 473 LINE",
"942 625 LINE"
);
}
);
width = 1024;
}
);
unicode = 2013;
},
{
glyphname = hyphen;
lastChange = "2013-03-07 06:44:13 +0200";
layers = (
{
layerId = "98F5E167-1CFF-4278-A065-7BF212AD30BE";
name = Regular;
paths = (
{
closed = 1;
nodes = (
"84 625 LINE",
"84 473 LINE",
"575 473 LINE",
"575 625 LINE"
);
}
);
width = 659;
}
);
unicode = 002D;
},
{
glyphname = uni00AD;
lastChange = "2013-03-07 06:44:13 +0200";
layers = (
{
layerId = "98F5E167-1CFF-4278-A065-7BF212AD30BE";
name = Regular;
paths = (
{
closed = 1;
nodes = (
"84 625 LINE",
"84 473 LINE",
"575 473 LINE",
"575 625 LINE"
);
}
);
width = 659;
}
);
unicode = 00AD;
},
{
glyphname = guillemotleft;
lastChange = "2013-03-07 06:44:13 +0200";
layers = (
{
layerId = "98F5E167-1CFF-4278-A065-7BF212AD30BE";
name = Regular;
paths = (
{
closed = 1;
nodes = (
"477 551 LINE",
"477 524 LINE",
"821 117 LINE",
"938 188 LINE",
"651 539 LINE",
"938 889 LINE",
"821 958 LINE"
);
},
{
closed = 1;
nodes = (
"82 551 LINE",
"82 524 LINE",
"424 117 LINE",
"543 188 LINE",
"254 539 LINE",
"543 889 LINE",
"424 958 LINE"
);
}
);
width = 1018;
}
);
unicode = 00AB;
},
{
glyphname = guillemotright;
lastChange = "2013-03-07 06:44:13 +0200";
layers = (
{
layerId = "98F5E167-1CFF-4278-A065-7BF212AD30BE";
name = Regular;
paths = (
{
closed = 1;
nodes = (
"475 889 LINE",
"762 539 LINE",
"475 188 LINE",
"592 117 LINE",
"936 524 LINE",
"936 551 LINE",
"592 958 LINE"
);
},
{
closed = 1;
nodes = (
"80 889 LINE",
"367 539 LINE",
"80 188 LINE",
"197 117 LINE",
"541 524 LINE",
"541 551 LINE",
"197 958 LINE"
);
}
);
width = 1018;
}
);
unicode = 00BB;
},
{
glyphname = guilsinglleft;
lastChange = "2013-03-07 06:44:13 +0200";
layers = (
{
layerId = "98F5E167-1CFF-4278-A065-7BF212AD30BE";
name = Regular;
paths = (
{
closed = 1;
nodes = (
"82 551 LINE",
"82 524 LINE",
"424 117 LINE",
"543 188 LINE",
"254 539 LINE",
"543 889 LINE",
"424 958 LINE"
);
}
);
width = 623;
}
);
unicode = 2039;
},
{
glyphname = guilsinglright;
lastChange = "2013-03-07 06:44:13 +0200";
layers = (
{
layerId = "98F5E167-1CFF-4278-A065-7BF212AD30BE";
name = Regular;
paths = (
{
closed = 1;
nodes = (
"80 889 LINE",
"367 539 LINE",
"80 188 LINE",
"197 117 LINE",
"541 524 LINE",
"541 551 LINE",
"197 958 LINE"
);
}
);
width = 623;
}
);
unicode = 203A;
},
{
glyphname = quotedblbase;
lastChange = "2013-03-07 06:44:13 +0200";
layers = (
{
layerId = "98F5E167-1CFF-4278-A065-7BF212AD30BE";
name = Regular;
paths = (
{
closed = 1;
nodes = (
"496 238 LINE",
"487 176 OFFCURVE",
"472 93 OFFCURVE",
"450 -9 CURVE SMOOTH",
"428 -112 OFFCURVE",
"408 -196 OFFCURVE",
"391 -263 CURVE",
"516 -263 LINE",
"553 -182 OFFCURVE",
"588 -96 OFFCURVE",
"620 -8 CURVE SMOOTH",
"652 81 OFFCURVE",
"676 155 OFFCURVE",
"692 216 CURVE",
"678 238 LINE"
);
},
{
closed = 1;
nodes = (
"127 238 LINE",
"106 93 OFFCURVE",
"72 -73 OFFCURVE",
"25 -263 CURVE",
"147 -263 LINE",
"182 -187 OFFCURVE",
"216 -105 OFFCURVE",
"249 -16 CURVE SMOOTH",
"282 72 OFFCURVE",
"307 149 OFFCURVE",
"324 216 CURVE",
"309 238 LINE"
);
}
);
width = 829;
}
);
unicode = 201E;
},
{
glyphname = quotedblleft;
lastChange = "2013-03-07 06:44:13 +0200";
layers = (
{
layerId = "98F5E167-1CFF-4278-A065-7BF212AD30BE";
name = Regular;
paths = (
{
closed = 1;
nodes = (
"569 1462 LINE",
"488 1286 OFFCURVE",
"428 1126 OFFCURVE",
"391 982 CURVE",
"406 961 LINE",
"590 961 LINE",
"599 1026 OFFCURVE",
"613 1106 OFFCURVE",
"632 1202 CURVE SMOOTH",
"652 1299 OFFCURVE",
"672 1385 OFFCURVE",
"692 1462 CURVE"
);
},
{
closed = 1;
nodes = (
"201 1462 LINE",
"164 1381 OFFCURVE",
"129 1296 OFFCURVE",
"95 1207 CURVE SMOOTH",
"63 1118 OFFCURVE",
"40 1043 OFFCURVE",
"25 982 CURVE",
"37 961 LINE",
"221 961 LINE",
"246 1126 OFFCURVE",
"280 1293 OFFCURVE",
"324 1462 CURVE"
);
}
);
width = 717;
}
);
unicode = 201C;
},
{
glyphname = quotedblright;
lastChange = "2013-03-07 06:44:13 +0200";
layers = (
{
layerId = "98F5E167-1CFF-4278-A065-7BF212AD30BE";
name = Regular;
paths = (
{
closed = 1;
nodes = (
"496 1462 LINE",
"487 1400 OFFCURVE",
"472 1318 OFFCURVE",
"450 1215 CURVE SMOOTH",
"428 1112 OFFCURVE",
"408 1028 OFFCURVE",
"391 961 CURVE",
"516 961 LINE",
"553 1042 OFFCURVE",
"588 1127 OFFCURVE",
"620 1216 CURVE SMOOTH",
"652 1305 OFFCURVE",
"676 1379 OFFCURVE",
"692 1440 CURVE",
"678 1462 LINE"
);
},
{
closed = 1;
nodes = (
"127 1462 LINE",
"106 1318 OFFCURVE",
"72 1151 OFFCURVE",
"25 961 CURVE",
"147 961 LINE",
"182 1037 OFFCURVE",
"216 1119 OFFCURVE",
"249 1207 CURVE SMOOTH",
"282 1296 OFFCURVE",
"307 1373 OFFCURVE",
"324 1440 CURVE",
"309 1462 LINE"
);
}
);
width = 717;
}
);
unicode = 201D;
},
{
glyphname = quoteleft;
lastChange = "2013-03-07 06:44:13 +0200";
layers = (
{
layerId = "98F5E167-1CFF-4278-A065-7BF212AD30BE";
name = Regular;
paths = (
{
closed = 1;
nodes = (
"201 1462 LINE",
"164 1381 OFFCURVE",
"129 1296 OFFCURVE",
"95 1207 CURVE SMOOTH",
"63 1118 OFFCURVE",
"40 1043 OFFCURVE",
"25 982 CURVE",
"37 961 LINE",
"221 961 LINE",
"246 1126 OFFCURVE",
"280 1293 OFFCURVE",
"324 1462 CURVE"
);
}
);
width = 348;
}
);
unicode = 2018;
},
{
glyphname = quoteright;
lastChange = "2013-03-07 06:44:13 +0200";
layers = (
{
layerId = "98F5E167-1CFF-4278-A065-7BF212AD30BE";
name = Regular;
paths = (
{
closed = 1;
nodes = (
"127 1462 LINE",
"106 1318 OFFCURVE",
"72 1151 OFFCURVE",
"25 961 CURVE",
"147 961 LINE",
"182 1037 OFFCURVE",
"216 1119 OFFCURVE",
"249 1207 CURVE SMOOTH",
"282 1296 OFFCURVE",
"307 1373 OFFCURVE",
"324 1440 CURVE",
"309 1462 LINE"
);
}
);
width = 348;
}
);
unicode = 2019;
},
{
glyphname = quotesinglbase;
lastChange = "2013-03-07 06:44:13 +0200";
layers = (
{
layerId = "98F5E167-1CFF-4278-A065-7BF212AD30BE";
name = Regular;
paths = (
{
closed = 1;
nodes = (
"168 238 LINE",
"159 177 OFFCURVE",
"144 94 OFFCURVE",
"122 -7 CURVE SMOOTH",
"101 -109 OFFCURVE",
"81 -195 OFFCURVE",
"63 -264 CURVE",
"188 -264 LINE",
"223 -188 OFFCURVE",
"257 -106 OFFCURVE",
"290 -17 CURVE SMOOTH",
"323 71 OFFCURVE",
"348 148 OFFCURVE",
"365 215 CURVE",
"350 238 LINE"
);
}
);
width = 502;
}
);
unicode = 201A;
},
{
glyphname = "geresh-hb";
lastChange = "2013-03-07 06:44:13 +0200";
layers = (
{
layerId = "98F5E167-1CFF-4278-A065-7BF212AD30BE";
name = Regular;
paths = (
{
closed = 1;
nodes = (
"127 1290 LINE",
"106 1146 OFFCURVE",
"72 978 OFFCURVE",
"25 789 CURVE",
"147 789 LINE",
"182 865 OFFCURVE",
"216 947 OFFCURVE",
"249 1035 CURVE SMOOTH",
"282 1124 OFFCURVE",
"307 1201 OFFCURVE",
"324 1268 CURVE",
"309 1290 LINE"
);
}
);
width = 348;
}
);
unicode = 05F3;
},
{
glyphname = "gershayim-hb";
lastChange = "2013-03-07 06:44:13 +0200";
layers = (
{
layerId = "98F5E167-1CFF-4278-A065-7BF212AD30BE";
name = Regular;
paths = (
{
closed = 1;
nodes = (
"496 1290 LINE",
"487 1228 OFFCURVE",
"472 1146 OFFCURVE",
"450 1043 CURVE SMOOTH",
"428 940 OFFCURVE",
"408 856 OFFCURVE",
"391 789 CURVE",
"516 789 LINE",
"553 870 OFFCURVE",
"588 955 OFFCURVE",
"620 1044 CURVE SMOOTH",
"652 1133 OFFCURVE",
"676 1207 OFFCURVE",
"692 1268 CURVE",
"678 1290 LINE"
);
},
{
closed = 1;
nodes = (
"127 1290 LINE",
"106 1146 OFFCURVE",
"72 978 OFFCURVE",
"25 789 CURVE",
"147 789 LINE",
"182 865 OFFCURVE",
"216 947 OFFCURVE",
"249 1035 CURVE SMOOTH",
"282 1124 OFFCURVE",
"307 1201 OFFCURVE",
"324 1268 CURVE",
"309 1290 LINE"
);
}
);
width = 717;
}
);
unicode = 05F4;
},
{
glyphname = "maqaf-hb";
lastChange = "2013-03-07 06:44:13 +0200";
layers = (
{
layerId = "98F5E167-1CFF-4278-A065-7BF212AD30BE";
name = Regular;
paths = (
{
closed = 1;
nodes = (
"84 1290 LINE",
"84 1138 LINE",
"575 1138 LINE",
"575 1290 LINE"
);
}
);
width = 659;
}
);
unicode = 05BE;
},
{
glyphname = florin;
lastChange = "2013-03-07 06:44:13 +0200";
layers = (
{
layerId = "98F5E167-1CFF-4278-A065-7BF212AD30BE";
name = Regular;
paths = (
{
closed = 1;
nodes = (
"599 1483 OFFCURVE",
"498 1370 OFFCURVE",
"498 1110 CURVE SMOOTH",
"498 970 LINE",
"276 911 LINE",
"276 836 LINE",
"498 836 LINE",
"498 -137 LINE SMOOTH",
"498 -288 OFFCURVE",
"453 -352 OFFCURVE",
"326 -352 CURVE SMOOTH",
"285 -352 OFFCURVE",
"242 -346 OFFCURVE",
"195 -334 CURVE",
"195 -473 LINE",
"238 -486 OFFCURVE",
"282 -492 OFFCURVE",
"328 -492 CURVE SMOOTH",
"449 -492 OFFCURVE",
"536 -463 OFFCURVE",
"589 -404 CURVE SMOOTH",
"642 -346 OFFCURVE",
"668 -256 OFFCURVE",
"668 -133 CURVE SMOOTH",
"668 836 LINE",
"946 836 LINE",
"946 965 LINE",
"664 965 LINE",
"664 1114 LINE SMOOTH",
"664 1197 OFFCURVE",
"677 1255 OFFCURVE",
"704 1290 CURVE SMOOTH",
"731 1325 OFFCURVE",
"777 1343 OFFCURVE",
"842 1343 CURVE SMOOTH",
"882 1343 OFFCURVE",
"936 1332 OFFCURVE",
"1004 1311 CURVE",
"1025 1376 LINE",
"1047 1440 LINE",
"967 1469 OFFCURVE",
"899 1483 OFFCURVE",
"842 1483 CURVE SMOOTH"
);
}
);
width = 1182;
}
);
unicode = 0192;
},
{
glyphname = Euro;
lastChange = "2013-03-07 06:44:13 +0200";
layers = (
{
layerId = "98F5E167-1CFF-4278-A065-7BF212AD30BE";
name = Regular;
paths = (
{
closed = 1;
nodes = (
"637 1483 OFFCURVE",
"509 1434 OFFCURVE",
"412 1337 CURVE SMOOTH",
"315 1240 OFFCURVE",
"253 1104 OFFCURVE",
"227 930 CURVE",
"63 930 LINE",
"63 801 LINE",
"215 801 LINE",
"213 721 LINE",
"213 677 LINE",
"215 635 LINE",
"63 635 LINE",
"63 506 LINE",
"229 506 LINE",
"290 163 OFFCURVE",
"485 -20 OFFCURVE",
"801 -20 CURVE SMOOTH",
"915 -20 OFFCURVE",
"1021 2 OFFCURVE",
"1118 45 CURVE",
"1118 195 LINE",
"1016 151 OFFCURVE",
"913 129 OFFCURVE",
"809 129 CURVE SMOOTH",
"582 129 OFFCURVE",
"448 266 OFFCURVE",
"399 506 CURVE",
"846 506 LINE",
"846 635 LINE",
"383 635 LINE",
"381 680 LINE",
"381 744 LINE",
"383 801 LINE",
"907 801 LINE",
"907 930 LINE",
"397 930 LINE",
"450 1199 OFFCURVE",
"582 1333 OFFCURVE",
"795 1333 CURVE SMOOTH",
"881 1333 OFFCURVE",
"978 1304 OFFCURVE",
"1090 1247 CURVE",
"1161 1386 LINE",
"1051 1451 OFFCURVE",
"929 1483 OFFCURVE",
"795 1483 CURVE SMOOTH"
);
}
);
width = 1208;
}
);
unicode = 20AC;
},
{
glyphname = cent;
lastChange = "2013-03-07 06:44:13 +0200";
layers = (
{
layerId = "98F5E167-1CFF-4278-A065-7BF212AD30BE";
name = Regular;
paths = (
{
closed = 1;
nodes = (
"586 1483 LINE",
"586 1311 LINE",
"322 1270 OFFCURVE",
"190 1080 OFFCURVE",
"190 741 CURVE SMOOTH",
"190 408 OFFCURVE",
"315 229 OFFCURVE",
"586 186 CURVE",
"586 -20 LINE",
"719 -20 LINE",
"719 180 LINE",
"817 184 OFFCURVE",
"901 204 OFFCURVE",
"970 240 CURVE",
"970 387 LINE",
"876 348 OFFCURVE",
"782 328 OFFCURVE",
"688 328 CURVE SMOOTH",
"465 328 OFFCURVE",
"362 460 OFFCURVE",
"362 743 CURVE SMOOTH",
"362 1032 OFFCURVE",
"467 1171 OFFCURVE",
"696 1171 CURVE SMOOTH",
"769 1171 OFFCURVE",
"849 1154 OFFCURVE",
"938 1120 CURVE",
"986 1260 LINE",
"922 1291 OFFCURVE",
"821 1315 OFFCURVE",
"721 1319 CURVE",
"721 1483 LINE"
);
}
);
width = 1171;
}
);
unicode = 00A2;
},
{
glyphname = dollar;
lastChange = "2013-03-07 06:44:13 +0200";
layers = (
{
layerId = "98F5E167-1CFF-4278-A065-7BF212AD30BE";
name = Regular;
paths = (
{
closed = 1;
nodes = (
"520 1554 LINE",
"520 1372 LINE",
"409 1360 OFFCURVE",
"319 1326 OFFCURVE",
"251 1270 CURVE SMOOTH",
"184 1214 OFFCURVE",
"150 1142 OFFCURVE",
"150 1055 CURVE SMOOTH",
"150 964 OFFCURVE",
"177 890 OFFCURVE",
"232 833 CURVE SMOOTH",
"287 776 OFFCURVE",
"383 725 OFFCURVE",
"520 682 CURVE",
"520 242 LINE",
"461 242 OFFCURVE",
"395 250 OFFCURVE",
"322 265 CURVE SMOOTH",
"250 281 OFFCURVE",
"186 301 OFFCURVE",
"131 326 CURVE",
"131 170 LINE",
"176 149 OFFCURVE",
"233 133 OFFCURVE",
"303 121 CURVE SMOOTH",
"373 110 OFFCURVE",
"445 104 OFFCURVE",
"520 104 CURVE",
"520 -119 LINE",
"649 -119 LINE",
"649 113 LINE",
"771 128 OFFCURVE",
"866 165 OFFCURVE",
"934 224 CURVE SMOOTH",
"1002 283 OFFCURVE",
"1036 358 OFFCURVE",
"1036 449 CURVE SMOOTH",
"1036 508 OFFCURVE",
"1024 557 OFFCURVE",
"998 598 CURVE SMOOTH",
"973 639 OFFCURVE",
"936 676 OFFCURVE",
"884 707 CURVE SMOOTH",
"832 739 OFFCURVE",
"754 772 OFFCURVE",
"649 805 CURVE",
"649 1239 LINE",
"752 1232 OFFCURVE",
"853 1208 OFFCURVE",
"952 1169 CURVE",
"1004 1300 LINE",
"890 1346 OFFCURVE",
"772 1371 OFFCURVE",
"649 1374 CURVE",
"649 1554 LINE"
);
},
{
closed = 1;
nodes = (
"734 612 OFFCURVE",
"792 582 OFFCURVE",
"821 552 CURVE SMOOTH",
"851 523 OFFCURVE",
"866 484 OFFCURVE",
"866 436 CURVE SMOOTH",
"866 333 OFFCURVE",
"794 272 OFFCURVE",
"649 252 CURVE",
"649 641 LINE"
);
},
{
closed = 1;
nodes = (
"520 848 LINE",
"446 875 OFFCURVE",
"394 904 OFFCURVE",
"364 935 CURVE SMOOTH",
"334 966 OFFCURVE",
"319 1006 OFFCURVE",
"319 1057 CURVE SMOOTH",
"319 1149 OFFCURVE",
"388 1214 OFFCURVE",
"520 1235 CURVE"
);
}
);
width = 1171;
}
);
unicode = 0024;
},
{
glyphname = sterling;
lastChange = "2013-03-07 06:44:13 +0200";
layers = (
{
layerId = "98F5E167-1CFF-4278-A065-7BF212AD30BE";
name = Regular;
paths = (
{
closed = 1;
nodes = (
"555 1481 OFFCURVE",
"455 1447 OFFCURVE",
"380 1378 CURVE SMOOTH",
"305 1310 OFFCURVE",
"268 1217 OFFCURVE",
"268 1098 CURVE SMOOTH",
"268 782 LINE",
"70 782 LINE",
"70 655 LINE",
"268 655 LINE",
"268 432 LINE SMOOTH",
"268 269 OFFCURVE",
"200 172 OFFCURVE",
"63 141 CURVE",
"63 0 LINE",
"1092 0 LINE",
"1092 154 LINE",
"297 154 LINE",
"396 213 OFFCURVE",
"436 301 OFFCURVE",
"436 434 CURVE SMOOTH",
"436 655 LINE",
"858 655 LINE",
"858 782 LINE",
"436 782 LINE",
"436 1077 LINE SMOOTH",
"436 1264 OFFCURVE",
"520 1341 OFFCURVE",
"684 1341 CURVE SMOOTH",
"779 1341 OFFCURVE",
"878 1315 OFFCURVE",
"980 1264 CURVE",
"1042 1397 LINE",
"929 1453 OFFCURVE",
"809 1481 OFFCURVE",
"682 1481 CURVE SMOOTH"
);
}
);
width = 1171;
}
);
unicode = 00A3;
},
{
glyphname = uni20AA;
lastChange = "2013-03-07 06:44:13 +0200";
layers = (
{
layerId = "98F5E167-1CFF-4278-A065-7BF212AD30BE";
name = Regular;
paths = (
{
closed = 1;
nodes = (
"1283 1289 LINE",
"1283 727 LINE SMOOTH",
"1283 300 OFFCURVE",
"1076 129 OFFCURVE",
"820 129 CURVE SMOOTH",
"697 129 LINE",
"697 903 LINE",
"531 903 LINE",
"531 0 LINE",
"793 0 LINE SMOOTH",
"1359 0 OFFCURVE",
"1450 469 OFFCURVE",
"1450 727 CURVE SMOOTH",
"1450 1289 LINE"
);
},
{
closed = 1;
nodes = (
"160 1289 LINE",
"160 0 LINE",
"326 0 LINE",
"326 1160 LINE",
"615 1161 LINE SMOOTH",
"793 1162 OFFCURVE",
"908 1119 OFFCURVE",
"908 902 CURVE SMOOTH",
"908 387 LINE",
"1074 387 LINE",
"1074 900 LINE SMOOTH",
"1074 1204 OFFCURVE",
"925 1289 OFFCURVE",
"638 1289 CURVE SMOOTH"
);
}
);
width = 1604;
}
);
unicode = 20AA;
},
{
glyphname = yen;
lastChange = "2013-03-07 06:44:13 +0200";
layers = (
{
layerId = "98F5E167-1CFF-4278-A065-7BF212AD30BE";
name = Regular;
paths = (
{
closed = 1;
nodes = (
"963 1462 LINE",
"584 735 LINE",
"209 1462 LINE",
"31 1462 LINE",
"442 692 LINE",
"186 692 LINE",
"186 565 LINE",
"502 565 LINE",
"502 395 LINE",
"186 395 LINE",
"186 268 LINE",
"502 268 LINE",
"502 0 LINE",
"666 0 LINE",
"666 268 LINE",
"982 268 LINE",
"982 395 LINE",
"666 395 LINE",
"666 565 LINE",
"982 565 LINE",
"982 692 LINE",
"721 692 LINE",
"1137 1462 LINE"
);
}
);
width = 1171;
}
);
unicode = 00A5;
},
{
glyphname = asciitilde;
lastChange = "2013-03-07 06:44:13 +0200";
layers = (
{
layerId = "98F5E167-1CFF-4278-A065-7BF212AD30BE";
name = Regular;
paths = (
{
closed = 1;
nodes = (
"992 776 OFFCURVE",
"901 731 OFFCURVE",
"829 731 CURVE SMOOTH",
"766 731 OFFCURVE",
"706 749 OFFCURVE",
"618 786 CURVE SMOOTH",
"559 811 OFFCURVE",
"510 829 OFFCURVE",
"472 838 CURVE SMOOTH",
"435 847 OFFCURVE",
"393 852 OFFCURVE",
"348 852 CURVE SMOOTH",
"252 852 OFFCURVE",
"171 816 OFFCURVE",
"104 743 CURVE",
"104 592 LINE",
"176 664 OFFCURVE",
"267 713 OFFCURVE",
"338 713 CURVE SMOOTH",
"370 713 OFFCURVE",
"401 709 OFFCURVE",
"431 701 CURVE SMOOTH",
"461 693 OFFCURVE",
"501 678 OFFCURVE",
"551 657 CURVE SMOOTH",
"647 614 OFFCURVE",
"725 592 OFFCURVE",
"821 592 CURVE SMOOTH",
"916 592 OFFCURVE",
"996 629 OFFCURVE",
"1065 702 CURVE",
"1065 852 LINE"
);
}
);
width = 1171;
}
);
unicode = 007E;
},
{
glyphname = divide;
lastChange = "2013-03-07 06:44:13 +0200";
layers = (
{
layerId = "98F5E167-1CFF-4278-A065-7BF212AD30BE";
name = Regular;
paths = (
{
closed = 1;
nodes = (
"104 791 LINE",
"104 653 LINE",
"1065 653 LINE",
"1065 791 LINE"
);
},
{
closed = 1;
nodes = (
"512 494 OFFCURVE",
"471 453 OFFCURVE",
"471 373 CURVE SMOOTH",
"471 296 OFFCURVE",
"515 252 OFFCURVE",
"584 252 CURVE SMOOTH",
"652 252 OFFCURVE",
"694 297 OFFCURVE",
"694 373 CURVE SMOOTH",
"694 450 OFFCURVE",
"653 494 OFFCURVE",
"584 494 CURVE SMOOTH"
);
},
{
closed = 1;
nodes = (
"512 1192 OFFCURVE",
"471 1151 OFFCURVE",
"471 1071 CURVE SMOOTH",
"471 993 OFFCURVE",
"515 950 OFFCURVE",
"584 950 CURVE SMOOTH",
"652 950 OFFCURVE",
"694 994 OFFCURVE",
"694 1071 CURVE SMOOTH",
"694 1148 OFFCURVE",
"653 1192 OFFCURVE",
"584 1192 CURVE SMOOTH"
);
}
);
width = 1171;
}
);
unicode = 00F7;
},
{
glyphname = equal;
lastChange = "2013-03-07 06:44:13 +0200";
layers = (
{
layerId = "98F5E167-1CFF-4278-A065-7BF212AD30BE";
name = Regular;
paths = (
{
closed = 1;
nodes = (
"119 586 LINE",
"119 449 LINE",
"1049 449 LINE",
"1049 586 LINE"
);
},
{
closed = 1;
nodes = (
"119 994 LINE",
"119 858 LINE",
"1049 858 LINE",
"1049 994 LINE"
);
}
);
width = 1171;
}
);
unicode = 003D;
},
{
glyphname = greater;
lastChange = "2013-03-07 06:44:13 +0200";
layers = (
{
layerId = "98F5E167-1CFF-4278-A065-7BF212AD30BE";
name = Regular;
paths = (
{
closed = 1;
nodes = (
"104 1092 LINE",
"887 719 LINE",
"104 393 LINE",
"104 242 LINE",
"1065 664 LINE",
"1065 762 LINE",
"104 1241 LINE"
);
}
);
width = 1171;
}
);
unicode = 003E;
},
{
glyphname = less;
lastChange = "2013-03-07 06:44:13 +0200";
layers = (
{
layerId = "98F5E167-1CFF-4278-A065-7BF212AD30BE";
name = Regular;
paths = (
{
closed = 1;
nodes = (
"104 762 LINE",
"104 664 LINE",
"1065 242 LINE",
"1065 393 LINE",
"283 721 LINE",
"1065 1092 LINE",
"1065 1241 LINE"
);
}
);
width = 1171;
}
);
unicode = 003C;
},
{
glyphname = logicalnot;
lastChange = "2013-03-07 06:44:13 +0200";
layers = (
{
layerId = "98F5E167-1CFF-4278-A065-7BF212AD30BE";
name = Regular;
paths = (
{
closed = 1;
nodes = (
"104 791 LINE",
"104 653 LINE",
"928 653 LINE",
"928 264 LINE",
"1065 264 LINE",
"1065 791 LINE"
);
}
);
width = 1171;
}
);
unicode = 00AC;
},
{
glyphname = multiply;
lastChange = "2013-03-07 06:44:13 +0200";
layers = (
{
layerId = "98F5E167-1CFF-4278-A065-7BF212AD30BE";
name = Regular;
paths = (
{
closed = 1;
nodes = (
"586 821 LINE",
"233 1176 LINE",
"133 1075 LINE",
"485 723 LINE",
"135 371 LINE",
"236 272 LINE",
"584 623 LINE",
"938 272 LINE",
"1034 371 LINE",
"684 723 LINE",
"1036 1077 LINE",
"940 1176 LINE"
);
}
);
width = 1171;
}
);
unicode = 00D7;
},
{
glyphname = percent;
lastChange = "2013-03-07 06:44:13 +0200";
layers = (
{
layerId = "98F5E167-1CFF-4278-A065-7BF212AD30BE";
name = Regular;
paths = (
{
closed = 1;
nodes = (
"1176 1462 LINE",
"365 0 LINE",
"512 0 LINE",
"1323 1462 LINE"
);
},
{
closed = 1;
nodes = (
"204 1483 OFFCURVE",
"104 1329 OFFCURVE",
"104 1026 CURVE SMOOTH",
"104 729 OFFCURVE",
"212 565 OFFCURVE",
"399 565 CURVE SMOOTH",
"596 565 OFFCURVE",
"700 722 OFFCURVE",
"700 1026 CURVE SMOOTH",
"700 1318 OFFCURVE",
"592 1483 OFFCURVE",
"399 1483 CURVE SMOOTH"
);
},
{
closed = 1;
nodes = (
"508 1364 OFFCURVE",
"563 1251 OFFCURVE",
"563 1026 CURVE SMOOTH",
"563 799 OFFCURVE",
"508 686 OFFCURVE",
"399 686 CURVE SMOOTH",
"288 686 OFFCURVE",
"242 799 OFFCURVE",
"242 1026 CURVE SMOOTH",
"242 1253 OFFCURVE",
"288 1364 OFFCURVE",
"399 1364 CURVE SMOOTH"
);
},
{
closed = 1;
nodes = (
"1392 776 OFFCURVE",
"1444 668 OFFCURVE",
"1444 440 CURVE SMOOTH",
"1444 209 OFFCURVE",
"1392 99 OFFCURVE",
"1280 99 CURVE SMOOTH",
"1168 99 OFFCURVE",
"1122 212 OFFCURVE",
"1122 440 CURVE SMOOTH",
"1122 668 OFFCURVE",
"1168 776 OFFCURVE",
"1280 776 CURVE SMOOTH"
);
},
{
closed = 1;
nodes = (
"1085 897 OFFCURVE",
"984 743 OFFCURVE",
"984 440 CURVE SMOOTH",
"984 144 OFFCURVE",
"1091 -20 OFFCURVE",
"1280 -20 CURVE SMOOTH",
"1477 -20 OFFCURVE",
"1581 137 OFFCURVE",
"1581 440 CURVE SMOOTH",
"1581 736 OFFCURVE",
"1469 897 OFFCURVE",
"1280 897 CURVE SMOOTH"
);
}
);
width = 1686;
}
);
unicode = 0025;
},
{
glyphname = perthousand;
lastChange = "2013-03-07 06:44:13 +0200";
layers = (
{
layerId = "98F5E167-1CFF-4278-A065-7BF212AD30BE";
name = Regular;
paths = (
{
closed = 1;
nodes = (
"1198 1462 LINE",
"387 0 LINE",
"535 0 LINE",
"1346 1462 LINE"
);
},
{
closed = 1;
nodes = (
"204 1483 OFFCURVE",
"99 1331 OFFCURVE",
"99 1026 CURVE SMOOTH",
"99 729 OFFCURVE",
"213 565 OFFCURVE",
"412 565 CURVE SMOOTH",
"620 565 OFFCURVE",
"729 719 OFFCURVE",
"729 1026 CURVE SMOOTH",
"729 1171 OFFCURVE",
"701 1283 OFFCURVE",
"646 1363 CURVE SMOOTH",
"591 1443 OFFCURVE",
"513 1483 OFFCURVE",
"412 1483 CURVE SMOOTH"
);
},
{
closed = 1;
nodes = (
"532 1364 OFFCURVE",
"592 1251 OFFCURVE",
"592 1026 CURVE SMOOTH",
"592 799 OFFCURVE",
"532 686 OFFCURVE",
"412 686 CURVE SMOOTH",
"288 686 OFFCURVE",
"236 799 OFFCURVE",
"236 1026 CURVE SMOOTH",
"236 1253 OFFCURVE",
"288 1364 OFFCURVE",
"412 1364 CURVE SMOOTH"
);
},
{
closed = 1;
nodes = (
"1434 776 OFFCURVE",
"1493 668 OFFCURVE",
"1493 440 CURVE SMOOTH",
"1493 209 OFFCURVE",
"1434 99 OFFCURVE",
"1313 99 CURVE SMOOTH",
"1189 99 OFFCURVE",
"1139 212 OFFCURVE",
"1139 440 CURVE SMOOTH",
"1139 668 OFFCURVE",
"1189 776 OFFCURVE",
"1313 776 CURVE SMOOTH"
);
},
{
closed = 1;
nodes = (
"1105 897 OFFCURVE",
"1001 745 OFFCURVE",
"1001 440 CURVE SMOOTH",
"1001 144 OFFCURVE",
"1114 -20 OFFCURVE",
"1313 -20 CURVE SMOOTH",
"1520 -20 OFFCURVE",
"1630 133 OFFCURVE",
"1630 440 CURVE SMOOTH",
"1630 735 OFFCURVE",
"1513 897 OFFCURVE",
"1313 897 CURVE SMOOTH"
);
},
{
closed = 1;
nodes = (
"2167 776 OFFCURVE",
"2226 668 OFFCURVE",
"2226 440 CURVE SMOOTH",
"2226 209 OFFCURVE",
"2167 99 OFFCURVE",
"2046 99 CURVE SMOOTH",
"1922 99 OFFCURVE",
"1870 212 OFFCURVE",
"1870 440 CURVE SMOOTH",
"1870 668 OFFCURVE",
"1922 776 OFFCURVE",
"2046 776 CURVE SMOOTH"
);
},
{
closed = 1;
nodes = (
"1839 897 OFFCURVE",
"1735 745 OFFCURVE",
"1735 440 CURVE SMOOTH",
"1735 145 OFFCURVE",
"1849 -20 OFFCURVE",
"2046 -20 CURVE SMOOTH",
"2253 -20 OFFCURVE",
"2363 133 OFFCURVE",
"2363 440 CURVE SMOOTH",
"2363 735 OFFCURVE",
"2246 897 OFFCURVE",
"2046 897 CURVE SMOOTH"
);
}
);
width = 2462;
}
);
unicode = 2030;
},
{
glyphname = plus;
lastChange = "2013-03-07 06:44:13 +0200";
layers = (
{
layerId = "98F5E167-1CFF-4278-A065-7BF212AD30BE";
name = Regular;
paths = (
{
closed = 1;
nodes = (
"514 1219 LINE",
"514 791 LINE",
"104 791 LINE",
"104 653 LINE",
"514 653 LINE",
"514 227 LINE",
"653 227 LINE",
"653 653 LINE",
"1065 653 LINE",
"1065 791 LINE",
"653 791 LINE",
"653 1219 LINE"
);
}
);
width = 1171;
}
);
unicode = 002B;
},
{
glyphname = plusminus;
lastChange = "2013-03-07 06:44:13 +0200";
layers = (
{
layerId = "98F5E167-1CFF-4278-A065-7BF212AD30BE";
name = Regular;
paths = (
{
closed = 1;
nodes = (
"514 1219 LINE",
"514 791 LINE",
"104 791 LINE",
"104 653 LINE",
"514 653 LINE",
"514 227 LINE",
"653 227 LINE",
"653 653 LINE",
"1065 653 LINE",
"1065 791 LINE",
"653 791 LINE",
"653 1219 LINE"
);
},
{
closed = 1;
nodes = (
"104 139 LINE",
"104 0 LINE",
"1065 0 LINE",
"1065 139 LINE"
);
}
);
width = 1171;
}
);
unicode = 00B1;
},
